<?xml version="1.0" standalone="no"?>
<!DOCTYPE svg PUBLIC "-//W3C//DTD SVG 1.1//EN" "http://www.w3.org/Graphics/SVG/1.1/DTD/svg11.dtd" >
<svg xmlns="http://www.w3.org/2000/svg" xmlns:xlink="http://www.w3.org/1999/xlink" version="1.1">
<metadata></metadata>
<defs>
<font id="uvf_funkydoriregular" horiz-adv-x="292" >
<font-face units-per-em="1000" ascent="670" descent="-330" />
<missing-glyph horiz-adv-x="179" />
<glyph unicode=" "  horiz-adv-x="179" />
<glyph unicode="&#x09;" horiz-adv-x="179" />
<glyph unicode="&#xa0;" horiz-adv-x="179" />
<glyph unicode="!" horiz-adv-x="164" d="M10 41q0 26 20 49.5t46 23.5q18 0 29 -13t11 -33q0 -27 -20 -50.5t-48 -23.5q-17 0 -27.5 13t-10.5 34zM131 200q-3 -12 -6.5 -16t-14.5 -10q-32 -15 -52 -15q-19 0 -19 23q0 6 14.5 102.5t30 200t16.5 113.5q5 24 26 31q61 19 79 19t18 -17q0 -12 -14 -78t-40 -181 t-38 -172z" />
<glyph unicode="&#x22;" horiz-adv-x="210" d="M38 418q-13 0 -17 5.5t-7 19.5q-3 13 -10.5 64t-7.5 61q0 33 42 33q44 0 44 -33q0 -12 -20 -125q-2 -9 -3 -11l-3.5 -7t-6.5 -6t-11 -1zM158 418q-13 0 -17 5.5t-7 19.5q-3 13 -10.5 64t-7.5 61q0 33 42 33q44 0 44 -33q0 -25 -20 -125q-3 -14 -7.5 -19.5t-16.5 -5.5z " />
<glyph unicode="#" horiz-adv-x="452" d="M305 406l38 105q5 15 28 15q11 0 19 -8t8 -19q0 -3 -31 -93h56q23 0 23 -18q0 -14 -8 -24t-21 -10h-71l-39 -117h49q21 0 21 -16q0 -13 -8 -24t-21 -11h-61l-34 -102q-8 -17 -32 -17t-24 23q0 6 31 96h-96l-41 -107q-5 -12 -27 -12q-12 0 -19 7.5t-7 18.5q0 8 33 93h-42 q-9 0 -15 6.5t-6 13.5q0 13 7.5 22.5t21.5 9.5h54l45 115q-10 0 -24.5 0.5t-21.5 1t-8 0.5q-20 0 -20 20q0 31 27 31h69l41 103q6 17 26 17q12 0 20.5 -8t8.5 -19l-36 -93h87zM153 238h93l40 115h-88z" />
<glyph unicode="$" horiz-adv-x="383" d="M312 568l-6 -28q33 -9 54 -30q11 -9 11 -21q0 -14 -9 -26t-25 -12q-6 0 -19.5 17.5t-30.5 17.5l-39 -158q41 -24 66 -57.5t25 -67.5q0 -42 -15.5 -72t-41 -44.5t-50 -20.5t-50.5 -6l-8 -32q-2 -8 -14.5 -13.5t-25.5 -5.5q-20 0 -20 16v3q1 1 1 3l10 31q-39 6 -73 33.5 t-34 58.5q0 18 9.5 29.5t25.5 11.5q30 0 30 -39q0 -12 19 -22.5t36 -10.5l40 153q-91 46 -91 123q0 59 48.5 98t115.5 45l7 26q2 9 13.5 15t23.5 6q18 0 18 -14q0 -6 -1 -7zM167 406q0 -39 32 -58l35 138q-27 -2 -47 -25t-20 -55zM262 197q0 33 -36 55l-32 -131q26 0 47 22 t21 54z" />
<glyph unicode="%" horiz-adv-x="509" d="M414 572q0 -14 -9 -36q-21 -50 -76 -178.5t-99.5 -232t-49.5 -117.5q-6 -14 -22 -14q-66 0 -66 26q0 2 5 17q10 23 53.5 125.5t97 230t77.5 183.5q6 15 22 15q27 0 47 -5.5t20 -13.5zM68 431q0 -20 13.5 -33.5t33.5 -13.5t33 13.5t13 33.5t-13 33t-33 13t-33.5 -13 t-13.5 -33zM8 431q0 44 31.5 75.5t75.5 31.5t75.5 -31.5t31.5 -75.5t-31.5 -75.5t-75.5 -31.5t-75.5 31.5t-31.5 75.5zM342 135q0 -20 13.5 -33.5t33.5 -13.5t33 13.5t13 33.5t-13 33t-33 13t-33.5 -13t-13.5 -33zM282 135q0 44 31.5 75.5t75.5 31.5t75.5 -31.5t31.5 -75.5 t-31.5 -75.5t-75.5 -31.5t-75.5 31.5t-31.5 75.5z" />
<glyph unicode="&#x26;" horiz-adv-x="566" d="M453 256q15 -34 15 -74q0 -84 -66 -135.5t-162 -51.5q-95 0 -157.5 50.5t-62.5 134.5q0 36 11.5 68t25 51.5t38 40t35.5 27.5t34 20q-58 55 -58 118q0 72 65 119.5t147 47.5q67 0 103.5 -27.5t36.5 -80.5q0 -39 -19 -63.5t-51 -24.5q-21 0 -35.5 12.5t-14.5 32.5 q0 21 21 38.5t21 32.5q0 25 -34 25q-39 0 -66 -38.5t-27 -92.5q0 -25 10 -47q5 -11 11 -14l14 4q17 5 41 5t38.5 -12.5t14.5 -33.5q0 -26 -17.5 -41t-47.5 -15q-44 0 -82 22q-18 -12 -37 -52.5t-19 -83.5q0 -63 32.5 -95.5t85.5 -32.5q43 0 74 22.5t31 65.5q0 24 -13.5 38.5 t-30.5 14.5q-22 0 -22 -16q0 -5 10 -14.5t10 -21.5q0 -16 -11 -25.5t-27 -9.5q-18 0 -29.5 14.5t-11.5 36.5q0 32 30 58.5t75 44.5q63 24 89 44t26 41q0 26 -23 26q-8 0 -16.5 -3t-13.5 -3q-11 0 -11 12q0 17 28 41t68 24q98 0 98 -90q0 -100 -174 -134z" />
<glyph unicode="'" horiz-adv-x="98" d="M47 418q-13 0 -17 5.5t-7 19.5q-3 13 -10.5 64t-7.5 61q0 33 42 33q44 0 44 -33q0 -25 -20 -125q-2 -9 -3 -11l-3.5 -7t-6.5 -6t-11 -1z" />
<glyph unicode="(" horiz-adv-x="182" d="M270 635q14 14 28 14q13 0 13 -12q0 -14 -16 -30q-45 -50 -86.5 -113t-77 -157t-35.5 -180q0 -112 35 -173q5 -8 5 -16q0 -13 -13 -13q-6 0 -20 11q-13 10 -33.5 34t-45 77t-24.5 106q0 69 27 141t70.5 130.5t86.5 103.5t86 77z" />
<glyph unicode=")" horiz-adv-x="195" d="M-1 -31q-14 -14 -28 -14q-13 0 -13 12q0 14 16 30q45 50 86.5 113t77 157t35.5 180q0 112 -35 173q-5 8 -5 16q0 13 13 13q6 0 20 -11q13 -10 33.5 -34t45 -77t24.5 -106q0 -68 -27.5 -139.5t-72 -131t-86 -103.5t-84.5 -78z" />
<glyph unicode="*" horiz-adv-x="228" d="M143 600q0 -3 -1.5 -27t-1.5 -31q44 37 55 37q10 0 18.5 -11.5t8.5 -22.5q0 -15 -9 -20q-25 -14 -57 -22q11 -4 31 -13.5t24 -10.5q11 -5 11 -22q0 -11 -8 -21.5t-19 -10.5q-5 0 -26.5 14t-29.5 22l2 -23q2 -26 2 -36q0 -7 -9.5 -14.5t-21.5 -7.5q-9 0 -18 8t-9 14 q0 8 0.5 18t1.5 22.5t1 19.5q-37 -37 -55 -37q-10 0 -19 10t-9 22q0 16 11 22t21.5 10.5t19.5 8t11 4.5q-13 6 -29.5 12.5t-22.5 10.5q-11 5 -11 20q0 12 8.5 23t19.5 11q7 0 16.5 -6t22.5 -17.5t15 -13.5q0 7 -1 27t-1 31q0 8 8.5 14.5t18.5 6.5q13 0 22 -6.5t9 -14.5z" />
<glyph unicode="+" horiz-adv-x="430" d="M179 315v146q0 21 35 21q37 0 37 -19v-148h146q21 0 21 -35q0 -37 -19 -37h-148v-145q0 -21 -37 -21q-35 0 -35 19v147h-145q-21 0 -21 37q0 35 19 35h147z" />
<glyph unicode="," horiz-adv-x="144" d="M18 51q0 24 14.5 38.5t38.5 14.5q53 0 53 -54q0 -48 -45.5 -98t-66.5 -50q-15 0 -15 13q0 6 16 33.5t16 55.5q0 9 -5.5 23t-5.5 24z" />
<glyph unicode="-" horiz-adv-x="346" d="M273 133h-228q-15 0 -15 16q0 13 10.5 34.5t21.5 21.5h228q11 0 14.5 -3t3.5 -11q0 -12 -12 -35t-23 -23z" />
<glyph unicode="." horiz-adv-x="209" d="M28 41q0 26 20 49.5t46 23.5q18 0 29 -13t11 -33q0 -27 -20 -50.5t-48 -23.5q-17 0 -27.5 13t-10.5 34z" />
<glyph unicode="/" horiz-adv-x="250" d="M351 572q0 -14 -9 -36q-204 -493 -225 -528q-4 -14 -22 -14h-32q-34 0 -34 16q0 2 5 17q12 25 104.5 251.5t123.5 297.5q6 15 22 15q27 0 47 -5.5t20 -13.5z" />
<glyph unicode="0" horiz-adv-x="467" d="M292 584q74 0 118.5 -50t44.5 -151q0 -92 -33 -181t-99 -150.5t-147 -61.5q-74 0 -118.5 50.5t-44.5 150.5q0 163 83.5 278t195.5 115zM282 531q-56 0 -92 -113t-36 -295q0 -32 13 -53.5t35 -21.5q38 0 66 74t40 164t12 170q0 75 -38 75z" />
<glyph unicode="1" horiz-adv-x="211" d="M86 417q-7 0 -24 -5.5t-26 -5.5q-7 0 -13 6.5t-6 13.5q0 15 17 27q58 42 116 91q39 34 47 34q21 0 34 -10t13 -27q0 -9 -4 -23t-13.5 -44.5t-17.5 -61.5q-77 -312 -77 -391q0 -12 -4.5 -16.5t-16.5 -4.5q-17 0 -49 -2.5t-38 -2.5q-19 0 -19 22q0 38 20.5 135t40.5 179.5 t20 85.5z" />
<glyph unicode="2" horiz-adv-x="438" d="M125 22q-12 0 -33.5 -11t-31.5 -11q-15 0 -27.5 24.5t-12.5 43.5q0 7 1.5 12.5t3 9.5t6 9.5t7 8l10 10l10.5 10.5q54 52 84.5 84t71 80t59.5 89t19 77q0 70 -68 70q-26 0 -44.5 -18.5t-18.5 -43.5q0 -12 14.5 -29t14.5 -39q0 -21 -15 -35.5t-35 -14.5q-33 0 -52 21.5 t-19 59.5q0 64 53.5 108.5t132.5 44.5q82 0 135 -39t53 -112q0 -43 -31.5 -89.5t-70 -79.5t-85.5 -73t-65 -63q18 2 26 2q18 0 49.5 -3t44.5 -3q32 0 46 7t32 28q13 16 21 16q15 0 15 -18q0 -44 -42.5 -102t-109.5 -58q-35 0 -75 13.5t-73 13.5z" />
<glyph unicode="3" horiz-adv-x="426" d="M255 205q0 58 -55 73q-19 5 -27 11.5t-8 18.5q0 34 40 45q36 10 59.5 44.5t23.5 73.5q0 60 -56 60q-19 0 -30 -10.5t-11 -26.5q0 -14 11 -26t11 -31q0 -20 -17 -34t-38 -14q-29 0 -47 19t-18 49q0 65 55 95.5t126 30.5q147 0 147 -119q0 -95 -104 -133q36 -16 65 -48 t29 -81q0 -87 -54 -147t-143 -60q-47 0 -83 18t-55.5 46t-29 56t-9.5 52q0 25 17 25q13 0 19 -20q8 -26 34.5 -44.5t56.5 -18.5q43 0 67 25.5t24 70.5z" />
<glyph unicode="4" horiz-adv-x="437" d="M264 311l27 106q18 55 33.5 81.5t41.5 45.5q42 31 71 31q16 0 16 -14q0 -5 -2.5 -11.5t-8.5 -20t-10 -27.5q-16 -48 -50 -208q6 -2 33 -2q15 0 15 -11q0 -17 -22 -44.5t-46 -33.5q-25 -119 -25 -182q0 -12 -4.5 -16.5t-16.5 -4.5q-17 0 -49 -2.5t-38 -2.5q-19 0 -19 22 q0 58 27 185q-47 8 -137 8q-15 0 -29.5 -3.5t-20.5 -3.5q-14 0 -27 24t-13 41q0 12 27.5 43.5t55.5 73.5t28 78q0 12 -13.5 29t-13.5 37t17 34t38 14q65 0 65 -64q0 -45 -26.5 -104t-58.5 -95q17 4 46 4q28 0 89 -7z" />
<glyph unicode="5" horiz-adv-x="406" d="M176 575q4 0 18 -3.5t40.5 -7t60.5 -3.5q37 0 61 4t34.5 8t13.5 4q15 0 15 -13q0 -15 -19.5 -55t-44.5 -52q-14 -8 -45 -8q-36 0 -108 18q-8 -44 -17 -68q-3 -11 -11 -29q15 4 41 4q71 0 121.5 -43.5t50.5 -115.5q0 -94 -57.5 -157t-148.5 -63q-76 0 -116.5 51t-40.5 121 q0 25 17 25q8 0 11.5 -4.5t7.5 -18.5q19 -60 90 -60q41 0 65 32.5t24 77.5q0 35 -18.5 65t-62.5 30q-8 0 -36 -5q-1 -1 -9 -1q-14 0 -23 10.5t-9 23.5q0 6 9 34.5t20 70.5t14 77q2 21 17 36t35 15z" />
<glyph unicode="6" horiz-adv-x="420" d="M158 297q24 20 34 25q48 25 90 25q57 0 92.5 -38.5t35.5 -101.5q0 -89 -55 -150.5t-161 -61.5q-30 0 -59.5 11t-58.5 35t-47.5 71t-18.5 111q0 164 74 261.5t186 97.5q65 0 100.5 -32t35.5 -79q0 -42 -18.5 -64.5t-51.5 -22.5q-20 0 -35 14.5t-15 35.5t14.5 35.5 t14.5 27.5q0 16 -12 25t-30 9q-52 0 -83.5 -68.5t-31.5 -165.5zM155 145q0 -42 14 -68.5t37 -26.5q32 0 51.5 45.5t19.5 120.5q0 67 -47 67q-29 0 -52 -40t-23 -98z" />
<glyph unicode="7" horiz-adv-x="339" d="M262 453q-52 12 -103 12q-37 0 -61 -4t-34.5 -8t-13.5 -4q-15 0 -15 13q0 15 19.5 55t44.5 52q14 8 46 8q17 0 74.5 -5.5t89.5 -5.5q18 0 32.5 4.5t21.5 4.5q13 0 25.5 -23.5t12.5 -40.5q0 -7 -6.5 -13.5t-21 -19t-25.5 -24.5q-65 -73 -115 -208.5t-50 -212.5 q0 -24 -24 -24q-5 0 -49 -7t-59 -7t-15 19q0 74 71.5 219.5t154.5 219.5z" />
<glyph unicode="8" horiz-adv-x="440" d="M282 580q144 0 144 -111q0 -44 -29.5 -78t-82.5 -68q32 -22 55.5 -59.5t23.5 -85.5q0 -87 -59.5 -137.5t-158.5 -50.5q-71 0 -118 33.5t-47 108.5q0 100 126 182q-62 53 -62 111q0 75 63.5 115t144.5 40zM254 115q0 32 -15.5 56t-47.5 53q-63 -69 -63 -122q0 -25 17 -41 t41 -16q30 0 49 20t19 50zM287 530q-31 0 -52.5 -24.5t-21.5 -60.5q0 -23 8.5 -36.5t32.5 -36.5q72 61 72 121q0 17 -11.5 27t-27.5 10z" />
<glyph unicode="9" horiz-adv-x="414" d="M137 -5q-66 0 -102 42t-36 82q0 22 17 22q6 0 26 -17q25 -22 69 -22q59 0 101 48t42 120q-12 -16 -30 -27q-40 -26 -90 -26q-58 0 -95 37.5t-37 99.5q0 89 59.5 158.5t165.5 69.5q80 0 127.5 -47t47.5 -149q0 -178 -75 -284.5t-190 -106.5zM257 444q0 83 -42 83 q-33 0 -56.5 -53t-23.5 -127q0 -29 13 -46t34 -17q28 0 51.5 50t23.5 110z" />
<glyph unicode=":" horiz-adv-x="174" d="M30 71q0 26 20 49.5t46 23.5q18 0 29 -13t11 -33q0 -27 -20 -50.5t-48 -23.5q-17 0 -27.5 13t-10.5 34zM48 231q0 26 20 49.5t46 23.5q18 0 29 -13t11 -33q0 -27 -20 -50.5t-48 -23.5q-17 0 -27.5 13t-10.5 34z" />
<glyph unicode=";" horiz-adv-x="129" d="M21 231q0 26 20 49.5t46 23.5q18 0 29 -13t11 -33q0 -27 -20 -50.5t-48 -23.5q-17 0 -27.5 13t-10.5 34zM1 51q0 24 14.5 38.5t38.5 14.5q53 0 53 -54q0 -48 -45.5 -98t-66.5 -50q-15 0 -15 13q0 6 16 33.5t16 55.5q0 9 -5.5 23t-5.5 24z" />
<glyph unicode="&#x3c;" horiz-adv-x="312" d="M40 340q20 15 56 39.5t51 35.5q107 75 113 75q11 0 20 -17.5t9 -28.5q0 -9 -9 -17l-180 -124l181 -120q9 -6 9 -19q0 -11 -7.5 -28.5t-19.5 -17.5q-8 0 -118 74l-112 75q-15 12 -15 35q0 19 22 38z" />
<glyph unicode="=" horiz-adv-x="424" d="M350 183h-335q-15 0 -15 16q0 13 10.5 34.5t21.5 21.5h335q11 0 14.5 -3t3.5 -11q0 -12 -12 -35t-23 -23zM370 317h-335q-15 0 -15 16q0 13 10.5 34.5t21.5 21.5h335q11 0 14.5 -3t3.5 -11q0 -12 -12 -35t-23 -23z" />
<glyph unicode="&#x3e;" horiz-adv-x="310" d="M268 340q22 -19 22 -38q0 -23 -15 -35l-112 -75q-112 -74 -118 -74q-12 0 -19.5 17.5t-7.5 28.5q0 13 9 19l181 120l-180 124q-9 8 -9 17q0 11 9 28.5t20 17.5q6 0 113 -75q15 -11 51 -35.5t56 -39.5z" />
<glyph unicode="?" horiz-adv-x="377" d="M185 192q-4 -23 -29 -25q-15 -2 -35.5 -8.5t-25.5 -6.5q-15 0 -15 16q0 32 24 77t53.5 84t53.5 88.5t24 90.5q0 43 -17 61.5t-58 18.5q-26 0 -46 -18.5t-20 -43.5q0 -13 15 -32.5t15 -40.5q0 -20 -15 -32.5t-36 -12.5q-33 0 -52 21.5t-19 59.5q0 72 52.5 112.5 t130.5 40.5q86 0 141 -39t55 -121q0 -34 -18 -66.5t-45 -58.5t-55 -51t-50.5 -54.5t-27.5 -59.5zM68 41q0 26 20 49.5t46 23.5q18 0 29 -13t11 -33q0 -27 -20 -50.5t-48 -23.5q-17 0 -27.5 13t-10.5 34z" />
<glyph unicode="@" horiz-adv-x="543" d="M308 228q0 25 -25 25q-32 0 -50.5 -45.5t-18.5 -89.5q0 -39 29 -39q27 0 43 39q8 16 15 51t7 59zM531 201q0 -71 -41 -125.5t-106 -54.5q-28 0 -47 11t-27 22t-9 11t-15 -11t-39 -22t-52 -11q-40 0 -65 25.5t-25 72.5q0 69 43 118.5t127 49.5q25 0 46.5 -8t24.5 -8 q6 0 32.5 8t37.5 8q12 0 12 -13q0 -5 -14.5 -58.5t-14.5 -92.5q0 -15 8 -24.5t20 -9.5q20 0 36.5 29.5t16.5 89.5q0 65 -39 94t-121 29q-122 0 -188 -60t-66 -154q0 -63 35 -97t98 -34q39 0 72 20q1 0 4.5 2t5.5 2q8 0 8 -10q0 -11 -33.5 -41t-60.5 -30q-86 0 -137.5 51.5 t-51.5 140.5q0 102 85 176.5t221 74.5q105 0 162 -42.5t57 -128.5z" />
<glyph unicode="A" horiz-adv-x="721" d="M668 76q17 0 38 21q10 10 17 10q14 0 14 -14q0 -13 -16 -32q-51 -66 -127 -66q-97 0 -97 111q0 68 24 185q-37 0 -60 -16.5t-43 -53.5q-20 -38 -27.5 -51.5t-27 -45.5t-31 -45t-33 -34.5t-41 -30.5t-46 -16.5t-55.5 -7.5q-68 0 -112.5 39t-44.5 101q0 63 49 100t90 37 q14 0 14 -13q0 -5 -9 -20.5t-9 -28.5q0 -52 58 -52q22 0 43.5 13.5t46.5 46t36.5 50t38.5 61.5q12 20 41 68t44.5 73t40 57.5t46.5 52.5q-64 20 -130 20q-41 0 -69 -22t-28 -51q0 -44 42 -44q9 0 18.5 5t11.5 5q11 0 11 -11q0 -32 -35 -66.5t-83 -34.5t-81 32.5t-33 83.5 q0 78 64 124.5t153 46.5q61 0 129.5 -13.5t86.5 -13.5q37 0 68.5 4t50 8t23.5 4q18 0 18 -17q0 -5 -4.5 -14.5t-15 -34.5t-20.5 -59q-23 -73 -47.5 -199t-24.5 -196q0 -56 33 -56zM473 354h65q21 99 75 204q-40 -32 -79 -93.5t-61 -110.5z" />
<glyph unicode="B" horiz-adv-x="704" d="M310 503q9 31 22 53.5t23.5 32.5t27.5 22q-93 -6 -159.5 -61.5t-66.5 -110.5q0 -47 41 -47q8 0 20 3.5t14 3.5q10 0 10 -11q0 -27 -41 -64.5t-94 -37.5q-49 0 -78 28.5t-29 81.5q0 115 131.5 191t315.5 76q113 0 172.5 -38t59.5 -105q0 -66 -47 -110t-113 -53 q47 -4 95 -49.5t48 -104.5q0 -57 -20.5 -99.5t-54.5 -65t-71.5 -33t-77.5 -10.5q-32 0 -62.5 9t-49.5 18t-23 9q-11 0 -49.5 -18t-52.5 -18q-16 0 -16 13q0 5 4 11.5t12.5 21t16.5 35.5q8 23 43 199t49 228zM425 389q51 0 86.5 47t35.5 105q0 31 -13.5 51.5t-37.5 20.5 q-12 -12 -30 -68t-30 -106t-11 -50zM513 240q0 46 -28.5 72.5t-72.5 26.5l-21 -112q-20 -105 -20 -133q0 -19 12 -32.5t32 -13.5q37 0 67.5 48t30.5 144z" />
<glyph unicode="C" horiz-adv-x="477" d="M341 663q60 0 98 -33t38 -93q0 -42 -19 -69.5t-48 -27.5q-21 0 -35 12.5t-14 32.5q0 25 22.5 45t22.5 41q0 17 -13 26.5t-32 9.5q-77 0 -136 -109t-59 -253q0 -68 36 -104t93 -36q24 0 50 14t34.5 22t28.5 28q15 17 23 17q13 0 13 -11q0 -12 -10 -31q-22 -50 -85 -103.5 t-142 -53.5q-97 0 -152 56t-55 175q0 90 30.5 174t78.5 142.5t109.5 93.5t122.5 35z" />
<glyph unicode="D" horiz-adv-x="748" d="M582 439q0 152 -87 167q-24 -30 -45 -108q-24 -79 -50.5 -228.5t-26.5 -177.5q0 -39 41 -39q44 0 79 42.5t57 114.5q32 105 32 229zM218 76q8 23 43.5 199t48.5 228q7 31 20.5 54t24 32t28.5 22q-93 -6 -159.5 -61.5t-66.5 -110.5q0 -47 41 -47q8 0 20 3.5t14 3.5 q10 0 10 -11q0 -27 -41 -64.5t-94 -37.5q-49 0 -78 28.5t-29 81.5q0 76 62.5 138t161 95.5t209.5 33.5q62 0 114 -14t93.5 -43t64.5 -80t23 -119q0 -125 -34 -212q-39 -98 -104.5 -149t-145.5 -51q-40 0 -89.5 18t-51.5 18q-11 0 -49.5 -18t-52.5 -18q-16 0 -16 13 q0 5 4 11.5t12.5 21t16.5 35.5z" />
<glyph unicode="E" horiz-adv-x="454" d="M157 216q0 -52 31.5 -81.5t81.5 -29.5q58 0 107 61q20 20 24 20q13 0 13 -11q0 -5 -8 -27q-10 -25 -24.5 -48.5t-39 -51t-63 -44.5t-83.5 -17q-83 0 -139.5 52.5t-56.5 131.5q0 147 148 213q-52 52 -52 114q0 67 60 116t138 49q66 0 102 -27.5t36 -78.5q0 -39 -18.5 -63 t-50.5 -24q-21 0 -35 12t-14 32q0 21 21 38.5t21 31.5q0 25 -34 25q-39 0 -65.5 -38t-26.5 -92q0 -28 10 -46q6 -10 11 -13l14 4q11 4 40 4q24 0 38.5 -12.5t14.5 -32.5q0 -25 -18 -40t-47 -15q-45 0 -81 21q-17 -12 -36 -51t-19 -82z" />
<glyph unicode="F" horiz-adv-x="485" d="M171 -12q-75 0 -123 40.5t-48 107.5q0 66 45.5 106t101.5 40q39 0 39 -14q0 -11 -13 -14q-19 -6 -33.5 -23.5t-14.5 -39.5q0 -26 17 -42.5t44 -16.5q28 0 49 15.5t35 46t22.5 61t16.5 73.5h-43q-13 0 -13 13q0 11 9.5 25.5t17.5 14.5h38q17 91 26 120q17 54 55 76 q-50 18 -112 18q-41 0 -69 -22t-28 -51q0 -44 42 -44q9 0 18.5 5t12.5 5q10 0 10 -11q0 -32 -35 -66.5t-83 -34.5t-81 32.5t-33 83.5q0 78 64 124.5t153 46.5q51 0 109 -8.5t69 -8.5q18 0 40 8.5t26 8.5q18 0 18 -17q0 -5 -4 -11.5t-15.5 -23t-22.5 -33.5q-28 -45 -49 -197 h45q9 0 9 -10q0 -13 -9.5 -28t-20.5 -15h-31q-6 -48 -12.5 -83t-18.5 -77.5t-30 -71.5t-43.5 -55.5t-62.5 -39.5t-84 -13z" />
<glyph unicode="G" horiz-adv-x="519" d="M310 563q-46 -43 -76 -123t-30 -166q0 -54 21 -81t55 -27q20 0 36 9.5t25.5 22t18 33.5t12 34.5t7.5 34.5q2 15 33 30.5t59 15.5q17 0 17 -15q0 -6 -6.5 -21t-10.5 -31q-9 -35 -18 -127q-22 -467 -283 -467q-75 0 -127.5 44t-52.5 111q0 73 49 114t112 41q37 0 37 -15 q0 -9 -13 -16q-43 -25 -43 -63q0 -62 69 -62q62 0 103.5 85.5t54.5 219.5q-58 -99 -160 -99q-69 0 -117 50.5t-48 135.5q0 112 49.5 213.5t125 160t152.5 58.5q62 0 97 -32t35 -84q0 -43 -18 -70.5t-47 -27.5q-21 0 -34.5 12t-13.5 32q0 25 20 46t20 34q0 26 -32 26 q-35 0 -78 -36z" />
<glyph unicode="H" horiz-adv-x="751" d="M665 132q0 -56 33 -56q17 0 38 21q10 10 17 10q14 0 14 -14q0 -13 -16 -32q-51 -66 -127 -66q-97 0 -97 111q0 63 29 193q-82 0 -118 -36q-21 -21 -45.5 -110t-24.5 -135q0 -12 -4.5 -16.5t-16.5 -4.5q-17 0 -59 -3t-48 -3q-20 0 -20 23q0 34 32 140.5t63.5 226 t31.5 184.5q0 42 -44 42q-56 0 -104.5 -61.5t-48.5 -124.5q0 -23 11.5 -35.5t28.5 -12.5q7 0 18 4t14 4q10 0 10 -11q0 -28 -38.5 -65t-88.5 -37q-46 0 -75.5 30.5t-29.5 83.5q0 121 101.5 201t224.5 80q73 0 113 -31t40 -93q0 -51 -34 -187h124q29 132 59 216 q11 34 61.5 56.5t82.5 22.5q20 0 20 -16q0 -5 -6 -14.5t-14.5 -24.5t-13.5 -28q-24 -64 -58.5 -223.5t-34.5 -208.5z" />
<glyph unicode="I" horiz-adv-x="475" d="M463 589q-9 -21 -15 -68t-11 -100t-13 -114.5t-25.5 -117t-44.5 -101.5t-74 -73t-109 -27q-74 0 -122.5 42t-48.5 106q0 65 47.5 105t104.5 40q34 0 34 -13q0 -11 -13 -14q-19 -6 -33.5 -23.5t-14.5 -39.5q0 -26 17 -42.5t44 -16.5q44 0 72.5 41.5t41 102.5t20.5 123.5 t20 113t31 62.5q-143 -55 -143 -152q0 -36 24 -53q14 -12 15 -16q0 -15 -30 -15q-49 0 -91.5 31.5t-42.5 81.5q0 23 12 43.5t26.5 33.5t45 28t48.5 21.5t57.5 19.5t52.5 18q15 5 32 19.5t26 16.5q38 11 62 11q20 0 20 -15q0 -5 -22 -59z" />
<glyph unicode="J" horiz-adv-x="465" d="M309 598q17 7 41 29.5t33 24.5q39 11 62 11q20 0 20 -15q0 -4 -19 -47q-13 -29 -20 -96t-16 -168t-20 -172q-13 -79 -35.5 -143.5t-58 -119t-90.5 -85t-125 -30.5q-82 0 -139.5 49t-57.5 121q0 71 55.5 116t116.5 45q37 0 37 -15q0 -8 -15 -14q-59 -21 -59 -76 q0 -31 23 -50.5t58 -19.5q109 0 163 247q-95 0 -158.5 35t-63.5 105q0 49 21 89.5t63.5 73.5t82 55t101.5 50zM200 339q0 -37 19.5 -66.5t50.5 -44.5q13 59 24 138t20 125t25 68q-139 -83 -139 -220z" />
<glyph unicode="K" horiz-adv-x="720" d="M347 565q0 42 -44 42q-50 0 -101.5 -62.5t-51.5 -123.5q0 -23 11.5 -35.5t28.5 -12.5q7 0 18 4t14 4q10 0 10 -11q0 -28 -38.5 -65t-88.5 -37q-46 0 -75.5 30.5t-29.5 83.5q0 81 52 147t126 100t148 34q73 0 113 -31t40 -93q0 -52 -31 -156q31 15 59.5 60t47 89 t47.5 79.5t62 35.5q68 0 104 -21q15 -8 15 -18q0 -12 -14 -12q-32 0 -65 -33q-18 -19 -52 -71t-70.5 -90.5t-82.5 -52.5q29 -12 46.5 -30.5t28.5 -56.5q3 -12 10 -43t11.5 -45t13 -33.5t19.5 -28t26 -8.5q22 0 48 19q10 9 18 9q13 0 13 -13t-24 -45q-57 -79 -127 -79 q-39 0 -65 17t-38 49t-16.5 64.5t-4.5 76.5q0 56 -5 83t-25 29q-60 -190 -60 -296q0 -12 -4.5 -16.5t-16.5 -4.5q-17 0 -59 -3t-48 -3q-20 0 -20 23q0 34 32 140.5t63.5 226t31.5 184.5z" />
<glyph unicode="L" horiz-adv-x="720" d="M437 312q-18 -62 -39 -122q94 -57 154 -57q61 0 98 44q13 16 21 16q15 0 15 -18q0 -26 -16 -66t-53 -77t-83 -37q-32 0 -65 19t-53.5 39t-55.5 59q-67 -117 -188 -117q-73 0 -122.5 40.5t-49.5 103.5q0 67 45 109t110 42q67 0 141 -36q4 8 18 58q-62 10 -115 33.5 t-90.5 66.5t-37.5 97q0 57 34.5 92.5t91.5 35.5t89.5 -33t32.5 -64q0 -15 -14 -15q-3 0 -15 3.5t-19 3.5q-19 0 -33 -16t-14 -40q0 -37 28 -66.5t77 -44.5q37 155 82.5 226.5t129.5 71.5q54 0 86 -28.5t32 -79.5q0 -80 -64.5 -154t-157.5 -89zM547 555q-30 0 -53 -44.5 t-44 -147.5q59 15 95 64.5t36 93.5q0 15 -9.5 24.5t-24.5 9.5zM182 129q67 0 95 64q-49 35 -87 35q-24 0 -40.5 -14t-16.5 -36q0 -23 14 -36t35 -13z" />
<glyph unicode="M" horiz-adv-x="898" d="M802 149q0 -55 36 -55q21 0 48 27q11 11 19 11q11 0 11 -11q0 -34 -50.5 -80t-104.5 -46q-97 0 -97 111q0 67 66 307h-8q-1 -3 -75.5 -165t-94.5 -224q-9 -29 -27 -29h-78q-20 0 -20 22q0 2 5 83.5t10 178t5 134.5h-8q-8 -40 -12 -58t-14.5 -62t-19 -68.5t-24 -65 t-30.5 -64.5t-37 -53.5t-46 -45.5t-55 -27.5t-66 -11.5q-64 0 -99.5 37.5t-35.5 93.5q0 50 40 89t73 39q14 0 14 -12q0 -5 -3.5 -17.5t-3.5 -25.5q0 -21 14 -36t39 -15q49 0 91.5 53t68 128t39.5 145.5t14 115.5q0 23 -14 39t-33 16q-44 0 -88 -55t-44 -114 q0 -23 11.5 -35.5t28.5 -12.5q7 0 17.5 4t13.5 4q11 0 11 -11q0 -28 -38.5 -65t-89.5 -37q-46 0 -75 30.5t-29 83.5q0 61 28.5 112.5t73.5 83.5t96 50t99 18q43 0 77.5 -12t56.5 -30.5t38 -48.5t24.5 -57t13 -66.5t5.5 -66.5t1 -66v-27.5v-23.5t-0.5 -17.5t-0.5 -11.5v-5 q4 18 78 173t102 188q13 17 58.5 32t93.5 15q18 0 18 -18q0 -5 -5 -14.5t-13 -24t-13 -27.5q-24 -66 -55 -211t-31 -195z" />
<glyph unicode="N" horiz-adv-x="722" d="M577 288q45 232 90 320q27 55 78 55q39 0 61 -17.5t22 -35.5q0 -15 -15 -15q-37 0 -59 -27q-38 -48 -88.5 -210.5t-67.5 -328.5q-2 -29 -26 -29h-99q-18 0 -19 22q-3 51 -4.5 177t-8.5 186h-5q-10 -46 -16 -70.5t-21 -76.5t-29 -83.5t-37.5 -73.5t-49 -65.5t-62 -41 t-77.5 -17.5q-65 0 -104.5 38t-39.5 93q0 50 40 89t73 39q14 0 14 -12q0 -5 -3.5 -17.5t-3.5 -25.5q0 -21 14.5 -36t43.5 -15q44 0 92.5 68t81 167.5t32.5 185.5q0 76 -60 76q-41 0 -77.5 -54t-36.5 -115q0 -23 11.5 -35.5t28.5 -12.5q7 0 18 4t14 4q10 0 10 -11 q0 -28 -38.5 -65t-88.5 -37q-46 0 -75.5 30.5t-29.5 83.5q0 80 47 142.5t111.5 92t129.5 29.5q101 0 146 -46t65 -137q11 -46 18 -192z" />
<glyph unicode="O" horiz-adv-x="566" d="M174 247q0 -86 25.5 -129t66.5 -43q71 0 121.5 99.5t50.5 216.5q0 103 -77 103q-30 0 -57 -15q-14 -8 -19 -8q-9 0 -9 11q0 13 16 36.5t41 40.5q44 32 102 32q60 0 95 -39.5t35 -117.5q0 -108 -45 -211t-123.5 -168.5t-167.5 -65.5q-103 0 -166 62.5t-63 181.5 q0 87 24.5 160.5t64.5 122t91 83t102.5 49.5t100.5 15q91 0 91 -29q0 -10 -13 -10q-2 0 -17.5 1t-30.5 1q-101 0 -170 -101.5t-69 -277.5z" />
<glyph unicode="P" horiz-adv-x="709" d="M434 265q-18 0 -18 15q0 12 21 19q58 19 92.5 75t34.5 133q0 85 -68 104q-26 -24 -45 -84q-50 -157 -87 -312.5t-37 -196.5q0 -12 -4.5 -16.5t-16.5 -4.5q-17 0 -59 -3t-48 -3q-19 0 -19 23q0 37 48.5 214.5t81.5 274.5q10 32 23.5 54.5t23 32t26.5 21.5 q-93 -6 -159.5 -61.5t-66.5 -110.5q0 -47 41 -47q8 0 20 3.5t14 3.5q10 0 10 -11q0 -27 -41 -64.5t-94 -37.5q-49 0 -78 28.5t-29 81.5q0 117 130 192t324 75q109 0 179.5 -44t70.5 -119q0 -72 -41.5 -127t-102 -81.5t-126.5 -26.5z" />
<glyph unicode="Q" horiz-adv-x="556" d="M174 247q0 -86 25.5 -129t66.5 -43q48 0 89 47t64 118.5t23 145.5q0 110 -77 110q-31 0 -61 -17q-14 -8 -19 -8q-9 0 -9 11q0 13 16 36.5t41 40.5q44 32 102 32q60 0 95 -39.5t35 -117.5q0 -133 -66.5 -253.5t-168.5 -168.5q17 -7 58.5 -45t76.5 -38q31 0 50 23 q13 13 20 13q13 0 13 -19q0 -48 -44.5 -98t-116.5 -50q-33 0 -58 19.5t-38.5 48t-24 56.5t-23 47.5t-27.5 19.5q-97 4 -156.5 67t-59.5 177q0 87 24.5 160.5t64.5 122t91 83t102.5 49.5t100.5 15q91 0 91 -29q0 -10 -13 -10q-2 0 -17.5 1t-30.5 1q-101 0 -170 -101.5 t-69 -277.5z" />
<glyph unicode="R" horiz-adv-x="712" d="M416 406l-16 -63q71 8 115 66.5t44 123.5q0 38 -17 59t-46 21q-25 -23 -45 -86q-6 -20 -18 -62t-17 -59zM464 663q106 0 169 -38t63 -113q0 -79 -62 -132.5t-141 -67.5q24 -11 42.5 -47t28.5 -72.5t30 -66t48 -29.5t53 25q10 10 17 10q11 0 11 -11q0 -14 -19 -42 q-57 -84 -147 -84q-50 0 -77.5 30.5t-34.5 74t-9.5 87.5t-12.5 74.5t-35 30.5q-4 -18 -21.5 -81t-28.5 -113t-11 -80q0 -12 -4.5 -16.5t-16.5 -4.5q-17 0 -59 -3t-48 -3q-19 0 -19 23q0 62 130 489q9 32 22.5 54.5t23 32t27.5 21.5q-93 -6 -159.5 -61.5t-66.5 -110.5 q0 -47 41 -47q8 0 20 3.5t14 3.5q10 0 10 -11q0 -27 -41 -64.5t-94 -37.5q-49 0 -78 28.5t-29 81.5q0 116 134.5 191.5t329.5 75.5z" />
<glyph unicode="S" horiz-adv-x="507" d="M217 52q36 0 59.5 35.5t23.5 89.5q0 50 -20 97t-43.5 76.5t-43.5 68.5t-20 77q0 75 61 121t131 46q130 0 130 -109q0 -34 -19.5 -59t-49.5 -25q-21 0 -35 12t-14 32q0 18 17 38t17 33q0 27 -31 27q-27 0 -46.5 -21t-19.5 -53t14 -63.5t34 -58.5t40 -55.5t34 -65t14 -76.5 q0 -100 -72.5 -166.5t-180.5 -66.5q-83 0 -140 41.5t-57 112.5q0 63 54 99.5t115 36.5q44 0 44 -16q0 -10 -17 -21q-24 -15 -40 -43.5t-16 -61.5q0 -38 21.5 -60t55.5 -22z" />
<glyph unicode="T" horiz-adv-x="512" d="M592 663q0 -24 -16 -46q-37 -47 -94 -51q-17 -12 -27.5 -61t-16 -112t-22 -134.5t-41 -131t-77 -98.5t-127.5 -39q-74 0 -122.5 42t-48.5 106q0 69 46.5 106.5t105.5 37.5q34 0 34 -12q0 -11 -13 -14q-19 -6 -33.5 -23.5t-14.5 -39.5q0 -26 17 -42.5t44 -16.5q38 0 64 28 t39.5 74.5t22 95t19 103.5t22.5 85q15 38 45 55q-60 20 -111 20q-41 0 -69 -22t-28 -51q0 -44 42 -44q9 0 18.5 5t12.5 5q10 0 10 -11q0 -32 -35 -66.5t-83 -34.5t-81 32.5t-33 83.5q0 78 64 124.5t153 46.5q64 0 134 -11t87 -11q39 0 70 16t32 16q11 0 11 -10z" />
<glyph unicode="U" horiz-adv-x="788" d="M702 132q0 -56 33 -56q17 0 38 21q10 10 17 10q14 0 14 -14q0 -13 -16 -32q-51 -66 -127 -66q-97 0 -97 111q0 4 1 20t1 18q-97 -154 -206 -154q-53 0 -87 34.5t-34 86.5q0 57 54 212.5t54 228.5q0 55 -44 55q-56 0 -104.5 -61.5t-48.5 -124.5q0 -23 11.5 -35.5 t28.5 -12.5q7 0 18 4t14 4q10 0 10 -11q0 -28 -38.5 -65t-88.5 -37q-46 0 -75.5 30.5t-29.5 83.5q0 121 101.5 201t224.5 80q74 0 116.5 -33.5t42.5 -97.5q0 -68 -40.5 -197t-40.5 -184q0 -46 41 -46q50 0 118 127q30 58 65 200.5t37 149.5q6 21 45.5 39t86.5 18 q19 0 19 -18q0 -5 -5 -14t-13 -24t-13 -28q-19 -68 -51 -218.5t-32 -204.5z" />
<glyph unicode="V" horiz-adv-x="786" d="M347 557q0 50 -44 50q-56 0 -104.5 -61.5t-48.5 -124.5q0 -23 11.5 -35.5t28.5 -12.5q7 0 18 4t14 4q10 0 10 -11q0 -28 -38.5 -65t-88.5 -37q-46 0 -75.5 30.5t-29.5 83.5q0 121 101.5 201t224.5 80q157 0 157 -133q0 -64 -39 -196t-39 -188q0 -37 37 -37q34 0 85 65.5 t85 162.5q33 92 33 170q0 32 -13.5 49t-35.5 17q-16 0 -16 14q0 21 33 48.5t72 27.5q42 0 66 -26.5t24 -74.5q0 -90 -58 -211q-70 -150 -174.5 -255.5t-182.5 -105.5q-53 0 -83.5 32t-30.5 87q0 57 25 132.5t50.5 158.5t25.5 157z" />
<glyph unicode="W" horiz-adv-x="1055" d="M347 565q0 42 -44 42q-56 0 -104.5 -61.5t-48.5 -124.5q0 -23 11.5 -35.5t28.5 -12.5q7 0 18 4t14 4q10 0 10 -11q0 -28 -38.5 -65t-88.5 -37q-46 0 -75.5 30.5t-29.5 83.5q0 121 101.5 201t224.5 80q73 0 115.5 -35.5t42.5 -97.5q0 -76 -41.5 -200.5t-41.5 -168.5 q0 -20 11 -32t27 -12q56 0 108 87q26 42 48 117t22 103q0 7 -1 16.5t-1 17.5q0 21 44.5 41t66.5 20q36 0 36 -37q0 -35 -35 -156.5t-35 -158.5q0 -50 41 -50q64 0 131 146q43 95 43 215q0 50 -18.5 73t-46.5 23q-17 0 -17 15q0 19 34.5 46.5t77.5 27.5q97 0 97 -104 q0 -61 -28.5 -152.5t-73.5 -179.5q-49 -102 -117.5 -169.5t-135.5 -67.5q-52 0 -84.5 33.5t-39.5 87.5q-94 -121 -207 -121q-55 0 -84 33t-29 86q0 57 28 134.5t56 162.5t28 159z" />
<glyph unicode="X" horiz-adv-x="665" d="M600 102q25 0 46 19q13 11 19 11q11 0 11 -11q0 -34 -50.5 -80t-104.5 -46q-71 0 -102.5 66t-35.5 188q-99 -261 -249 -261q-62 0 -98 35t-36 90q0 62 40 97.5t81 35.5q14 0 14 -12q0 -5 -4 -17.5t-4 -25.5q0 -21 14 -36t40 -15q55 0 96.5 54t86.5 160q-4 138 -26 193.5 t-64 55.5q-38 0 -59 -31.5t-21 -76.5q0 -26 12.5 -42t33.5 -16q9 0 18.5 5t11.5 5q10 0 10 -11q0 -33 -32.5 -67t-85.5 -34q-47 0 -80.5 32.5t-33.5 83.5q0 91 74.5 151.5t171.5 60.5q92 0 139 -56.5t57 -189.5q2 6 8 23t11 32t9 25q66 166 130 166q30 0 55 -17.5t25 -30.5 q0 -17 -23 -17q-94 0 -203 -281q4 -79 34 -147t64 -68z" />
<glyph unicode="Y" horiz-adv-x="792" d="M479 539q0 -60 -34 -171.5t-34 -163.5q0 -21 11.5 -34.5t31.5 -13.5q28 0 59.5 31t55.5 76q17 35 33.5 91t36.5 133t25 95q6 21 46.5 39t88.5 18q19 0 19 -15q0 -5 -3 -11.5t-10 -18.5t-12 -25q-39 -91 -100 -392q-16 -80 -29.5 -134t-34 -118.5t-45 -105.5t-58 -77.5 t-78.5 -54t-100 -17.5q-87 0 -140.5 45.5t-53.5 117.5q0 73 50.5 117.5t123.5 44.5q50 0 50 -19q0 -13 -15 -13q-20 0 -37 -17t-17 -46q0 -31 19 -50t54 -19q115 0 188 349q-32 -51 -86.5 -92t-109.5 -41q-52 0 -83 32.5t-31 86.5q0 49 43.5 182t43.5 214q0 45 -44 45 q-56 0 -104.5 -61.5t-48.5 -124.5q0 -23 11.5 -35.5t28.5 -12.5q7 0 18 4t14 4q10 0 10 -11q0 -28 -38.5 -65t-88.5 -37q-46 0 -75.5 30.5t-29.5 83.5q0 121 101.5 201t224.5 80q72 0 112.5 -32t40.5 -92z" />
<glyph unicode="Z" horiz-adv-x="555" d="M178 132q27 11 78 11q18 0 53.5 -5t55.5 -5q32 0 62 12.5t46 31.5q12 16 21 16q14 0 14 -18q0 -24 -19.5 -65t-59 -78t-83.5 -37q-33 0 -97 23t-88 23q-29 0 -66.5 -20.5t-50.5 -20.5q-22 0 -33 24t-11 44q0 27 30 70q35 51 94.5 112t110.5 106.5t99.5 99.5t67.5 96 q-67 26 -123 26q-37 0 -60.5 -23t-23.5 -52q0 -28 23 -47q13 -13 13 -19q0 -15 -33 -15q-50 0 -95.5 28.5t-45.5 83.5q0 59 43.5 94t111.5 35q66 0 146 -19.5t98 -19.5q29 0 47.5 3t26 6.5t11.5 3.5q14 0 14 -14q0 -17 -11 -60.5t-25 -64.5q-29 -45 -83 -101.5t-102.5 -99 t-94 -89t-61.5 -76.5z" />
<glyph unicode="[" horiz-adv-x="191" d="M18 -45v668q0 27 26 27h77q36 0 55 1q5 2 10 -2q11 -7 11 -20q0 -28 -24 -28h-65v-622h65q24 0 24 -28q0 -13 -11 -20q-5 -4 -10 -2h-55q-16 0 -43.5 0.5t-33.5 0.5q-26 0 -26 25z" />
<glyph unicode="\" horiz-adv-x="349" d="M20 572q0 8 20 13.5t47 5.5q16 0 22 -15q184 -466 218 -539q5 -15 5 -17q0 -5 -5 -13q-11 -13 -61 -13q-18 0 -22 14q-17 35 -213 530q-11 30 -11 34z" />
<glyph unicode="]" horiz-adv-x="188" d="M164 625v-668q0 -27 -26 -27q-6 0 -33.5 -0.5t-43.5 -0.5h-55q-6 -1 -11 2q-10 6 -10 20q0 28 24 28h65v622h-65q-24 0 -24 28q0 14 10 20q5 3 11 2q19 -1 55 -1h77q26 0 26 -25z" />
<glyph unicode="^" horiz-adv-x="411" d="M240 647q15 -20 39.5 -56t35.5 -51q75 -107 75 -113q0 -11 -17.5 -20t-28.5 -9q-9 0 -17 9l-124 180l-120 -181q-6 -9 -19 -9q-11 0 -28.5 7.5t-17.5 19.5q0 6 74 118l75 112q12 15 35 15q19 0 38 -22z" />
<glyph unicode="_" horiz-adv-x="594" d="M528 -109h-483q-15 0 -15 16q0 13 10.5 34.5t21.5 21.5h483q11 0 14.5 -3t3.5 -11q0 -12 -12 -35t-23 -23z" />
<glyph unicode="`" horiz-adv-x="180" d="M55 491q16 0 23 -19q23 -67 82 -102q15 -9 15 -19q0 -14 -17 -14q-26 0 -63 14t-66 38q-23 19 -23 40q0 15 19 38.5t30 23.5z" />
<glyph unicode="a" horiz-adv-x="423" d="M227 239q0 29 -30 29q-26 0 -45.5 -29.5t-28 -64.5t-8.5 -66q0 -47 34 -47q32 0 52 47q9 21 17.5 62t8.5 69zM422 61q-51 -66 -127 -66q-37 0 -61 26q-11 11 -16 27q-16 -16 -36 -27q-46 -26 -90 -26q-47 0 -77 30.5t-30 86.5q0 82 51.5 141t151.5 59q32 0 56.5 -9.5 t27.5 -9.5q7 0 39 9.5t44 9.5q15 0 15 -15q0 -5 -17.5 -69.5t-17.5 -110.5q0 -20 9.5 -30.5t24.5 -10.5q17 0 38 21q10 10 17 10q14 0 14 -14q0 -13 -16 -32z" />
<glyph unicode="b" horiz-adv-x="366" d="M103 76q0 -35 28 -35q32 0 55 65.5t23 109.5q0 36 -32 36q-33 0 -47 -45q-27 -83 -27 -131zM191 500q0 -29 -26.5 -123t-28.5 -105q12 14 38.5 27t56.5 13q105 0 105 -102q0 -82 -55.5 -148.5t-152.5 -66.5q-75 0 -111.5 34.5t-36.5 94.5q0 44 34.5 157t34.5 182 q0 24 -10.5 36.5t-27.5 12.5q-15 0 -15 12q0 17 34.5 35.5t75.5 18.5q40 0 62.5 -20t22.5 -58z" />
<glyph unicode="c" horiz-adv-x="329" d="M205 59q47 0 105 51q14 12 21 12q12 0 12 -12t-21 -34q-24 -24 -41 -38t-55 -30t-81 -16q-71 0 -115.5 35.5t-44.5 97.5q0 80 57.5 134.5t151.5 54.5q104 0 104 -70q0 -30 -16.5 -47t-42.5 -17q-17 0 -28.5 9t-11.5 24q0 13 8 26t8 17q0 13 -18 13q-24 0 -48 -37t-24 -87 q0 -43 22.5 -64.5t57.5 -21.5z" />
<glyph unicode="d" horiz-adv-x="423" d="M369 76q17 0 38 21q10 10 17 10q14 0 14 -14q0 -13 -16 -32q-51 -66 -127 -66q-39 0 -62 25q-11 9 -16 25q-22 -18 -35 -25q-44 -25 -89 -25q-108 0 -108 116q0 86 53.5 143.5t136.5 57.5q51 0 73 -17q29 116 29 168q0 24 -10.5 36.5t-27.5 12.5q-15 0 -15 12 q0 17 34.5 35.5t75.5 18.5q40 0 62.5 -20t22.5 -58q0 -40 -42 -179.5t-42 -203.5q0 -20 9.5 -30.5t24.5 -10.5zM227 239q0 29 -32 29q-26 0 -45 -31.5t-26.5 -68t-7.5 -67.5q0 -41 32 -41t52 48q9 21 18 61.5t9 69.5z" />
<glyph unicode="e" horiz-adv-x="330" d="M128 163q39 8 66.5 36t27.5 49q0 23 -24 23t-47 -33t-23 -75zM203 59q49 0 108 51q13 12 21 12q12 0 12 -12q0 -13 -20 -34q-23 -24 -40.5 -38.5t-55.5 -30t-83 -15.5q-75 0 -117.5 34t-42.5 104q0 76 58 130t153 54q49 0 74 -19.5t25 -53.5q0 -44 -47 -79t-120 -41 q0 -27 20 -44.5t55 -17.5z" />
<glyph unicode="f" horiz-adv-x="204" d="M209 441q-17 0 -28.5 -31.5t-11.5 -56.5t15 -35.5t63 -10.5q14 0 14 -11q0 -15 -7 -24.5t-16 -9.5q-49 0 -70 -14.5t-27 -46.5q-31 -162 -51 -233q-13 -50 -70.5 -86t-90.5 -36q-19 0 -19 14q0 8 14 24q23 34 36 79q14 57 33.5 163t19.5 119q0 18 -20 18q-16 0 -16 14 q0 11 7.5 20.5t14.5 9.5q15 0 20.5 5.5t9.5 20.5q38 166 186 166q47 0 73 -19t26 -47q0 -24 -14.5 -38.5t-36.5 -14.5q-18 0 -27.5 9.5t-10.5 21t-4.5 21t-11.5 9.5z" />
<glyph unicode="g" horiz-adv-x="381" d="M226 242q0 29 -34 29t-56 -56t-22 -104q0 -47 35 -47q34 0 52 47q9 25 17 67t8 64zM207 40q-4 -6 -16 -15t-38.5 -19.5t-55.5 -10.5q-51 0 -82 31.5t-31 85.5q0 82 51.5 141t151.5 59q31 0 58 -9.5t30 -9.5q10 0 38 9.5t43 9.5t15 -15q0 -6 -5 -22t-16.5 -65.5 t-23.5 -123.5q-26 -163 -54 -232q-58 -142 -181 -142q-57 0 -96.5 30.5t-39.5 81.5q0 53 31 83t56 30q11 0 11 -9q0 -4 -4.5 -14t-4.5 -23q0 -22 15.5 -34.5t41.5 -12.5q29 0 52 27t33.5 63.5t15.5 64.5t5 41z" />
<glyph unicode="h" horiz-adv-x="416" d="M288 -5q-89 0 -89 77q0 29 16 78t16 66q0 24 -24 24q-31 0 -63 -62q-13 -22 -27.5 -81t-14.5 -76q0 -12 -4.5 -16.5t-16.5 -4.5q-17 0 -49 -2.5t-38 -2.5q-19 0 -19 22q0 36 44 202.5t44 243.5q0 24 -10.5 36.5t-27.5 12.5q-15 0 -15 12q0 17 34.5 35.5t75.5 18.5 q40 0 62.5 -20t22.5 -58q0 -68 -58 -250q55 62 129 62q85 0 85 -68q0 -26 -15 -69t-15 -65q0 -34 31 -34q17 0 38 21q10 10 17 10q14 0 14 -14q0 -13 -16 -32q-51 -66 -127 -66z" />
<glyph unicode="i" horiz-adv-x="212" d="M44 419q0 30 23 56t51 26q26 0 41 -14.5t15 -38.5q0 -30 -23 -56.5t-51 -26.5q-23 0 -39.5 15.5t-16.5 38.5zM84 -5q-49 0 -74 23t-25 60q0 36 16.5 93t16.5 72q0 9 -3 17.5t-3 14.5q0 16 33 26.5t78 10.5q34 0 34 -26q0 -17 -16 -75t-16 -94q0 -41 33 -41q17 0 38 21 q10 10 17 10q14 0 14 -14q0 -13 -16 -32q-51 -66 -127 -66z" />
<glyph unicode="j" horiz-adv-x="175" d="M10 243q0 9 -3.5 17.5t-3.5 14.5q0 16 33 26.5t78 10.5q34 0 34 -26q0 -8 -4.5 -25t-16 -69t-23.5 -123q-29 -155 -52 -214q-56 -142 -177 -142q-58 0 -96.5 32t-38.5 86q0 44 28.5 75t54.5 31q12 0 12 -9q0 -5 -5 -14t-5 -18q0 -24 13.5 -38t37.5 -14q45 0 82 90 q26 67 39 167.5t13 141.5zM33 419q0 31 22.5 56.5t51.5 25.5q26 0 41 -14.5t15 -38.5q0 -30 -23 -56.5t-51 -26.5q-23 0 -39.5 15.5t-16.5 38.5z" />
<glyph unicode="k" horiz-adv-x="351" d="M294 76q20 0 41 21q10 10 17 10q14 0 14 -14q0 -13 -16 -32q-50 -66 -122 -66q-30 0 -51.5 21t-29.5 45.5t-13.5 45.5t-8.5 21l-12 -46q-12 -41 -12 -61q0 -12 -4.5 -16.5t-16.5 -4.5q-17 0 -48.5 -2.5t-37.5 -2.5q-19 0 -19 22q0 36 44 200t44 246q0 24 -10.5 36.5 t-27.5 12.5q-15 0 -15 12q0 17 34.5 35.5t75.5 18.5q40 0 62.5 -20t22.5 -58q0 -34 -35.5 -169t-35.5 -153q22 0 41 19.5t19 38.5q0 5 -3.5 11t-3.5 12q0 15 37.5 34t70.5 19q29 0 29 -23q0 -33 -30.5 -70t-86.5 -67q9 -29 33.5 -52.5t53.5 -23.5z" />
<glyph unicode="l" horiz-adv-x="210" d="M83 -5q-49 0 -73.5 26t-24.5 68q0 38 38.5 163.5t38.5 210.5q0 49 -39 49q-14 0 -14 12q0 17 34.5 35.5t75.5 18.5q40 0 62.5 -20t22.5 -58q0 -41 -40 -187.5t-40 -195.5q0 -41 32 -41q17 0 38 21q10 10 17 10q14 0 14 -14q0 -13 -16 -32q-51 -66 -126 -66z" />
<glyph unicode="m" horiz-adv-x="650" d="M522 -5q-42 0 -67 22t-25 55t16 78t16 62q0 28 -24 28q-32 0 -61 -56q-17 -32 -30.5 -80.5t-13.5 -82.5q0 -12 -4.5 -16.5t-16.5 -4.5q-17 0 -48.5 -2.5t-38.5 -2.5q-20 0 -20 22q0 32 18.5 103t18.5 90q0 30 -22 30q-36 0 -70 -61q-14 -24 -28.5 -77t-14.5 -81 q0 -21 -22 -21q-17 0 -48 -2.5t-36 -2.5q-21 0 -21 22q0 16 21 106t21 120q0 9 -3.5 17.5t-3.5 14.5q0 16 33.5 26.5t78.5 10.5q34 0 34 -26q0 -17 -4 -29l-4 -16l5 5q4 5 7.5 8.5t10.5 9.5t13.5 11t15.5 11t18.5 10t20 8t23 6t24.5 2q39 0 58.5 -21.5t23.5 -41.5 q63 63 134 63q85 0 85 -68q0 -22 -14 -67t-14 -65q0 -36 32 -36q17 0 38 21q10 10 17 10q14 0 14 -14q0 -13 -16 -32q-51 -66 -127 -66z" />
<glyph unicode="n" horiz-adv-x="424" d="M296 -5q-42 0 -67 22t-25 55t16 78t16 62q0 28 -23 28q-31 0 -63 -61q-14 -30 -28.5 -80t-14.5 -78q0 -21 -22 -21q-17 0 -48 -2.5t-36 -2.5q-21 0 -21 22q0 16 21 106t21 120q0 9 -3.5 17.5t-3.5 14.5q0 16 33.5 26.5t78.5 10.5q34 0 34 -26q0 -17 -4 -29l-4 -16 q20 23 58.5 47t77.5 24q77 0 77 -63q0 -24 -14 -71t-14 -66q0 -36 32 -36q17 0 38 21q10 10 17 10q14 0 14 -14q0 -13 -16 -32q-51 -66 -127 -66z" />
<glyph unicode="o" horiz-adv-x="354" d="M199 316q57 0 91 -32.5t34 -84.5q0 -88 -52.5 -148t-141.5 -60q-66 0 -105.5 35.5t-39.5 95.5q0 78 58 136t156 58zM250 140q0 29 -20 38q-23 9 -31.5 18t-8.5 23q0 15 7.5 26.5t7.5 12.5q0 8 -9 8t-28 -14q-49 -39 -49 -114q0 -34 18 -54t47 -20q28 0 47 24t19 52z" />
<glyph unicode="p" horiz-adv-x="395" d="M120 75q0 -29 32 -29q37 0 58.5 57t21.5 109q0 38 -31 38q-32 0 -53 -49q-10 -21 -19 -58.5t-9 -67.5zM8 243q0 9 -3.5 17.5t-3.5 14.5q0 16 33.5 26.5t78.5 10.5q34 0 34 -26q0 -6 -2 -20q-1 -2 -1 -8q9 15 44 34.5t74 19.5q48 0 75.5 -29.5t27.5 -80.5 q0 -74 -52.5 -140.5t-137.5 -66.5q-50 0 -77 27q-11 -39 -22 -103.5t-11 -95.5q0 -47 41 -47q14 0 14 -12q0 -15 -33.5 -34.5t-78.5 -19.5q-39 0 -61 21t-22 57q0 40 7 76.5t24 101t28 116.5q24 115 24 161z" />
<glyph unicode="q" horiz-adv-x="390" d="M198 40q-14 -17 -43.5 -31t-62.5 -14q-51 0 -79 31.5t-28 85.5q0 83 52 141.5t153 58.5q31 0 57 -9.5t29 -9.5q10 0 37 9.5t42 9.5t15 -15q0 -8 -4 -23t-16.5 -65t-27.5 -123q-2 -10 -9.5 -44.5t-10 -47t-7.5 -41t-7 -45t-4 -38.5t-2 -41q0 -28 13 -40.5t29 -12.5 q14 0 14 -12q0 -7 -10 -19t-34.5 -23.5t-54.5 -11.5q-94 0 -94 95q0 18 3.5 41t10.5 52t12 47.5t15 52.5t12 42zM228 239q0 29 -31 29q-38 0 -59 -54t-21 -112q0 -41 32 -41q35 0 52 47q27 84 27 131z" />
<glyph unicode="r" horiz-adv-x="299" d="M148 177q-14 -26 -27.5 -77.5t-13.5 -78.5q0 -21 -22 -21q-17 0 -48 -2.5t-36 -2.5q-21 0 -21 22q0 16 21 106t21 120q0 9 -3.5 17.5t-3.5 14.5q0 16 33.5 26.5t78.5 10.5q34 0 34 -26q0 -24 -5 -39q7 18 30 39.5t57 21.5q46 0 46 -47q0 -30 -18 -54.5t-47 -24.5 q-20 0 -31 11.5t-11 26.5q-14 -6 -34 -43z" />
<glyph unicode="s" horiz-adv-x="293" d="M21 131q43 0 43 -37q0 -42 27 -42q22 0 22 27q0 19 -15.5 36.5t-34 29t-34 32t-15.5 45.5q0 45 39.5 70t98.5 25q53 0 79.5 -18.5t26.5 -50.5q0 -22 -12 -36.5t-35 -14.5q-14 0 -25 10t-11 24q0 8 4 17t4 13q0 14 -19 14q-10 0 -19.5 -9.5t-9.5 -23.5q0 -20 17 -37 t38 -28t38 -31t17 -44q0 -49 -37.5 -79t-102.5 -30q-58 0 -94 23t-36 64q0 23 14 37t32 14z" />
<glyph unicode="t" horiz-adv-x="235" d="M188 262q-34 0 -43 -32q-21 -76 -21 -113q0 -41 39 -41q16 0 42 21t32 21q13 0 13 -12q0 -25 -55 -68t-107 -43q-51 0 -77 27t-26 69q0 34 15.5 87t15.5 77q0 6 -13.5 9.5t-13.5 13.5t4.5 19.5t12.5 9.5q37 0 71 28t57 66q13 22 27 22q16 0 16 -16q0 -12 -7 -42t-7 -38 q0 -11 6 -15.5t28 -4.5q14 0 14 -11q0 -15 -7 -24.5t-16 -9.5z" />
<glyph unicode="u" horiz-adv-x="430" d="M303 -5q-50 0 -74 30q-11 14 -14 31q-21 -19 -42 -31q-54 -30 -109 -30q-37 0 -58 22.5t-21 54.5q0 34 17 95t17 76q0 9 -3.5 17.5t-3.5 14.5q0 16 33.5 26.5t78.5 10.5q34 0 34 -26q0 -19 -18.5 -83t-18.5 -103q0 -25 24 -25q38 0 60 41q35 59 35 127q0 9 -3.5 17.5 t-3.5 14.5q0 16 33.5 26.5t78.5 10.5q34 0 34 -26q0 -18 -17.5 -79t-17.5 -90q0 -41 32 -41q17 0 38 21q10 10 17 10q14 0 14 -14q0 -13 -16 -32q-51 -66 -126 -66z" />
<glyph unicode="v" horiz-adv-x="360" d="M18 243q0 9 -3 17.5t-3 14.5q0 16 33 26.5t78 10.5q34 0 34 -26q0 -20 -18 -87.5t-18 -100.5q0 -23 22 -23q32 0 64 40t32 79q0 8 -12.5 25t-12.5 36q0 26 17 41.5t43 15.5q29 0 45 -19t16 -52q0 -81 -85 -163.5t-183 -82.5q-40 0 -61 22t-21 55q0 37 16.5 96.5 t16.5 74.5z" />
<glyph unicode="w" horiz-adv-x="575" d="M458 187q0 14 -15 31.5t-15 36.5q0 26 16.5 41.5t43.5 15.5q62 0 62 -73q0 -50 -23 -105t-72 -97t-110 -42q-82 0 -118 67q-67 -67 -151 -67q-43 0 -67 22.5t-24 57.5q0 36 16.5 92t16.5 76q0 9 -3 17.5t-3 14.5q0 16 33 26.5t78 10.5q34 0 34 -26q0 -20 -17 -82t-17 -96 q0 -16 7.5 -26.5t21.5 -10.5q34 0 59 46q28 58 28 126q0 9 -3.5 17.5t-3.5 14.5q0 16 33 26.5t78 10.5q34 0 34 -26q0 -20 -16 -82.5t-16 -95.5q0 -37 35 -37q32 0 55 37t23 79z" />
<glyph unicode="x" horiz-adv-x="343" d="M215 -5q-49 0 -87 78q-65 -78 -101 -78q-25 0 -51 22.5t-26 37.5q0 20 20.5 44t34.5 24q9 0 24 -8.5t28 -8.5q23 0 38 23q-1 1 -5.5 11.5t-8.5 17.5t-10.5 18.5t-12.5 19.5t-14 15t-15 9q-16 7 -16 17q0 18 29.5 46.5t60.5 28.5q10 0 20 -6t20 -20t16 -24t17.5 -31.5 t15.5 -29.5q30 35 30 57q0 24 13.5 39t37.5 15q21 0 33.5 -12.5t12.5 -33.5q0 -50 -98 -126q40 -64 68 -64q17 0 38 21q10 10 17 10q14 0 14 -14q0 -13 -16 -32q-51 -66 -127 -66z" />
<glyph unicode="y" horiz-adv-x="409" d="M30 243q0 9 -3.5 17.5t-3.5 14.5q0 16 33.5 26.5t77.5 10.5q34 0 34 -26q0 -20 -17.5 -83.5t-17.5 -96.5q0 -13 7 -22t19 -9q36 0 63 42q29 46 29 126q0 9 -3.5 17.5t-3.5 14.5q0 16 33.5 26.5t77.5 10.5q34 0 34 -26q0 -8 -2.5 -19.5t-6.5 -27.5t-12.5 -57t-17.5 -96 q-7 -45 -11.5 -70t-15 -70t-21 -72.5t-29 -61.5t-40.5 -53.5t-53.5 -33t-68.5 -13.5q-57 0 -96.5 30.5t-39.5 81.5q0 53 31 83t56 30q11 0 11 -9q0 -4 -4.5 -14t-4.5 -23q0 -22 15.5 -34.5t41.5 -12.5q22 0 39.5 13t28.5 32t20.5 50t14.5 55.5t11 60.5q-60 -60 -152 -60 q-38 0 -62 22t-24 55q0 37 16.5 97t16.5 74z" />
<glyph unicode="z" horiz-adv-x="321" d="M183 -5q-37 0 -77 12t-59 12q-16 0 -33 -12t-23 -12q-15 0 -15 12v19q0 42 7 65t34 36q58 26 122 64q12 7 12 14q0 13 -54 13q-34 0 -61 -21q-17 -11 -21 -11q-11 0 -11 14q0 25 32.5 68.5t71.5 43.5q19 0 60.5 -7t62.5 -7q17 0 32 4t17 4q15 0 15 -14q0 -21 -11.5 -50 t-34.5 -45q-20 -13 -55 -33t-56 -33q-13 -9 -13 -16q0 -9 12 -11q24 -5 85 -5q51 0 78 18q14 11 21 11q11 0 11 -11q0 -13 -18 -38q-64 -84 -131 -84z" />
<glyph unicode="{" horiz-adv-x="233" d="M112 331q14 -9 24 -31t10 -47q0 -5 -2 -39t-2 -114q0 -82 51 -99q24 -7 24 -18q0 -17 -25 -17q-56 0 -101.5 24t-45.5 73q0 54 7.5 100t7.5 81q0 49 -42 60q-22 6 -22 27q0 20 22 27q42 17 42 60q0 34 -7.5 80.5t-7.5 100.5q0 49 45.5 73t101.5 24q25 0 25 -17 q0 -11 -24 -18q-51 -17 -51 -99q0 -80 2.5 -114t2.5 -39q0 -23 -11 -46t-24 -32z" />
<glyph unicode="|" horiz-adv-x="142" d="M116 583v-614q0 -10 -13.5 -16t-29.5 -6q-15 0 -31 6.5t-16 17.5v612q0 11 15.5 18t28.5 7q15 0 30.5 -7t15.5 -18z" />
<glyph unicode="}" horiz-adv-x="235" d="M101 331q-13 9 -24 32t-11 46q0 5 2.5 39t2.5 114q0 82 -51 99q-24 7 -24 18q0 17 25 17q55 0 101 -24t46 -73q0 -54 -7.5 -100.5t-7.5 -80.5q0 -43 42 -60q22 -7 22 -27q0 -21 -22 -27q-42 -11 -42 -60q0 -35 7.5 -81t7.5 -100q0 -49 -46 -73t-101 -24q-25 0 -25 17 q0 11 24 18q51 17 51 99q0 80 -2 114t-2 39q0 25 10 47t24 31z" />
<glyph unicode="~" horiz-adv-x="432" d="M109 209q-51 0 -74 -22q-10 -10 -14 -10q-12 0 -12 11q0 19 14 42q12 19 20.5 28.5t26.5 18t43 8.5q36 0 103 -27t102 -27q41 0 72 23q15 11 18 11q12 0 12 -11q0 -13 -22 -44q-19 -28 -37 -41.5t-47 -13.5t-102 27t-103 27z" />
<glyph unicode="&#xa1;" horiz-adv-x="219" d="M195 414q0 -25 -20.5 -49t-45.5 -24q-18 0 -29 13t-11 33q0 27 20 50.5t48 23.5q17 0 27.5 -13t10.5 -34zM74 255q3 12 6.5 16t14.5 10q32 15 52 15q19 0 19 -23q0 -5 -14 -101.5t-30 -201t-17 -113.5q-5 -24 -26 -31q-61 -19 -79 -19t-18 17q0 12 14 78t40 181t38 172z " />
<glyph unicode="&#xa2;" horiz-adv-x="343" d="M250 336v-24q36 -5 54 -21t18 -38q0 -16 -8.5 -25t-21.5 -9q-25 0 -25 28q0 18 -17 21v-205q23 6 45 22q19 12 23 12q13 0 13 -12t-22 -34q-28 -28 -59 -42v-35q0 -11 -9.5 -18t-23.5 -7t-25.5 6.5t-11.5 17.5v19h-10q-71 0 -115.5 35.5t-44.5 97.5q0 71 45.5 122.5 t124.5 63.5v25q0 11 11 18t23 7q14 0 25 -7t11 -18zM150 145q0 -55 30 -76v167q-30 -36 -30 -91z" />
<glyph unicode="&#xa3;" horiz-adv-x="439" d="M250 301h-40q-12 -122 -48 -176q22 2 35 2q22 0 62 -2.5t52 -2.5q32 0 46 7t32 28q13 16 21 16q15 0 15 -18q0 -44 -42.5 -102t-109.5 -58q-34 0 -85 13.5t-83 13.5q-12 0 -33.5 -11t-31.5 -11q-15 0 -27.5 24.5t-12.5 43.5q0 10 25 41t35 69q8 29 13 123h-48 q-15 0 -15 16q0 13 10.5 34.5t21.5 21.5h32v27q0 130 55 199.5t156 69.5q70 0 111 -35.5t41 -97.5q0 -38 -19 -59.5t-52 -21.5q-20 0 -35 14.5t-15 35.5t14.5 38t14.5 30q0 42 -51 42q-33 0 -54.5 -38.5t-21.5 -95.5q0 -42 -2 -108h51q11 0 14.5 -3t3.5 -11q0 -12 -12 -35 t-23 -23z" />
<glyph unicode="&#xa5;" horiz-adv-x="465" d="M125 -5q-21 0 -35 14q-5 6 -7 14l31 159h-87q-4 0 -7 3q-7 4 -7 19q0 13 11 19q4 3 11 4h88l13 66h-98q-4 0 -7 4q-6 6 -6 20q0 13 11 18q4 3 11 4h81l-100 273q0 10 4 17q8 17 33 17q23 0 38 -15l8 -15l88 -240l166 240q3 5 14 16q18 16 44 16q34 0 34 -25q0 -2 -0.5 -5 t-0.5 -4q-1 -1 -1 -3l-202 -272h71q6 0 10 -3q11 -7 11 -19q0 -15 -15 -21q-6 -3 -14 -3h-100l-13 -66h113q17 0 17 -19q0 -17 -14 -23q-6 -3 -14 -3h-110l-31 -159q-2 -8 -7 -14q-14 -14 -32 -14z" />
<glyph unicode="&#xa6;" horiz-adv-x="120" d="M95 138v-295q0 -15 -16 -15q-13 0 -34.5 10.5t-21.5 21.5v295q0 11 3 14.5t11 3.5q12 0 35 -12t23 -23zM95 588v-295q0 -15 -16 -15q-13 0 -34.5 10.5t-21.5 21.5v295q0 11 3 14.5t11 3.5q12 0 35 -12t23 -23z" />
<glyph unicode="&#xa7;" horiz-adv-x="341" d="M276 575q22 0 40.5 -14t18.5 -35t-12 -34t-30 -13q-17 0 -26.5 8t-12.5 17.5t-7.5 17.5t-12.5 8q-16 0 -24 -15.5t-8 -35.5q0 -19 16.5 -44t36.5 -47.5t36.5 -61t16.5 -80.5q0 -96 -68.5 -171t-161.5 -75q-68 0 -68 50q0 20 14 33t31 13t26.5 -13t15.5 -26t16 -13 q31 0 31 48q0 21 -17 46.5t-37.5 47.5t-37.5 57.5t-17 73.5q0 109 71.5 183.5t169.5 74.5zM148 479q-43 -43 -43 -104q0 -42 49.5 -119t49.5 -117q0 -20 -4 -31l-3 -15q8 9 22 31q22 38 22 74q0 29 -50 117t-50 116q0 23 3 35q1 3 2.5 7t1.5 6z" />
<glyph unicode="&#xa8;" horiz-adv-x="284" d="M20 405q0 26 20 49.5t46 23.5q18 0 29 -13t11 -33q0 -27 -20 -50.5t-48 -23.5q-17 0 -27.5 13t-10.5 34zM158 405q0 26 20 49.5t46 23.5q18 0 29 -13t11 -33q0 -27 -20 -50.5t-48 -23.5q-17 0 -27.5 13t-10.5 34z" />
<glyph unicode="&#xa9;" horiz-adv-x="500" d="M329 357q20 0 20 -29q0 -20 -31 -29.5t-64 -9.5q-68 0 -109.5 36t-41.5 106q0 66 44 106.5t115 40.5q27 0 54 -10.5t27 -20.5q0 -40 -19 -40q-3 0 -22.5 9t-37.5 9q-45 0 -71.5 -24.5t-26.5 -67.5q0 -45 24.5 -69t69.5 -24q24 0 44.5 8.5t24.5 8.5zM12 434 q0 96 69.5 165.5t166.5 69.5t167 -69.5t70 -165.5q0 -98 -69.5 -167.5t-167.5 -69.5q-97 0 -166.5 69.5t-69.5 167.5zM71 434q0 -75 51.5 -126.5t125.5 -51.5q75 0 127 51.5t52 126.5q0 74 -52 125.5t-127 51.5q-74 0 -125.5 -51.5t-51.5 -125.5z" />
<glyph unicode="&#xaa;" horiz-adv-x="423" d="M227 593q0 29 -30 29q-26 0 -45.5 -29.5t-28 -64.5t-8.5 -66q0 -47 34 -47q32 0 52 47q9 21 17.5 62t8.5 69zM422 415q-51 -66 -127 -66q-37 0 -61 26q-11 11 -16 27q-16 -16 -36 -27q-46 -26 -90 -26q-47 0 -77 30.5t-30 86.5q0 82 51.5 141t151.5 59q32 0 56.5 -9.5 t27.5 -9.5q7 0 39 9.5t44 9.5q15 0 15 -15q0 -5 -17.5 -69.5t-17.5 -110.5q0 -20 9.5 -30.5t24.5 -10.5q17 0 38 21q10 10 17 10q14 0 14 -14q0 -13 -16 -32z" />
<glyph unicode="&#xab;" horiz-adv-x="545" d="M226 533q14 16 29 16q13 0 28.5 -15t15.5 -30q0 -14 -16 -26q-45 -44 -80.5 -78t-52 -49t-18.5 -17q-29 -29 -29 -53q0 -12 25 -39q104 -113 156 -155q2 -2 5 -4.5t4 -4t2.5 -3t2 -3.5t1 -4.5t0.5 -6.5q0 -15 -13.5 -29.5t-28.5 -14.5q-8 0 -26 11q-25 22 -90 86t-89 87 q-36 36 -36 80q0 49 39 90q11 11 67.5 63t103.5 99zM446 533q14 16 29 16q13 0 28.5 -15t15.5 -30q0 -14 -16 -26q-45 -44 -80.5 -78t-52 -49t-18.5 -17q-29 -29 -29 -53q0 -12 25 -39q55 -60 156 -155q10 -7 12.5 -11t2.5 -15q0 -15 -13.5 -29.5t-28.5 -14.5q-8 0 -26 11 q-25 22 -90 86t-89 87q-36 36 -36 80q0 49 39 90q11 11 67.5 63t103.5 99z" />
<glyph unicode="&#xac;" horiz-adv-x="425" d="M334 235h-304q-30 0 -30 38q0 36 30 36h338q23 0 32.5 -11t9.5 -24v-151q0 -29 -37 -29q-39 0 -39 30v111z" />
<glyph unicode="&#xae;" horiz-adv-x="491" d="M6 434q0 97 69 166.5t166 69.5t167 -69.5t70 -166.5t-69.5 -166t-167.5 -69q-97 0 -166 69t-69 166zM62 434q0 -74 53 -125.5t126 -51.5q75 0 127 51t52 126q0 74 -52.5 126.5t-126.5 52.5q-73 0 -126 -52.5t-53 -126.5zM146 320v238q0 10 11 12q34 6 71 6q56 0 88 -23 q26 -18 26 -56q0 -39 -37 -64q18 -16 25 -44l20 -66q1 -1 1 -5q0 -11 -11 -11h-38q-8 0 -8 6q-8 11 -22 61q-10 37 -44 39h-23v-93q0 -13 -11 -13h-36q-12 0 -12 13zM205 524v-64h25q24 0 38 9t14 24q0 33 -53 33q-19 0 -24 -2z" />
<glyph unicode="&#xb0;" horiz-adv-x="242" d="M75 515q0 -20 13.5 -33.5t33.5 -13.5t33 13.5t13 33.5t-13 33t-33 13t-33.5 -13t-13.5 -33zM15 515q0 44 31.5 75.5t75.5 31.5t75.5 -31.5t31.5 -75.5t-31.5 -75.5t-75.5 -31.5t-75.5 31.5t-31.5 75.5z" />
<glyph unicode="&#xb1;" horiz-adv-x="460" d="M199 435v146q0 21 35 21q37 0 37 -19v-148h146q21 0 21 -35q0 -37 -19 -37h-148v-145q0 -21 -37 -21q-35 0 -35 19v147h-145q-21 0 -21 37q0 35 19 35h147zM400 84h-365q-15 0 -15 16q0 13 10.5 34.5t21.5 21.5h365q11 0 14.5 -3t3.5 -11q0 -12 -12 -35t-23 -23z" />
<glyph unicode="&#xb2;" horiz-adv-x="283" d="M76 320q-8 0 -21 -7t-21 -7q-9 0 -17 20.5t-8 32.5q0 16 20 35q3 2 4 3q48 43 71.5 66.5t49.5 62.5t26 69q0 38 -36 38q-15 0 -27 -11.5t-12 -24.5q0 -8 9 -19t9 -24q0 -15 -9.5 -24t-27.5 -9q-20 0 -33 14.5t-13 37.5q0 40 34 70t83 30q127 0 127 -101q0 -27 -18 -53.5 t-40 -44.5t-49 -40.5t-39 -37.5q2 1 15 1q9 0 25 -2t25 -2q28 0 47 22q7 10 13 10q9 0 9 -11q0 -27 -31 -69t-73 -42q-21 0 -46.5 8.5t-45.5 8.5z" />
<glyph unicode="&#xb3;" horiz-adv-x="251" d="M130 431q0 17 -12 28.5t-31 14.5q-12 3 -12 24q0 18 25 28q23 9 37 30.5t14 46.5q0 31 -31 31q-12 0 -21 -7t-9 -17q0 -8 6.5 -16t6.5 -19q0 -12 -10.5 -21t-23.5 -9q-18 0 -29 12t-11 30q0 41 34.5 63t77.5 22q45 0 74 -19.5t29 -56.5q0 -55 -74 -85q24 -6 48 -31 t24 -62q0 -47 -34 -81.5t-91 -34.5q-56 0 -86.5 36t-30.5 71q0 18 15 18q9 0 15 -16q6 -13 20.5 -23t29.5 -10q24 0 37 15t13 38z" />
<glyph unicode="&#xb4;" horiz-adv-x="188" d="M126 491q11 0 30 -23.5t19 -38.5q0 -21 -23 -40q-29 -24 -66 -38t-63 -14q-17 0 -17 14q0 10 15 19q59 35 82 102q7 19 23 19z" />
<glyph unicode="&#xb5;" horiz-adv-x="440" d="M161 60q35 0 54 39q15 28 23.5 70.5t8.5 73.5q0 9 -3.5 17.5t-3.5 14.5q0 16 33.5 26.5t78.5 10.5q34 0 34 -26q0 -18 -17.5 -79t-17.5 -90q0 -41 32 -41q13 0 41 18q14 10 18 10q12 0 12 -11q0 -13 -16 -32q-51 -66 -128 -66q-23 0 -41.5 10t-25 18.5t-6.5 11.5l-1 -2 l-4 -4t-5.5 -5t-7.5 -6.5t-9 -6.5t-10.5 -6t-12 -5t-13.5 -3.5t-15 -1.5q-23 0 -43 9q-9 4 -15 10q-10 -34 -19.5 -96.5t-9.5 -94.5q0 -47 41 -47q14 0 14 -12q0 -15 -33.5 -34.5t-78.5 -19.5q-39 0 -61 21t-22 57q0 40 7 76.5t24 101t28 116.5q24 115 24 161q0 9 -3.5 17.5 t-3.5 14.5q0 16 33.5 26.5t78.5 10.5q34 0 34 -26q0 -6 -2 -20q-1 -2 -1 -8l-14 -61q-14 -66 -14 -88q0 -25 11 -37t27 -12z" />
<glyph unicode="&#xb6;" horiz-adv-x="376" d="M5 441q0 66 55 99.5t127 33.5h171q20 0 20 -30q0 -9 -5.5 -18.5t-13.5 -9.5h-38v-476q0 -8 -10.5 -13.5t-20.5 -5.5q-11 0 -20 5.5t-9 13.5v476h-47v-476q0 -8 -10 -13.5t-20 -5.5q-12 0 -22 5.5t-10 13.5v264q-63 2 -105 38.5t-42 98.5z" />
<glyph unicode="&#xb7;" horiz-adv-x="146" d="M20 302q0 26 20 49.5t46 23.5q18 0 29 -13t11 -33q0 -27 -20 -50.5t-48 -23.5q-17 0 -27.5 13t-10.5 34z" />
<glyph unicode="&#xb8;" horiz-adv-x="211" d="M78 0h45q0 -37 15 -37q8 0 22.5 1.5t19.5 1.5q23 0 23 -27q0 -39 -36.5 -77t-99.5 -38q-27 0 -43.5 11t-16.5 30q0 12 9 22.5t21 10.5q11 0 24 -12.5t31 -12.5q27 0 47.5 16t20.5 29q-42 -11 -72 -11q-10 0 -16 6t-6 14q0 15 6 45z" />
<glyph unicode="&#xb9;" horiz-adv-x="169" d="M57 561q-16 -7 -30 -7q-6 0 -10 5t-4 11q0 14 14 24q10 7 70 56q25 22 35 22q13 0 27 -9t14 -20q0 -5 -3 -12.5t-9 -24.5t-11 -37q-13 -41 -33.5 -129t-20.5 -123q0 -13 -13 -13q-12 0 -37 -1.5t-29 -1.5q-12 0 -12 14q0 23 13 83t26 110.5t13 52.5z" />
<glyph unicode="&#xba;" horiz-adv-x="354" d="M199 667q57 0 91 -32.5t34 -84.5q0 -88 -52.5 -148t-141.5 -60q-66 0 -105.5 35.5t-39.5 95.5q0 78 58 136t156 58zM250 491q0 29 -20 38q-23 9 -31.5 18t-8.5 23q0 15 7.5 26.5t7.5 12.5q0 8 -9 8t-28 -14q-49 -39 -49 -114q0 -34 18 -54t47 -20q28 0 47 24t19 52z" />
<glyph unicode="&#xbb;" horiz-adv-x="538" d="M309 533q49 -52 107 -104t64 -58q39 -41 39 -90q0 -44 -36 -80q-26 -25 -64.5 -64.5t-66 -66.5t-48.5 -42q-13 -11 -26 -11q-15 0 -28.5 14.5t-13.5 29.5q0 4 0.5 7t2 5.5t2.5 3.5l4.5 4.5l5.5 5.5q52 42 156 155q25 27 25 39q0 24 -29 53q-1 1 -8 9t-18 18.5t-27 26.5 t-41.5 39.5t-56.5 50.5q-16 12 -16 26q0 15 15.5 30t28.5 15q15 0 29 -16zM89 533q49 -52 107 -104t64 -58q39 -41 39 -90q0 -44 -36 -80q-26 -25 -64.5 -64.5t-66 -66.5t-48.5 -42q-13 -11 -26 -11q-15 0 -28.5 14.5t-13.5 29.5q0 4 0.5 7t2 5.5t2.5 3.5l4.5 4.5l5.5 5.5 q52 42 156 155q25 27 25 39q0 24 -29 53q-1 1 -8 9t-18 18.5t-27 26.5t-41.5 39.5t-56.5 50.5q-16 12 -16 26q0 15 15.5 30t28.5 15q15 0 29 -16z" />
<glyph unicode="&#xbc;" horiz-adv-x="559" d="M369 572q0 -14 -9 -36q-204 -493 -225 -528q-4 -14 -22 -14q-50 0 -61 13q-5 8 -5 13q0 2 5 17q10 23 53.5 125.5t97 230t77.5 183.5q6 15 22 15q27 0 47 -5.5t20 -13.5zM417 205q31 120 55 136q11 8 33 17.5t32 9.5t10 -9q0 -3 -1.5 -7.5t-5 -13t-6.5 -17.5 q-1 -6 -8 -32.5t-13.5 -54t-10.5 -45.5q5 -2 21 -2q10 0 10 -7q0 -11 -14.5 -28t-29.5 -21q-16 -74 -16 -116q0 -14 -13 -14q-11 0 -38.5 -1.5t-31.5 -1.5q-13 0 -13 14q0 32 18 115q-31 5 -83 5q-9 0 -18 -2t-14 -2q-9 0 -17 17t-8 27q0 7 17.5 25.5t34.5 44t17 48.5 q0 9 -8 20.5t-8 23.5q0 14 12 24.5t28 10.5q41 0 41 -47q0 -60 -44 -115q6 2 25 2q16 0 47 -4zM69 481q-16 -7 -30 -7q-6 0 -10 5t-4 11q0 14 14 24q10 7 70 56q25 22 35 22q13 0 27 -9t14 -20q0 -5 -3 -12.5t-9 -24.5t-11 -37q-13 -41 -33.5 -129t-20.5 -123q0 -13 -13 -13 q-12 0 -37 -1.5t-29 -1.5q-12 0 -12 14q0 23 13 83t26 110.5t13 52.5z" />
<glyph unicode="&#xbd;" horiz-adv-x="540" d="M57 481q-16 -7 -30 -7q-6 0 -10 5t-4 11q0 14 14 24q10 7 70 56q25 22 35 22q13 0 27 -9t14 -20q0 -5 -3 -12.5t-9 -24.5t-11 -37q-13 -41 -33.5 -129t-20.5 -123q0 -13 -13 -13q-12 0 -37 -1.5t-29 -1.5q-12 0 -12 14q0 23 13 83t26 110.5t13 52.5zM310 16q-8 0 -21 -7 t-21 -7q-9 0 -17 20.5t-8 32.5q0 16 20 35q3 2 4 3q48 43 71.5 66.5t49.5 62.5t26 69q0 38 -36 38q-15 0 -27 -11.5t-12 -24.5q0 -8 9 -19t9 -24q0 -15 -9.5 -24t-27.5 -9q-20 0 -33 14.5t-13 37.5q0 40 34 70t83 30q127 0 127 -101q0 -27 -18 -53.5t-40 -44.5t-49 -40.5 t-39 -37.5q2 1 15 1q9 0 25 -2t25 -2q28 0 47 22q7 10 13 10q9 0 9 -11q0 -27 -31 -69t-73 -42q-21 0 -46.5 8.5t-45.5 8.5zM357 572q0 -14 -9 -36q-204 -493 -225 -528q-4 -14 -22 -14q-50 0 -61 13q-5 8 -5 13q0 2 5 17q10 23 53.5 125.5t97 230t77.5 183.5q6 15 22 15 q27 0 47 -5.5t20 -13.5z" />
<glyph unicode="&#xbe;" horiz-adv-x="686" d="M493 572q0 -14 -9 -36q-204 -493 -225 -528q-4 -14 -22 -14q-50 0 -61 13q-5 8 -5 13q0 2 5 17q10 23 53.5 125.5t97 230t77.5 183.5q6 15 22 15q27 0 47 -5.5t20 -13.5zM541 205q31 120 55 136q11 8 33 17.5t32 9.5t10 -9q0 -3 -1.5 -7.5t-5 -13t-6.5 -17.5 q-1 -6 -8 -32.5t-13.5 -54t-10.5 -45.5q5 -2 21 -2q10 0 10 -7q0 -11 -14.5 -28t-29.5 -21q-16 -74 -16 -116q0 -14 -13 -14q-11 0 -38.5 -1.5t-31.5 -1.5q-13 0 -13 14q0 32 18 115q-31 5 -83 5q-9 0 -18 -2t-14 -2q-9 0 -17 17t-8 27q0 7 17.5 25.5t34.5 44t17 48.5 q0 9 -8 20.5t-8 23.5q0 14 12 24.5t28 10.5q41 0 41 -47q0 -60 -44 -115q6 2 25 2q16 0 47 -4zM146 351q0 17 -12 28.5t-31 14.5q-12 3 -12 24q0 18 25 28q23 9 37 30.5t14 46.5q0 31 -31 31q-12 0 -21 -7t-9 -17q0 -8 6.5 -16t6.5 -19q0 -12 -10.5 -21t-23.5 -9 q-18 0 -29 12t-11 30q0 41 34.5 63t77.5 22q45 0 74 -19.5t29 -56.5q0 -55 -74 -85q24 -6 48 -31t24 -62q0 -47 -34 -81.5t-91 -34.5q-56 0 -86.5 36t-30.5 71q0 18 15 18q9 0 15 -16q6 -13 20.5 -23t29.5 -10q24 0 37 15t13 38z" />
<glyph unicode="&#xbf;" horiz-adv-x="359" d="M198 251q4 23 29 25q15 2 35.5 8.5t25.5 6.5q15 0 15 -16q0 -32 -24 -77t-53.5 -84t-53.5 -88.5t-24 -90.5q0 -43 17 -61.5t58 -18.5q26 0 46 18.5t20 43.5q0 13 -15 32.5t-15 40.5q0 20 15 32.5t36 12.5q33 0 52 -21.5t19 -59.5q0 -72 -52.5 -112.5t-130.5 -40.5 q-86 0 -141 39t-55 121q0 34 18 66.5t45 58.5t55 51t50.5 54.5t27.5 59.5zM315 402q0 -25 -20.5 -49t-45.5 -24q-18 0 -29 13t-11 33q0 27 20 50.5t48 23.5q17 0 27.5 -13t10.5 -34z" />
<glyph unicode="&#xc0;" horiz-adv-x="721" d="M668 76q17 0 38 21q10 10 17 10q14 0 14 -14q0 -13 -16 -32q-51 -66 -127 -66q-97 0 -97 111q0 68 24 185q-37 0 -60 -16.5t-43 -53.5q-20 -38 -27.5 -51.5t-27 -45.5t-31 -45t-33 -34.5t-41 -30.5t-46 -16.5t-55.5 -7.5q-68 0 -112.5 39t-44.5 101q0 63 49 100t90 37 q14 0 14 -13q0 -5 -9 -20.5t-9 -28.5q0 -52 58 -52q22 0 43.5 13.5t46.5 46t36.5 50t38.5 61.5q12 20 41 68t44.5 73t40 57.5t46.5 52.5q-64 20 -130 20q-41 0 -69 -22t-28 -51q0 -44 42 -44q9 0 18.5 5t11.5 5q11 0 11 -11q0 -32 -35 -66.5t-83 -34.5t-81 32.5t-33 83.5 q0 78 64 124.5t153 46.5q61 0 129.5 -13.5t86.5 -13.5q37 0 68.5 4t50 8t23.5 4q18 0 18 -17q0 -5 -4.5 -14.5t-15 -34.5t-20.5 -59q-23 -73 -47.5 -199t-24.5 -196q0 -56 33 -56zM473 354h65q21 99 75 204q-40 -32 -79 -93.5t-61 -110.5zM528 819q16 0 23 -19 q23 -67 82 -102q15 -9 15 -19q0 -14 -17 -14q-26 0 -63 14t-66 38q-23 19 -23 40q0 15 19 38.5t30 23.5z" />
<glyph unicode="&#xc1;" horiz-adv-x="721" d="M668 76q17 0 38 21q10 10 17 10q14 0 14 -14q0 -13 -16 -32q-51 -66 -127 -66q-97 0 -97 111q0 68 24 185q-37 0 -60 -16.5t-43 -53.5q-20 -38 -27.5 -51.5t-27 -45.5t-31 -45t-33 -34.5t-41 -30.5t-46 -16.5t-55.5 -7.5q-68 0 -112.5 39t-44.5 101q0 63 49 100t90 37 q14 0 14 -13q0 -5 -9 -20.5t-9 -28.5q0 -52 58 -52q22 0 43.5 13.5t46.5 46t36.5 50t38.5 61.5q12 20 41 68t44.5 73t40 57.5t46.5 52.5q-64 20 -130 20q-41 0 -69 -22t-28 -51q0 -44 42 -44q9 0 18.5 5t11.5 5q11 0 11 -11q0 -32 -35 -66.5t-83 -34.5t-81 32.5t-33 83.5 q0 78 64 124.5t153 46.5q61 0 129.5 -13.5t86.5 -13.5q37 0 68.5 4t50 8t23.5 4q18 0 18 -17q0 -5 -4.5 -14.5t-15 -34.5t-20.5 -59q-23 -73 -47.5 -199t-24.5 -196q0 -56 33 -56zM473 354h65q21 99 75 204q-40 -32 -79 -93.5t-61 -110.5zM686 826q11 0 30 -23.5t19 -38.5 q0 -21 -23 -40q-29 -24 -66 -38t-63 -14q-17 0 -17 14q0 10 15 19q59 35 82 102q7 19 23 19z" />
<glyph unicode="&#xc2;" horiz-adv-x="721" d="M668 76q17 0 38 21q10 10 17 10q14 0 14 -14q0 -13 -16 -32q-51 -66 -127 -66q-97 0 -97 111q0 68 24 185q-37 0 -60 -16.5t-43 -53.5q-20 -38 -27.5 -51.5t-27 -45.5t-31 -45t-33 -34.5t-41 -30.5t-46 -16.5t-55.5 -7.5q-68 0 -112.5 39t-44.5 101q0 63 49 100t90 37 q14 0 14 -13q0 -5 -9 -20.5t-9 -28.5q0 -52 58 -52q22 0 43.5 13.5t46.5 46t36.5 50t38.5 61.5q12 20 41 68t44.5 73t40 57.5t46.5 52.5q-64 20 -130 20q-41 0 -69 -22t-28 -51q0 -44 42 -44q9 0 18.5 5t11.5 5q11 0 11 -11q0 -32 -35 -66.5t-83 -34.5t-81 32.5t-33 83.5 q0 78 64 124.5t153 46.5q61 0 129.5 -13.5t86.5 -13.5q37 0 68.5 4t50 8t23.5 4q18 0 18 -17q0 -5 -4.5 -14.5t-15 -34.5t-20.5 -59q-23 -73 -47.5 -199t-24.5 -196q0 -56 33 -56zM473 354h65q21 99 75 204q-40 -32 -79 -93.5t-61 -110.5zM581 737q-100 -60 -113 -60 q-16 0 -16 14q0 13 15 23q37 28 77 71q2 2 8 9.5t8.5 9.5t8 6t11 5.5t12.5 1.5t12 -1.5t8 -3t6.5 -6t4.5 -6.5t4 -9.5t4 -9.5q5 -12 11.5 -23t11 -16t13 -15t11.5 -13t7 -6.5t5.5 -5.5t3 -4.5t1.5 -5.5q0 -15 -17 -15q-32 0 -97 60z" />
<glyph unicode="&#xc3;" horiz-adv-x="721" d="M668 76q17 0 38 21q10 10 17 10q14 0 14 -14q0 -13 -16 -32q-51 -66 -127 -66q-97 0 -97 111q0 68 24 185q-37 0 -60 -16.5t-43 -53.5q-20 -38 -27.5 -51.5t-27 -45.5t-31 -45t-33 -34.5t-41 -30.5t-46 -16.5t-55.5 -7.5q-68 0 -112.5 39t-44.5 101q0 63 49 100t90 37 q14 0 14 -13q0 -5 -9 -20.5t-9 -28.5q0 -52 58 -52q22 0 43.5 13.5t46.5 46t36.5 50t38.5 61.5q12 20 41 68t44.5 73t40 57.5t46.5 52.5q-64 20 -130 20q-41 0 -69 -22t-28 -51q0 -44 42 -44q9 0 18.5 5t11.5 5q11 0 11 -11q0 -32 -35 -66.5t-83 -34.5t-81 32.5t-33 83.5 q0 78 64 124.5t153 46.5q61 0 129.5 -13.5t86.5 -13.5q37 0 68.5 4t50 8t23.5 4q18 0 18 -17q0 -5 -4.5 -14.5t-15 -34.5t-20.5 -59q-23 -73 -47.5 -199t-24.5 -196q0 -56 33 -56zM473 354h65q21 99 75 204q-40 -32 -79 -93.5t-61 -110.5zM647 676q-23 0 -64 17.5t-63 17.5 q-14 0 -34.5 -9.5t-23.5 -9.5q-12 0 -12 12q0 8 10 22q13 20 37 37.5t47 17.5q22 0 58.5 -18t60.5 -18q18 0 40 11t25 11q13 0 13 -10q0 -8 -6 -18q-14 -19 -24.5 -30.5t-28 -22t-35.5 -10.5z" />
<glyph unicode="&#xc4;" horiz-adv-x="721" d="M668 76q17 0 38 21q10 10 17 10q14 0 14 -14q0 -13 -16 -32q-51 -66 -127 -66q-97 0 -97 111q0 68 24 185q-37 0 -60 -16.5t-43 -53.5q-20 -38 -27.5 -51.5t-27 -45.5t-31 -45t-33 -34.5t-41 -30.5t-46 -16.5t-55.5 -7.5q-68 0 -112.5 39t-44.5 101q0 63 49 100t90 37 q14 0 14 -13q0 -5 -9 -20.5t-9 -28.5q0 -52 58 -52q22 0 43.5 13.5t46.5 46t36.5 50t38.5 61.5q12 20 41 68t44.5 73t40 57.5t46.5 52.5q-64 20 -130 20q-41 0 -69 -22t-28 -51q0 -44 42 -44q9 0 18.5 5t11.5 5q11 0 11 -11q0 -32 -35 -66.5t-83 -34.5t-81 32.5t-33 83.5 q0 78 64 124.5t153 46.5q61 0 129.5 -13.5t86.5 -13.5q37 0 68.5 4t50 8t23.5 4q18 0 18 -17q0 -5 -4.5 -14.5t-15 -34.5t-20.5 -59q-23 -73 -47.5 -199t-24.5 -196q0 -56 33 -56zM473 354h65q21 99 75 204q-40 -32 -79 -93.5t-61 -110.5zM500 727q0 26 20 49.5t46 23.5 q18 0 29 -13t11 -33q0 -27 -20 -50.5t-48 -23.5q-17 0 -27.5 13t-10.5 34zM638 727q0 26 20 49.5t46 23.5q18 0 29 -13t11 -33q0 -27 -20 -50.5t-48 -23.5q-17 0 -27.5 13t-10.5 34z" />
<glyph unicode="&#xc5;" horiz-adv-x="721" d="M668 76q17 0 38 21q10 10 17 10q14 0 14 -14q0 -13 -16 -32q-51 -66 -127 -66q-97 0 -97 111q0 68 24 185q-37 0 -60 -16.5t-43 -53.5q-20 -38 -27.5 -51.5t-27 -45.5t-31 -45t-33 -34.5t-41 -30.5t-46 -16.5t-55.5 -7.5q-68 0 -112.5 39t-44.5 101q0 63 49 100t90 37 q14 0 14 -13q0 -5 -9 -20.5t-9 -28.5q0 -52 58 -52q22 0 43.5 13.5t46.5 46t36.5 50t38.5 61.5q12 20 41 68t44.5 73t40 57.5t46.5 52.5q-64 20 -130 20q-41 0 -69 -22t-28 -51q0 -44 42 -44q9 0 18.5 5t11.5 5q11 0 11 -11q0 -32 -35 -66.5t-83 -34.5t-81 32.5t-33 83.5 q0 78 64 124.5t153 46.5q61 0 129.5 -13.5t86.5 -13.5q37 0 68.5 4t50 8t23.5 4q18 0 18 -17q0 -5 -4.5 -14.5t-15 -34.5t-20.5 -59q-23 -73 -47.5 -199t-24.5 -196q0 -56 33 -56zM473 354h65q21 99 75 204q-40 -32 -79 -93.5t-61 -110.5zM569 766q0 -17 12.5 -29.5 t29.5 -12.5t28.5 12.5t11.5 29.5t-11.5 28.5t-28.5 11.5t-29.5 -11.5t-12.5 -28.5zM512 766q0 42 28.5 70.5t70.5 28.5t70.5 -28.5t28.5 -70.5t-28.5 -70.5t-70.5 -28.5t-70.5 28.5t-28.5 70.5z" />
<glyph unicode="&#xc6;" horiz-adv-x="954" d="M671 216q0 -52 31.5 -81.5t81.5 -29.5q58 0 107 61q20 20 24 20q13 0 13 -11q0 -5 -8 -27q-10 -25 -26 -48.5t-43.5 -51t-72.5 -44.5t-99 -17q-81 0 -124 45t-43 109q0 57 19 150q-37 0 -60 -16.5t-43 -53.5t-33 -59.5t-33.5 -53t-39.5 -48.5t-44.5 -36t-55.5 -26t-65 -8 q-68 0 -112.5 39t-44.5 101q0 63 49 100t90 37q14 0 14 -13q0 -5 -9 -20.5t-9 -28.5q0 -20 13 -33.5t42 -13.5q75 0 178 166q12 20 41 68t44.5 73t40 57.5t46.5 52.5q-64 20 -130 20q-41 0 -69 -22t-28 -51q0 -44 42 -44q9 0 18.5 5t11.5 5q11 0 11 -11q0 -32 -35 -66.5 t-83 -34.5t-81 32.5t-33 83.5q0 78 64 124.5t153 46.5q61 0 129.5 -13.5t86.5 -13.5q74 0 123 13.5t88 13.5q66 0 102 -27.5t36 -78.5q0 -39 -18.5 -63t-50.5 -24q-21 0 -35 12t-14 32q0 21 21 38.5t21 31.5q0 25 -34 25q-39 0 -65.5 -38t-26.5 -92q0 -28 10 -46 q6 -10 11 -13l14 4q11 4 40 4q24 0 38.5 -12.5t14.5 -32.5q0 -25 -18 -40t-47 -15q-45 0 -81 21q-17 -12 -36 -51t-19 -82zM483 354h65q21 99 75 204q-40 -32 -79 -93.5t-61 -110.5z" />
<glyph unicode="&#xc7;" horiz-adv-x="477" d="M341 663q60 0 98 -33t38 -93q0 -42 -19 -69.5t-48 -27.5q-21 0 -35 12.5t-14 32.5q0 25 22.5 45t22.5 41q0 17 -13 26.5t-32 9.5q-77 0 -136 -109t-59 -253q0 -68 36 -104t93 -36q24 0 50 14t34.5 22t28.5 28q15 17 23 17q13 0 13 -11q0 -12 -10 -31q-22 -49 -82 -101.5 t-136 -55.5q3 -28 15 -28q8 0 22.5 1.5t19.5 1.5q23 0 23 -27q0 -39 -36.5 -77t-99.5 -38q-27 0 -43.5 11t-16.5 30q0 12 9 22.5t21 10.5q11 0 24 -12.5t31 -12.5q27 0 47.5 16t20.5 29q-42 -11 -72 -11q-10 0 -16 6t-6 14q0 17 10 67q-79 9 -124 65t-45 163q0 90 30.5 174 t78.5 142.5t109.5 93.5t122.5 35z" />
<glyph unicode="&#xc8;" horiz-adv-x="398" d="M157 216q0 -52 31.5 -81.5t81.5 -29.5q58 0 107 61q20 20 24 20q13 0 13 -11q0 -5 -8 -27q-10 -25 -24.5 -48.5t-39 -51t-63 -44.5t-83.5 -17q-83 0 -139.5 52.5t-56.5 131.5q0 147 148 213q-52 52 -52 114q0 67 60 116t138 49q66 0 102 -27.5t36 -78.5q0 -39 -18.5 -63 t-50.5 -24q-21 0 -35 12t-14 32q0 21 21 38.5t21 31.5q0 25 -34 25q-39 0 -65.5 -38t-26.5 -92q0 -28 10 -46q6 -10 11 -13l14 4q11 4 40 4q24 0 38.5 -12.5t14.5 -32.5q0 -25 -18 -40t-47 -15q-45 0 -81 21q-17 -12 -36 -51t-19 -82zM282 838q16 0 23 -19q23 -67 82 -102 q15 -9 15 -19q0 -14 -17 -14q-26 0 -63 14t-66 38q-23 19 -23 40q0 15 19 38.5t30 23.5z" />
<glyph unicode="&#xc9;" horiz-adv-x="398" d="M157 216q0 -52 31.5 -81.5t81.5 -29.5q58 0 107 61q20 20 24 20q13 0 13 -11q0 -5 -8 -27q-10 -25 -24.5 -48.5t-39 -51t-63 -44.5t-83.5 -17q-83 0 -139.5 52.5t-56.5 131.5q0 147 148 213q-52 52 -52 114q0 67 60 116t138 49q66 0 102 -27.5t36 -78.5q0 -39 -18.5 -63 t-50.5 -24q-21 0 -35 12t-14 32q0 21 21 38.5t21 31.5q0 25 -34 25q-39 0 -65.5 -38t-26.5 -92q0 -28 10 -46q6 -10 11 -13l14 4q11 4 40 4q24 0 38.5 -12.5t14.5 -32.5q0 -25 -18 -40t-47 -15q-45 0 -81 21q-17 -12 -36 -51t-19 -82zM364 839q11 0 30 -23.5t19 -38.5 q0 -21 -23 -40q-29 -24 -66 -38t-63 -14q-17 0 -17 14q0 10 15 19q59 35 82 102q7 19 23 19z" />
<glyph unicode="&#xca;" horiz-adv-x="398" d="M157 216q0 -52 31.5 -81.5t81.5 -29.5q58 0 107 61q20 20 24 20q13 0 13 -11q0 -5 -8 -27q-10 -25 -24.5 -48.5t-39 -51t-63 -44.5t-83.5 -17q-83 0 -139.5 52.5t-56.5 131.5q0 147 148 213q-52 52 -52 114q0 67 60 116t138 49q66 0 102 -27.5t36 -78.5q0 -39 -18.5 -63 t-50.5 -24q-21 0 -35 12t-14 32q0 21 21 38.5t21 31.5q0 25 -34 25q-39 0 -65.5 -38t-26.5 -92q0 -28 10 -46q6 -10 11 -13l14 4q11 4 40 4q24 0 38.5 -12.5t14.5 -32.5q0 -25 -18 -40t-47 -15q-45 0 -81 21q-17 -12 -36 -51t-19 -82zM309 733q-100 -60 -113 -60 q-16 0 -16 14q0 13 15 23q37 28 77 71q2 2 8 9.5t8.5 9.5t8 6t11 5.5t12.5 1.5t12 -1.5t8 -3t6.5 -6t4.5 -6.5t4 -9.5t4 -9.5q5 -12 11.5 -23t11 -16t13 -15t11.5 -13t7 -6.5t5.5 -5.5t3 -4.5t1.5 -5.5q0 -15 -17 -15q-32 0 -97 60z" />
<glyph unicode="&#xcb;" horiz-adv-x="398" d="M157 216q0 -52 31.5 -81.5t81.5 -29.5q58 0 107 61q20 20 24 20q13 0 13 -11q0 -5 -8 -27q-10 -25 -24.5 -48.5t-39 -51t-63 -44.5t-83.5 -17q-83 0 -139.5 52.5t-56.5 131.5q0 147 148 213q-52 52 -52 114q0 67 60 116t138 49q66 0 102 -27.5t36 -78.5q0 -39 -18.5 -63 t-50.5 -24q-21 0 -35 12t-14 32q0 21 21 38.5t21 31.5q0 25 -34 25q-39 0 -65.5 -38t-26.5 -92q0 -28 10 -46q6 -10 11 -13l14 4q11 4 40 4q24 0 38.5 -12.5t14.5 -32.5q0 -25 -18 -40t-47 -15q-45 0 -81 21q-17 -12 -36 -51t-19 -82zM182 730q0 26 20 49.5t46 23.5 q18 0 29 -13t11 -33q0 -27 -20 -50.5t-48 -23.5q-17 0 -27.5 13t-10.5 34zM320 730q0 26 20 49.5t46 23.5q18 0 29 -13t11 -33q0 -27 -20 -50.5t-48 -23.5q-17 0 -27.5 13t-10.5 34z" />
<glyph unicode="&#xcc;" horiz-adv-x="475" d="M463 589q-9 -21 -15 -68t-11 -100t-13 -114.5t-25.5 -117t-44.5 -101.5t-74 -73t-109 -27q-74 0 -122.5 42t-48.5 106q0 65 47.5 105t104.5 40q34 0 34 -13q0 -11 -13 -14q-19 -6 -33.5 -23.5t-14.5 -39.5q0 -26 17 -42.5t44 -16.5q44 0 72.5 41.5t41 102.5t20.5 123.5 t20 113t31 62.5q-143 -55 -143 -152q0 -36 24 -53q14 -12 15 -16q0 -15 -30 -15q-49 0 -91.5 31.5t-42.5 81.5q0 23 12 43.5t26.5 33.5t45 28t48.5 21.5t57.5 19.5t52.5 18q15 5 32 19.5t26 16.5q38 11 62 11q20 0 20 -15q0 -5 -22 -59zM346 838q16 0 23 -19q23 -67 82 -102 q15 -9 15 -19q0 -14 -17 -14q-26 0 -63 14t-66 38q-23 19 -23 40q0 15 19 38.5t30 23.5z" />
<glyph unicode="&#xcd;" horiz-adv-x="475" d="M463 589q-9 -21 -15 -68t-11 -100t-13 -114.5t-25.5 -117t-44.5 -101.5t-74 -73t-109 -27q-74 0 -122.5 42t-48.5 106q0 65 47.5 105t104.5 40q34 0 34 -13q0 -11 -13 -14q-19 -6 -33.5 -23.5t-14.5 -39.5q0 -26 17 -42.5t44 -16.5q44 0 72.5 41.5t41 102.5t20.5 123.5 t20 113t31 62.5q-143 -55 -143 -152q0 -36 24 -53q14 -12 15 -16q0 -15 -30 -15q-49 0 -91.5 31.5t-42.5 81.5q0 23 12 43.5t26.5 33.5t45 28t48.5 21.5t57.5 19.5t52.5 18q15 5 32 19.5t26 16.5q38 11 62 11q20 0 20 -15q0 -5 -22 -59zM433 822q11 0 30 -23.5t19 -38.5 q0 -21 -23 -40q-29 -24 -66 -38t-63 -14q-17 0 -17 14q0 10 15 19q59 35 82 102q7 19 23 19z" />
<glyph unicode="&#xce;" horiz-adv-x="475" d="M463 589q-9 -21 -15 -68t-11 -100t-13 -114.5t-25.5 -117t-44.5 -101.5t-74 -73t-109 -27q-74 0 -122.5 42t-48.5 106q0 65 47.5 105t104.5 40q34 0 34 -13q0 -11 -13 -14q-19 -6 -33.5 -23.5t-14.5 -39.5q0 -26 17 -42.5t44 -16.5q44 0 72.5 41.5t41 102.5t20.5 123.5 t20 113t31 62.5q-143 -55 -143 -152q0 -36 24 -53q14 -12 15 -16q0 -15 -30 -15q-49 0 -91.5 31.5t-42.5 81.5q0 23 12 43.5t26.5 33.5t45 28t48.5 21.5t57.5 19.5t52.5 18q15 5 32 19.5t26 16.5q38 11 62 11q20 0 20 -15q0 -5 -22 -59zM403 739q-100 -60 -113 -60 q-16 0 -16 14q0 13 15 23q37 28 77 71q2 2 8 9.5t8.5 9.5t8 6t11 5.5t12.5 1.5t12 -1.5t8 -3t6.5 -6t4.5 -6.5t4 -9.5t4 -9.5q5 -12 11.5 -23t11 -16t13 -15t11.5 -13t7 -6.5t5.5 -5.5t3 -4.5t1.5 -5.5q0 -15 -17 -15q-32 0 -97 60z" />
<glyph unicode="&#xcf;" horiz-adv-x="475" d="M463 589q-9 -21 -15 -68t-11 -100t-13 -114.5t-25.5 -117t-44.5 -101.5t-74 -73t-109 -27q-74 0 -122.5 42t-48.5 106q0 65 47.5 105t104.5 40q34 0 34 -13q0 -11 -13 -14q-19 -6 -33.5 -23.5t-14.5 -39.5q0 -26 17 -42.5t44 -16.5q44 0 72.5 41.5t41 102.5t20.5 123.5 t20 113t31 62.5q-143 -55 -143 -152q0 -36 24 -53q14 -12 15 -16q0 -15 -30 -15q-49 0 -91.5 31.5t-42.5 81.5q0 23 12 43.5t26.5 33.5t45 28t48.5 21.5t57.5 19.5t52.5 18q15 5 32 19.5t26 16.5q38 11 62 11q20 0 20 -15q0 -5 -22 -59zM290 728q0 26 20 49.5t46 23.5 q18 0 29 -13t11 -33q0 -27 -20 -50.5t-48 -23.5q-17 0 -27.5 13t-10.5 34zM428 728q0 26 20 49.5t46 23.5q18 0 29 -13t11 -33q0 -27 -20 -50.5t-48 -23.5q-17 0 -27.5 13t-10.5 34z" />
<glyph unicode="&#xd0;" horiz-adv-x="748" d="M218 76q8 19 31 133h-45q-15 0 -15 16q0 13 10.5 34.5t21.5 21.5h42q30 154 47 222q7 31 20.5 54t24 32t28.5 22q-93 -6 -159.5 -61.5t-66.5 -110.5q0 -47 41 -47q8 0 20 3.5t14 3.5q10 0 10 -11q0 -27 -41 -64.5t-94 -37.5q-49 0 -78 28.5t-29 81.5q0 76 62.5 138 t161 95.5t209.5 33.5q62 0 114 -14t93.5 -43t64.5 -80t23 -119q0 -125 -34 -212q-39 -98 -104.5 -149t-145.5 -51q-40 0 -89.5 18t-51.5 18q-11 0 -49.5 -18t-52.5 -18q-16 0 -16 13q0 5 4 11.5t12.5 21t16.5 35.5zM432 209h-42q-17 -93 -17 -117q0 -39 41 -39q44 0 79 42.5 t57 114.5q32 105 32 229q0 152 -87 167q-24 -30 -45 -108q-21 -74 -48 -217h47q11 0 14.5 -3t3.5 -11q0 -12 -12 -35t-23 -23z" />
<glyph unicode="&#xd1;" horiz-adv-x="722" d="M577 288q45 232 90 320q27 55 78 55q39 0 61 -17.5t22 -35.5q0 -15 -15 -15q-37 0 -59 -27q-38 -48 -88.5 -210.5t-67.5 -328.5q-2 -29 -26 -29h-99q-18 0 -19 22q-3 51 -4.5 177t-8.5 186h-5q-10 -46 -16 -70.5t-21 -76.5t-29 -83.5t-37.5 -73.5t-49 -65.5t-62 -41 t-77.5 -17.5q-65 0 -104.5 38t-39.5 93q0 50 40 89t73 39q14 0 14 -12q0 -5 -3.5 -17.5t-3.5 -25.5q0 -21 14.5 -36t43.5 -15q44 0 92.5 68t81 167.5t32.5 185.5q0 76 -60 76q-41 0 -77.5 -54t-36.5 -115q0 -23 11.5 -35.5t28.5 -12.5q7 0 18 4t14 4q10 0 10 -11 q0 -28 -38.5 -65t-88.5 -37q-46 0 -75.5 30.5t-29.5 83.5q0 80 47 142.5t111.5 92t129.5 29.5q101 0 146 -46t65 -137q11 -46 18 -192zM623 676q-23 0 -64 17.5t-63 17.5q-14 0 -34.5 -9.5t-23.5 -9.5q-12 0 -12 12q0 8 10 22q13 20 37 37.5t47 17.5q22 0 58.5 -18t60.5 -18 q18 0 40 11t25 11q13 0 13 -10q0 -8 -6 -18q-14 -19 -24.5 -30.5t-28 -22t-35.5 -10.5z" />
<glyph unicode="&#xd2;" horiz-adv-x="566" d="M174 247q0 -86 25.5 -129t66.5 -43q71 0 121.5 99.5t50.5 216.5q0 103 -77 103q-30 0 -57 -15q-14 -8 -19 -8q-9 0 -9 11q0 13 16 36.5t41 40.5q44 32 102 32q60 0 95 -39.5t35 -117.5q0 -108 -45 -211t-123.5 -168.5t-167.5 -65.5q-103 0 -166 62.5t-63 181.5 q0 87 24.5 160.5t64.5 122t91 83t102.5 49.5t100.5 15q91 0 91 -29q0 -10 -13 -10q-2 0 -17.5 1t-30.5 1q-101 0 -170 -101.5t-69 -277.5zM330 844q16 0 23 -19q23 -67 82 -102q15 -9 15 -19q0 -14 -17 -14q-26 0 -63 14t-66 38q-23 19 -23 40q0 15 19 38.5t30 23.5z" />
<glyph unicode="&#xd3;" horiz-adv-x="566" d="M174 247q0 -86 25.5 -129t66.5 -43q71 0 121.5 99.5t50.5 216.5q0 103 -77 103q-30 0 -57 -15q-14 -8 -19 -8q-9 0 -9 11q0 13 16 36.5t41 40.5q44 32 102 32q60 0 95 -39.5t35 -117.5q0 -108 -45 -211t-123.5 -168.5t-167.5 -65.5q-103 0 -166 62.5t-63 181.5 q0 87 24.5 160.5t64.5 122t91 83t102.5 49.5t100.5 15q91 0 91 -29q0 -10 -13 -10q-2 0 -17.5 1t-30.5 1q-101 0 -170 -101.5t-69 -277.5zM400 842q11 0 30 -23.5t19 -38.5q0 -21 -23 -40q-29 -24 -66 -38t-63 -14q-17 0 -17 14q0 10 15 19q59 35 82 102q7 19 23 19z" />
<glyph unicode="&#xd4;" horiz-adv-x="566" d="M174 247q0 -86 25.5 -129t66.5 -43q71 0 121.5 99.5t50.5 216.5q0 103 -77 103q-30 0 -57 -15q-14 -8 -19 -8q-9 0 -9 11q0 13 16 36.5t41 40.5q44 32 102 32q60 0 95 -39.5t35 -117.5q0 -108 -45 -211t-123.5 -168.5t-167.5 -65.5q-103 0 -166 62.5t-63 181.5 q0 87 24.5 160.5t64.5 122t91 83t102.5 49.5t100.5 15q91 0 91 -29q0 -10 -13 -10q-2 0 -17.5 1t-30.5 1q-101 0 -170 -101.5t-69 -277.5zM377 739q-100 -60 -113 -60q-16 0 -16 14q0 13 15 23q37 28 77 71q2 2 8 9.5t8.5 9.5t8 6t11 5.5t12.5 1.5t12 -1.5t8 -3t6.5 -6 t4.5 -6.5t4 -9.5t4 -9.5q5 -12 11.5 -23t11 -16t13 -15t11.5 -13t7 -6.5t5.5 -5.5t3 -4.5t1.5 -5.5q0 -15 -17 -15q-32 0 -97 60z" />
<glyph unicode="&#xd5;" horiz-adv-x="566" d="M174 247q0 -86 25.5 -129t66.5 -43q71 0 121.5 99.5t50.5 216.5q0 103 -77 103q-30 0 -57 -15q-14 -8 -19 -8q-9 0 -9 11q0 13 16 36.5t41 40.5q44 32 102 32q60 0 95 -39.5t35 -117.5q0 -108 -45 -211t-123.5 -168.5t-167.5 -65.5q-103 0 -166 62.5t-63 181.5 q0 87 24.5 160.5t64.5 122t91 83t102.5 49.5t100.5 15q91 0 91 -29q0 -10 -13 -10q-2 0 -17.5 1t-30.5 1q-101 0 -170 -101.5t-69 -277.5zM430 694q-23 0 -64 17.5t-63 17.5q-14 0 -34.5 -9.5t-23.5 -9.5q-12 0 -12 12q0 8 10 22q13 20 37 37.5t47 17.5q22 0 58.5 -18 t60.5 -18q18 0 40 11t25 11q13 0 13 -10q0 -8 -6 -18q-14 -19 -24.5 -30.5t-28 -22t-35.5 -10.5z" />
<glyph unicode="&#xd6;" horiz-adv-x="566" d="M174 247q0 -86 25.5 -129t66.5 -43q71 0 121.5 99.5t50.5 216.5q0 103 -77 103q-30 0 -57 -15q-14 -8 -19 -8q-9 0 -9 11q0 13 16 36.5t41 40.5q44 32 102 32q60 0 95 -39.5t35 -117.5q0 -108 -45 -211t-123.5 -168.5t-167.5 -65.5q-103 0 -166 62.5t-63 181.5 q0 87 24.5 160.5t64.5 122t91 83t102.5 49.5t100.5 15q91 0 91 -29q0 -10 -13 -10q-2 0 -17.5 1t-30.5 1q-101 0 -170 -101.5t-69 -277.5zM267 740q0 26 20 49.5t46 23.5q18 0 29 -13t11 -33q0 -27 -20 -50.5t-48 -23.5q-17 0 -27.5 13t-10.5 34zM405 740q0 26 20 49.5 t46 23.5q18 0 29 -13t11 -33q0 -27 -20 -50.5t-48 -23.5q-17 0 -27.5 13t-10.5 34z" />
<glyph unicode="&#xd7;" horiz-adv-x="350" d="M175 330l103 103q5 5 12 5q13 0 28 -15q16 -16 16 -30q0 -6 -3 -9l-105 -105l103 -103q5 -5 5 -12q0 -13 -15 -28q-16 -16 -30 -16q-6 0 -9 3l-105 105l-103 -102q-4 -4 -11 -4q-15 0 -30 15q-14 16 -14 29q0 6 3 9l104 104l-102 103q-4 4 -4 11q0 15 15 30q16 14 29 14 q6 0 9 -3z" />
<glyph unicode="&#xd8;" horiz-adv-x="566" d="M499 673q0 -14 -9 -36l-21 -50q96 -25 96 -153q0 -108 -45 -211t-123.5 -168.5t-167.5 -65.5q-10 0 -28 2q0 -1 -2 -4.5t-2 -5.5q-4 -14 -22 -14h-32q-34 0 -34 16q0 2 5 17l5 12q-119 58 -119 221q0 87 24.5 160.5t64.5 122t91 83t102.5 49.5t100.5 15q14 0 21 -1l6 15 q6 15 22 15q27 0 47 -5.5t20 -13.5zM174 247q0 -59 10 -90l146 333q-9 -2 -26 -11q-14 -8 -19 -8q-9 0 -9 11q0 13 16 36.5t41 40.5q17 12 35 20l20 45q-92 -13 -153 -113.5t-61 -263.5zM438 391q0 52 -21 78l-175 -390q7 -4 24 -4q71 0 121.5 99.5t50.5 216.5z" />
<glyph unicode="&#xd9;" horiz-adv-x="788" d="M702 132q0 -56 33 -56q17 0 38 21q10 10 17 10q14 0 14 -14q0 -13 -16 -32q-51 -66 -127 -66q-97 0 -97 111q0 4 1 20t1 18q-97 -154 -206 -154q-53 0 -87 34.5t-34 86.5q0 57 54 212.5t54 228.5q0 55 -44 55q-56 0 -104.5 -61.5t-48.5 -124.5q0 -23 11.5 -35.5 t28.5 -12.5q7 0 18 4t14 4q10 0 10 -11q0 -28 -38.5 -65t-88.5 -37q-46 0 -75.5 30.5t-29.5 83.5q0 121 101.5 201t224.5 80q74 0 116.5 -33.5t42.5 -97.5q0 -68 -40.5 -197t-40.5 -184q0 -46 41 -46q50 0 118 127q30 58 65 200.5t37 149.5q6 21 45.5 39t86.5 18 q19 0 19 -18q0 -5 -5 -14t-13 -24t-13 -28q-19 -68 -51 -218.5t-32 -204.5zM516 791q16 0 23 -19q23 -67 82 -102q15 -9 15 -19q0 -14 -17 -14q-26 0 -63 14t-66 38q-23 19 -23 40q0 15 19 38.5t30 23.5z" />
<glyph unicode="&#xda;" horiz-adv-x="788" d="M702 132q0 -56 33 -56q17 0 38 21q10 10 17 10q14 0 14 -14q0 -13 -16 -32q-51 -66 -127 -66q-97 0 -97 111q0 4 1 20t1 18q-97 -154 -206 -154q-53 0 -87 34.5t-34 86.5q0 57 54 212.5t54 228.5q0 55 -44 55q-56 0 -104.5 -61.5t-48.5 -124.5q0 -23 11.5 -35.5 t28.5 -12.5q7 0 18 4t14 4q10 0 10 -11q0 -28 -38.5 -65t-88.5 -37q-46 0 -75.5 30.5t-29.5 83.5q0 121 101.5 201t224.5 80q74 0 116.5 -33.5t42.5 -97.5q0 -68 -40.5 -197t-40.5 -184q0 -46 41 -46q50 0 118 127q30 58 65 200.5t37 149.5q6 21 45.5 39t86.5 18 q19 0 19 -18q0 -5 -5 -14t-13 -24t-13 -28q-19 -68 -51 -218.5t-32 -204.5zM642 761q11 0 30 -23.5t19 -38.5q0 -21 -23 -40q-29 -24 -66 -38t-63 -14q-17 0 -17 14q0 10 15 19q59 35 82 102q7 19 23 19z" />
<glyph unicode="&#xdb;" horiz-adv-x="788" d="M702 132q0 -56 33 -56q17 0 38 21q10 10 17 10q14 0 14 -14q0 -13 -16 -32q-51 -66 -127 -66q-97 0 -97 111q0 4 1 20t1 18q-97 -154 -206 -154q-53 0 -87 34.5t-34 86.5q0 57 54 212.5t54 228.5q0 55 -44 55q-56 0 -104.5 -61.5t-48.5 -124.5q0 -23 11.5 -35.5 t28.5 -12.5q7 0 18 4t14 4q10 0 10 -11q0 -28 -38.5 -65t-88.5 -37q-46 0 -75.5 30.5t-29.5 83.5q0 121 101.5 201t224.5 80q74 0 116.5 -33.5t42.5 -97.5q0 -68 -40.5 -197t-40.5 -184q0 -46 41 -46q50 0 118 127q30 58 65 200.5t37 149.5q6 21 45.5 39t86.5 18 q19 0 19 -18q0 -5 -5 -14t-13 -24t-13 -28q-19 -68 -51 -218.5t-32 -204.5zM588 707q-100 -60 -113 -60q-16 0 -16 14q0 13 15 23q37 28 77 71q2 2 8 9.5t8.5 9.5t8 6t11 5.5t12.5 1.5t12 -1.5t8 -3t6.5 -6t4.5 -6.5t4 -9.5t4 -9.5q5 -12 11.5 -23t11 -16t13 -15t11.5 -13 t7 -6.5t5.5 -5.5t3 -4.5t1.5 -5.5q0 -15 -17 -15q-32 0 -97 60z" />
<glyph unicode="&#xdc;" horiz-adv-x="788" d="M702 132q0 -56 33 -56q17 0 38 21q10 10 17 10q14 0 14 -14q0 -13 -16 -32q-51 -66 -127 -66q-97 0 -97 111q0 4 1 20t1 18q-97 -154 -206 -154q-53 0 -87 34.5t-34 86.5q0 57 54 212.5t54 228.5q0 55 -44 55q-56 0 -104.5 -61.5t-48.5 -124.5q0 -23 11.5 -35.5 t28.5 -12.5q7 0 18 4t14 4q10 0 10 -11q0 -28 -38.5 -65t-88.5 -37q-46 0 -75.5 30.5t-29.5 83.5q0 121 101.5 201t224.5 80q74 0 116.5 -33.5t42.5 -97.5q0 -68 -40.5 -197t-40.5 -184q0 -46 41 -46q50 0 118 127q30 58 65 200.5t37 149.5q6 21 45.5 39t86.5 18 q19 0 19 -18q0 -5 -5 -14t-13 -24t-13 -28q-19 -68 -51 -218.5t-32 -204.5zM475 695q0 26 20 49.5t46 23.5q18 0 29 -13t11 -33q0 -27 -20 -50.5t-48 -23.5q-17 0 -27.5 13t-10.5 34zM613 695q0 26 20 49.5t46 23.5q18 0 29 -13t11 -33q0 -27 -20 -50.5t-48 -23.5 q-17 0 -27.5 13t-10.5 34z" />
<glyph unicode="&#xdd;" horiz-adv-x="792" d="M479 539q0 -60 -34 -171.5t-34 -163.5q0 -21 11.5 -34.5t31.5 -13.5q28 0 59.5 31t55.5 76q17 35 33.5 91t36.5 133t25 95q6 21 46.5 39t88.5 18q19 0 19 -15q0 -5 -3 -11.5t-10 -18.5t-12 -25q-39 -91 -100 -392q-16 -80 -29.5 -134t-34 -118.5t-45 -105.5t-58 -77.5 t-78.5 -54t-100 -17.5q-87 0 -140.5 45.5t-53.5 117.5q0 73 50.5 117.5t123.5 44.5q50 0 50 -19q0 -13 -15 -13q-20 0 -37 -17t-17 -46q0 -31 19 -50t54 -19q115 0 188 349q-32 -51 -86.5 -92t-109.5 -41q-52 0 -83 32.5t-31 86.5q0 49 43.5 182t43.5 214q0 45 -44 45 q-56 0 -104.5 -61.5t-48.5 -124.5q0 -23 11.5 -35.5t28.5 -12.5q7 0 18 4t14 4q10 0 10 -11q0 -28 -38.5 -65t-88.5 -37q-46 0 -75.5 30.5t-29.5 83.5q0 121 101.5 201t224.5 80q72 0 112.5 -32t40.5 -92zM644 799q11 0 30 -23.5t19 -38.5q0 -21 -23 -40q-29 -24 -66 -38 t-63 -14q-17 0 -17 14q0 10 15 19q59 35 82 102q7 19 23 19z" />
<glyph unicode="&#xde;" horiz-adv-x="421" d="M104 21q0 -12 -4.5 -16.5t-16.5 -4.5q-17 0 -49 -2.5t-38 -2.5q-19 0 -19 22q0 72 53.5 277.5t53.5 260.5q0 49 -39 49q-14 0 -14 12q0 17 34.5 35.5t75.5 18.5q40 0 62.5 -20t22.5 -58q0 -8 -3 -25t-7 -37l-5 -25q53 44 114 44q59 0 85 -30.5t26 -97.5q0 -42 -14 -87 t-40 -85t-69 -65.5t-94 -25.5q-57 0 -87 37q-28 -112 -28 -174zM157 257q0 -44 38 -44q25 0 45.5 22.5t32 56.5t17.5 68.5t6 62.5q0 52 -40 52q-38 0 -65 -59q-10 -22 -22 -74.5t-12 -84.5z" />
<glyph unicode="&#xdf;" horiz-adv-x="403" d="M106 21q0 -12 -4.5 -16.5t-16.5 -4.5q-17 0 -49 -2.5t-38 -2.5q-19 0 -19 22q0 89 23 208.5t73 209.5q79 141 206 141q122 0 122 -107q0 -40 -24.5 -70.5t-54.5 -45t-54.5 -28.5t-24.5 -24q0 -15 18.5 -33.5t41.5 -35t41.5 -46t18.5 -64.5q0 -55 -36.5 -91t-87.5 -36 q-46 0 -78 28.5t-32 56.5q0 15 14 15q3 0 18 -11t38 -11q17 0 30.5 18.5t13.5 40.5q0 31 -9.5 54.5t-21.5 35.5t-21.5 30t-9.5 39t18 44t40 40t40 43t18 53q0 23 -25 23q-20 0 -44.5 -25t-41.5 -64q-73 -170 -82 -384z" />
<glyph unicode="&#xe0;" horiz-adv-x="423" d="M227 239q0 29 -30 29q-26 0 -45.5 -29.5t-28 -64.5t-8.5 -66q0 -47 34 -47q32 0 52 47q9 21 17.5 62t8.5 69zM422 61q-51 -66 -127 -66q-37 0 -61 26q-11 11 -16 27q-16 -16 -36 -27q-46 -26 -90 -26q-47 0 -77 30.5t-30 86.5q0 82 51.5 141t151.5 59q32 0 56.5 -9.5 t27.5 -9.5q7 0 39 9.5t44 9.5q15 0 15 -15q0 -5 -17.5 -69.5t-17.5 -110.5q0 -20 9.5 -30.5t24.5 -10.5q17 0 38 21q10 10 17 10q14 0 14 -14q0 -13 -16 -32zM142 493q16 0 23 -19q23 -67 82 -102q15 -9 15 -19q0 -14 -17 -14q-26 0 -63 14t-66 38q-23 19 -23 40 q0 15 19 38.5t30 23.5z" />
<glyph unicode="&#xe1;" horiz-adv-x="423" d="M227 239q0 29 -30 29q-26 0 -45.5 -29.5t-28 -64.5t-8.5 -66q0 -47 34 -47q32 0 52 47q9 21 17.5 62t8.5 69zM422 61q-51 -66 -127 -66q-37 0 -61 26q-11 11 -16 27q-16 -16 -36 -27q-46 -26 -90 -26q-47 0 -77 30.5t-30 86.5q0 82 51.5 141t151.5 59q32 0 56.5 -9.5 t27.5 -9.5q7 0 39 9.5t44 9.5q15 0 15 -15q0 -5 -17.5 -69.5t-17.5 -110.5q0 -20 9.5 -30.5t24.5 -10.5q17 0 38 21q10 10 17 10q14 0 14 -14q0 -13 -16 -32zM267 491q11 0 30 -23.5t19 -38.5q0 -21 -23 -40q-29 -24 -66 -38t-63 -14q-17 0 -17 14q0 10 15 19q59 35 82 102 q7 19 23 19z" />
<glyph unicode="&#xe2;" horiz-adv-x="423" d="M227 239q0 29 -30 29q-26 0 -45.5 -29.5t-28 -64.5t-8.5 -66q0 -47 34 -47q32 0 52 47q9 21 17.5 62t8.5 69zM422 61q-51 -66 -127 -66q-37 0 -61 26q-11 11 -16 27q-16 -16 -36 -27q-46 -26 -90 -26q-47 0 -77 30.5t-30 86.5q0 82 51.5 141t151.5 59q32 0 56.5 -9.5 t27.5 -9.5q7 0 39 9.5t44 9.5q15 0 15 -15q0 -5 -17.5 -69.5t-17.5 -110.5q0 -20 9.5 -30.5t24.5 -10.5q17 0 38 21q10 10 17 10q14 0 14 -14q0 -13 -16 -32zM219 396q-100 -60 -113 -60q-16 0 -16 14q0 12 15 23q37 28 77 71q2 2 8 9.5t8.5 9.5t8 6t11 5.5t12.5 1.5 t12 -1.5t8 -3t6.5 -6t4.5 -6.5t4 -9.5t4 -9.5q5 -12 11.5 -23t11 -16t13 -15t11.5 -13t7 -6.5t5.5 -5.5t3 -4.5t1.5 -5.5q0 -15 -17 -15q-32 0 -97 60z" />
<glyph unicode="&#xe3;" horiz-adv-x="423" d="M227 239q0 29 -30 29q-26 0 -45.5 -29.5t-28 -64.5t-8.5 -66q0 -47 34 -47q32 0 52 47q9 21 17.5 62t8.5 69zM422 61q-51 -66 -127 -66q-37 0 -61 26q-11 11 -16 27q-16 -16 -36 -27q-46 -26 -90 -26q-47 0 -77 30.5t-30 86.5q0 82 51.5 141t151.5 59q32 0 56.5 -9.5 t27.5 -9.5q7 0 39 9.5t44 9.5q15 0 15 -15q0 -5 -17.5 -69.5t-17.5 -110.5q0 -20 9.5 -30.5t24.5 -10.5q17 0 38 21q10 10 17 10q14 0 14 -14q0 -13 -16 -32zM283 335q-23 0 -64 17.5t-63 17.5q-14 0 -34.5 -9.5t-23.5 -9.5q-12 0 -12 12q0 8 10 22q13 20 37 37.5t47 17.5 q22 0 58.5 -18t60.5 -18q18 0 40 11t25 11q13 0 13 -10q0 -8 -6 -18q-14 -19 -24.5 -30.5t-28 -22t-35.5 -10.5z" />
<glyph unicode="&#xe4;" horiz-adv-x="423" d="M227 239q0 29 -30 29q-26 0 -45.5 -29.5t-28 -64.5t-8.5 -66q0 -47 34 -47q32 0 52 47q9 21 17.5 62t8.5 69zM422 61q-51 -66 -127 -66q-37 0 -61 26q-11 11 -16 27q-16 -16 -36 -27q-46 -26 -90 -26q-47 0 -77 30.5t-30 86.5q0 82 51.5 141t151.5 59q32 0 56.5 -9.5 t27.5 -9.5q7 0 39 9.5t44 9.5q15 0 15 -15q0 -5 -17.5 -69.5t-17.5 -110.5q0 -20 9.5 -30.5t24.5 -10.5q17 0 38 21q10 10 17 10q14 0 14 -14q0 -13 -16 -32zM89 385q0 26 20 49.5t46 23.5q18 0 29 -13t11 -33q0 -27 -20 -50.5t-48 -23.5q-17 0 -27.5 13t-10.5 34zM227 385 q0 26 20 49.5t46 23.5q18 0 29 -13t11 -33q0 -27 -20 -50.5t-48 -23.5q-17 0 -27.5 13t-10.5 34z" />
<glyph unicode="&#xe5;" horiz-adv-x="423" d="M227 239q0 29 -30 29q-26 0 -45.5 -29.5t-28 -64.5t-8.5 -66q0 -47 34 -47q32 0 52 47q9 21 17.5 62t8.5 69zM422 61q-51 -66 -127 -66q-37 0 -61 26q-11 11 -16 27q-16 -16 -36 -27q-46 -26 -90 -26q-47 0 -77 30.5t-30 86.5q0 82 51.5 141t151.5 59q32 0 56.5 -9.5 t27.5 -9.5q7 0 39 9.5t44 9.5q15 0 15 -15q0 -5 -17.5 -69.5t-17.5 -110.5q0 -20 9.5 -30.5t24.5 -10.5q17 0 38 21q10 10 17 10q14 0 14 -14q0 -13 -16 -32zM169 431q0 -17 12.5 -29.5t29.5 -12.5t28.5 12.5t11.5 29.5t-11.5 28.5t-28.5 11.5t-29.5 -11.5t-12.5 -28.5z M112 431q0 42 28.5 70.5t70.5 28.5t70.5 -28.5t28.5 -70.5t-28.5 -70.5t-70.5 -28.5t-70.5 28.5t-28.5 70.5z" />
<glyph unicode="&#xe6;" horiz-adv-x="555" d="M283 270q55 44 128 44q49 0 74 -19.5t25 -53.5q0 -44 -47 -79t-120 -41q0 -27 22.5 -44.5t58.5 -17.5q56 0 112 51q14 12 21 12q12 0 12 -12q0 -13 -20 -34q-79 -84 -186 -84q-76 0 -125 74q-66 -71 -144 -71q-47 0 -77 30.5t-30 86.5q0 82 51.5 141t151.5 59 q60 0 93 -42zM203 111q40 75 40 119q0 20 -13 30.5t-31 10.5q-26 0 -45.5 -29.5t-28 -64.5t-8.5 -66q0 -47 34 -47q28 0 52 47zM343 163q39 8 66.5 36t27.5 49q0 23 -24 23t-47 -33t-23 -75z" />
<glyph unicode="&#xe7;" horiz-adv-x="329" d="M205 59q47 0 105 51q14 12 21 12q12 0 12 -12t-21 -34q-22 -22 -39 -36t-53 -30.5t-75 -17.5q2 -29 15 -29q8 0 22.5 1.5t19.5 1.5q23 0 23 -27q0 -39 -36.5 -77t-99.5 -38q-27 0 -43.5 11t-16.5 30q0 12 9 22.5t21 10.5q11 0 24 -12.5t31 -12.5q27 0 47.5 16t20.5 29 q-42 -11 -72 -11q-10 0 -16 6t-6 14q0 25 10 68q-56 8 -89.5 42t-33.5 88q0 80 57.5 134.5t151.5 54.5q104 0 104 -70q0 -30 -16.5 -47t-42.5 -17q-17 0 -28.5 9t-11.5 24q0 13 8 26t8 17q0 13 -18 13q-24 0 -48 -37t-24 -87q0 -43 22.5 -64.5t57.5 -21.5z" />
<glyph unicode="&#xe8;" horiz-adv-x="330" d="M128 163q39 8 66.5 36t27.5 49q0 23 -24 23t-47 -33t-23 -75zM203 59q49 0 108 51q13 12 21 12q12 0 12 -12q0 -13 -20 -34q-23 -24 -40.5 -38.5t-55.5 -30t-83 -15.5q-75 0 -117.5 34t-42.5 104q0 76 58 130t153 54q49 0 74 -19.5t25 -53.5q0 -44 -47 -79t-120 -41 q0 -27 20 -44.5t55 -17.5zM129 491q16 0 23 -19q23 -67 82 -102q15 -9 15 -19q0 -14 -17 -14q-26 0 -63 14t-66 38q-23 19 -23 40q0 15 19 38.5t30 23.5z" />
<glyph unicode="&#xe9;" horiz-adv-x="330" d="M128 163q39 8 66.5 36t27.5 49q0 23 -24 23t-47 -33t-23 -75zM203 59q49 0 108 51q13 12 21 12q12 0 12 -12q0 -13 -20 -34q-23 -24 -40.5 -38.5t-55.5 -30t-83 -15.5q-75 0 -117.5 34t-42.5 104q0 76 58 130t153 54q49 0 74 -19.5t25 -53.5q0 -44 -47 -79t-120 -41 q0 -27 20 -44.5t55 -17.5zM245 491q11 0 30 -23.5t19 -38.5q0 -21 -23 -40q-29 -24 -66 -38t-63 -14q-17 0 -17 14q0 10 15 19q59 35 82 102q7 19 23 19z" />
<glyph unicode="&#xea;" horiz-adv-x="330" d="M128 163q39 8 66.5 36t27.5 49q0 23 -24 23t-47 -33t-23 -75zM203 59q49 0 108 51q13 12 21 12q12 0 12 -12q0 -13 -20 -34q-23 -24 -40.5 -38.5t-55.5 -30t-83 -15.5q-75 0 -117.5 34t-42.5 104q0 76 58 130t153 54q49 0 74 -19.5t25 -53.5q0 -44 -47 -79t-120 -41 q0 -27 20 -44.5t55 -17.5zM188 388q-100 -60 -113 -60q-16 0 -16 14q0 12 15 23q37 28 77 71q2 2 8 9.5t8.5 9.5t8 6t11 5.5t12.5 1.5t12 -1.5t8 -3t6.5 -6t4.5 -6.5t4 -9.5t4 -9.5q5 -12 11.5 -23t11 -16t13 -15t11.5 -13t7 -6.5t5.5 -5.5t3 -4.5t1.5 -5.5q0 -15 -17 -15 q-32 0 -97 60z" />
<glyph unicode="&#xeb;" horiz-adv-x="330" d="M128 163q39 8 66.5 36t27.5 49q0 23 -24 23t-47 -33t-23 -75zM203 59q49 0 108 51q13 12 21 12q12 0 12 -12q0 -13 -20 -34q-23 -24 -40.5 -38.5t-55.5 -30t-83 -15.5q-75 0 -117.5 34t-42.5 104q0 76 58 130t153 54q49 0 74 -19.5t25 -53.5q0 -44 -47 -79t-120 -41 q0 -27 20 -44.5t55 -17.5zM73 383q0 26 20 49.5t46 23.5q18 0 29 -13t11 -33q0 -27 -20 -50.5t-48 -23.5q-17 0 -27.5 13t-10.5 34zM211 383q0 26 20 49.5t46 23.5q18 0 29 -13t11 -33q0 -27 -20 -50.5t-48 -23.5q-17 0 -27.5 13t-10.5 34z" />
<glyph unicode="&#xec;" horiz-adv-x="212" d="M84 -5q-49 0 -74 23t-25 60q0 36 16.5 93t16.5 72q0 9 -3 17.5t-3 14.5q0 16 33 26.5t78 10.5q34 0 34 -26q0 -17 -16 -75t-16 -94q0 -41 33 -41q17 0 38 21q10 10 17 10q14 0 14 -14q0 -13 -16 -32q-51 -66 -127 -66zM70 491q16 0 23 -19q23 -67 82 -102q15 -9 15 -19 q0 -14 -17 -14q-26 0 -63 14t-66 38q-23 19 -23 40q0 15 19 38.5t30 23.5z" />
<glyph unicode="&#xed;" horiz-adv-x="212" d="M84 -5q-49 0 -74 23t-25 60q0 36 16.5 93t16.5 72q0 9 -3 17.5t-3 14.5q0 16 33 26.5t78 10.5q34 0 34 -26q0 -17 -16 -75t-16 -94q0 -41 33 -41q17 0 38 21q10 10 17 10q14 0 14 -14q0 -13 -16 -32q-51 -66 -127 -66zM141 491q11 0 30 -23.5t19 -38.5q0 -21 -23 -40 q-29 -24 -66 -38t-63 -14q-17 0 -17 14q0 10 15 19q59 35 82 102q7 19 23 19z" />
<glyph unicode="&#xee;" horiz-adv-x="212" d="M84 -5q-49 0 -74 23t-25 60q0 36 16.5 93t16.5 72q0 9 -3 17.5t-3 14.5q0 16 33 26.5t78 10.5q34 0 34 -26q0 -17 -16 -75t-16 -94q0 -41 33 -41q17 0 38 21q10 10 17 10q14 0 14 -14q0 -13 -16 -32q-51 -66 -127 -66zM114 396q-100 -60 -113 -60q-16 0 -16 14 q0 12 15 23q37 28 77 71q2 2 8 9.5t8.5 9.5t8 6t11 5.5t12.5 1.5t12 -1.5t8 -3t6.5 -6t4.5 -6.5t4 -9.5t4 -9.5q5 -12 11.5 -23t11 -16t13 -15t11.5 -13t7 -6.5t5.5 -5.5t3 -4.5t1.5 -5.5q0 -15 -17 -15q-32 0 -97 60z" />
<glyph unicode="&#xef;" horiz-adv-x="212" d="M84 -5q-49 0 -74 23t-25 60q0 36 16.5 93t16.5 72q0 9 -3 17.5t-3 14.5q0 16 33 26.5t78 10.5q34 0 34 -26q0 -17 -16 -75t-16 -94q0 -41 33 -41q17 0 38 21q10 10 17 10q14 0 14 -14q0 -13 -16 -32q-51 -66 -127 -66zM-16 405q0 26 20 49.5t46 23.5q18 0 29 -13t11 -33 q0 -27 -20 -50.5t-48 -23.5q-17 0 -27.5 13t-10.5 34zM122 405q0 26 20 49.5t46 23.5q18 0 29 -13t11 -33q0 -27 -20 -50.5t-48 -23.5q-17 0 -27.5 13t-10.5 34z" />
<glyph unicode="&#xf0;" horiz-adv-x="356" d="M260 428l-57 -36q27 -41 77 -91q19 -19 32.5 -47.5t13.5 -54.5q0 -88 -52.5 -148t-141.5 -60q-66 0 -105.5 35.5t-39.5 95.5q0 65 43 119t117 69q-20 15 -31 26q-53 -33 -57 -33q-10 0 -16 13.5t-6 25.5q0 13 7 17l36 23q-12 26 -12 47q0 31 32 68t49 37q12 0 12 -14 q0 -38 14 -78q70 45 75 45t10 -8q8 -14 8 -31q0 -15 -8 -20zM256 209q0 26 -13 41.5t-34 15.5q-36 0 -62 -38.5t-26 -89.5q0 -34 15 -54t41 -20q36 0 57.5 41.5t21.5 103.5z" />
<glyph unicode="&#xf1;" horiz-adv-x="424" d="M296 -5q-42 0 -67 22t-25 55t16 78t16 62q0 28 -23 28q-31 0 -63 -61q-14 -30 -28.5 -80t-14.5 -78q0 -21 -22 -21q-17 0 -48 -2.5t-36 -2.5q-21 0 -21 22q0 16 21 106t21 120q0 9 -3.5 17.5t-3.5 14.5q0 16 33.5 26.5t78.5 10.5q34 0 34 -26q0 -17 -4 -29l-4 -16 q20 23 58.5 47t77.5 24q77 0 77 -63q0 -24 -14 -71t-14 -66q0 -36 32 -36q17 0 38 21q10 10 17 10q14 0 14 -14q0 -13 -16 -32q-51 -66 -127 -66zM257 333q-23 0 -64 17.5t-63 17.5q-14 0 -34.5 -9.5t-23.5 -9.5q-12 0 -12 12q0 8 10 22q13 20 37 37.5t47 17.5 q22 0 58.5 -18t60.5 -18q18 0 40 11t25 11q13 0 13 -10q0 -8 -6 -18q-14 -19 -24.5 -30.5t-28 -22t-35.5 -10.5z" />
<glyph unicode="&#xf2;" horiz-adv-x="354" d="M199 316q57 0 91 -32.5t34 -84.5q0 -88 -52.5 -148t-141.5 -60q-66 0 -105.5 35.5t-39.5 95.5q0 78 58 136t156 58zM250 140q0 29 -20 38q-23 9 -31.5 18t-8.5 23q0 15 7.5 26.5t7.5 12.5q0 8 -9 8t-28 -14q-49 -39 -49 -114q0 -34 18 -54t47 -20q28 0 47 24t19 52z M141 491q16 0 23 -19q23 -67 82 -102q15 -9 15 -19q0 -14 -17 -14q-26 0 -63 14t-66 38q-23 19 -23 40q0 15 19 38.5t30 23.5z" />
<glyph unicode="&#xf3;" horiz-adv-x="354" d="M199 316q57 0 91 -32.5t34 -84.5q0 -88 -52.5 -148t-141.5 -60q-66 0 -105.5 35.5t-39.5 95.5q0 78 58 136t156 58zM250 140q0 29 -20 38q-23 9 -31.5 18t-8.5 23q0 15 7.5 26.5t7.5 12.5q0 8 -9 8t-28 -14q-49 -39 -49 -114q0 -34 18 -54t47 -20q28 0 47 24t19 52z M239 489q11 0 30 -23.5t19 -38.5q0 -21 -23 -40q-29 -24 -66 -38t-63 -14q-17 0 -17 14q0 10 15 19q59 35 82 102q7 19 23 19z" />
<glyph unicode="&#xf4;" horiz-adv-x="354" d="M199 316q57 0 91 -32.5t34 -84.5q0 -88 -52.5 -148t-141.5 -60q-66 0 -105.5 35.5t-39.5 95.5q0 78 58 136t156 58zM250 140q0 29 -20 38q-23 9 -31.5 18t-8.5 23q0 15 7.5 26.5t7.5 12.5q0 8 -9 8t-28 -14q-49 -39 -49 -114q0 -34 18 -54t47 -20q28 0 47 24t19 52z M202 390q-100 -60 -113 -60q-16 0 -16 14q0 12 15 23q37 28 77 71q2 2 8 9.5t8.5 9.5t8 6t11 5.5t12.5 1.5t12 -1.5t8 -3t6.5 -6t4.5 -6.5t4 -9.5t4 -9.5q5 -12 11.5 -23t11 -16t13 -15t11.5 -13t7 -6.5t5.5 -5.5t3 -4.5t1.5 -5.5q0 -15 -17 -15q-32 0 -97 60z" />
<glyph unicode="&#xf5;" horiz-adv-x="354" d="M199 316q57 0 91 -32.5t34 -84.5q0 -88 -52.5 -148t-141.5 -60q-66 0 -105.5 35.5t-39.5 95.5q0 78 58 136t156 58zM250 140q0 29 -20 38q-23 9 -31.5 18t-8.5 23q0 15 7.5 26.5t7.5 12.5q0 8 -9 8t-28 -14q-49 -39 -49 -114q0 -34 18 -54t47 -20q28 0 47 24t19 52z M246 339q-23 0 -64 17.5t-63 17.5q-14 0 -34.5 -9.5t-23.5 -9.5q-12 0 -12 12q0 8 10 22q13 20 37 37.5t47 17.5q22 0 58.5 -18t60.5 -18q18 0 40 11t25 11q13 0 13 -10q0 -8 -6 -18q-14 -19 -24.5 -30.5t-28 -22t-35.5 -10.5z" />
<glyph unicode="&#xf6;" horiz-adv-x="354" d="M199 316q57 0 91 -32.5t34 -84.5q0 -88 -52.5 -148t-141.5 -60q-66 0 -105.5 35.5t-39.5 95.5q0 78 58 136t156 58zM250 140q0 29 -20 38q-23 9 -31.5 18t-8.5 23q0 15 7.5 26.5t7.5 12.5q0 8 -9 8t-28 -14q-49 -39 -49 -114q0 -34 18 -54t47 -20q28 0 47 24t19 52z M76 389q0 26 20 49.5t46 23.5q18 0 29 -13t11 -33q0 -27 -20 -50.5t-48 -23.5q-17 0 -27.5 13t-10.5 34zM214 389q0 26 20 49.5t46 23.5q18 0 29 -13t11 -33q0 -27 -20 -50.5t-48 -23.5q-17 0 -27.5 13t-10.5 34z" />
<glyph unicode="&#xf7;" horiz-adv-x="455" d="M167 138q0 26 20 49.5t46 23.5q18 0 29 -13t11 -33q0 -27 -20 -50.5t-48 -23.5q-17 0 -27.5 13t-10.5 34zM189 392q0 26 20 49.5t46 23.5q18 0 29 -13t11 -33q0 -27 -20 -50.5t-48 -23.5q-17 0 -27.5 13t-10.5 34zM401 243h-365q-15 0 -15 16q0 13 10.5 34.5t21.5 21.5 h365q11 0 14.5 -3t3.5 -11q0 -12 -12 -35t-23 -23z" />
<glyph unicode="&#xf8;" horiz-adv-x="354" d="M308 335q0 -14 -9 -36l-8 -18q33 -31 33 -82q0 -78 -42 -135.5t-115 -69.5l-3 -6q-4 -14 -22 -14h-32q-34 0 -34 16q0 7 1 8q-43 12 -67.5 44.5t-24.5 79.5q0 78 58 136t156 58q1 0 4.5 -0.5t5.5 -0.5q6 16 10 24q6 15 22 15q27 0 47 -5.5t20 -13.5zM119 138q0 -22 4 -31 q9 22 31 74.5t34 82.5q-9 -3 -20 -12q-49 -39 -49 -114zM250 140q0 17 -7 27l-44 -101q22 6 36.5 28t14.5 46z" />
<glyph unicode="&#xf9;" horiz-adv-x="430" d="M303 -5q-50 0 -74 30q-11 14 -14 31q-21 -19 -42 -31q-54 -30 -109 -30q-37 0 -58 22.5t-21 54.5q0 34 17 95t17 76q0 9 -3.5 17.5t-3.5 14.5q0 16 33.5 26.5t78.5 10.5q34 0 34 -26q0 -19 -18.5 -83t-18.5 -103q0 -25 24 -25q38 0 60 41q35 59 35 127q0 9 -3.5 17.5 t-3.5 14.5q0 16 33.5 26.5t78.5 10.5q34 0 34 -26q0 -18 -17.5 -79t-17.5 -90q0 -41 32 -41q17 0 38 21q10 10 17 10q14 0 14 -14q0 -13 -16 -32q-51 -66 -126 -66zM133 489q16 0 23 -19q23 -67 82 -102q15 -9 15 -19q0 -14 -17 -14q-26 0 -63 14t-66 38q-23 19 -23 40 q0 15 19 38.5t30 23.5z" />
<glyph unicode="&#xfa;" horiz-adv-x="430" d="M303 -5q-50 0 -74 30q-11 14 -14 31q-21 -19 -42 -31q-54 -30 -109 -30q-37 0 -58 22.5t-21 54.5q0 34 17 95t17 76q0 9 -3.5 17.5t-3.5 14.5q0 16 33.5 26.5t78.5 10.5q34 0 34 -26q0 -19 -18.5 -83t-18.5 -103q0 -25 24 -25q38 0 60 41q35 59 35 127q0 9 -3.5 17.5 t-3.5 14.5q0 16 33.5 26.5t78.5 10.5q34 0 34 -26q0 -18 -17.5 -79t-17.5 -90q0 -41 32 -41q17 0 38 21q10 10 17 10q14 0 14 -14q0 -13 -16 -32q-51 -66 -126 -66zM288 487q11 0 30 -23.5t19 -38.5q0 -21 -23 -40q-29 -24 -66 -38t-63 -14q-17 0 -17 14q0 10 15 19 q59 35 82 102q7 19 23 19z" />
<glyph unicode="&#xfb;" horiz-adv-x="430" d="M303 -5q-50 0 -74 30q-11 14 -14 31q-21 -19 -42 -31q-54 -30 -109 -30q-37 0 -58 22.5t-21 54.5q0 34 17 95t17 76q0 9 -3.5 17.5t-3.5 14.5q0 16 33.5 26.5t78.5 10.5q34 0 34 -26q0 -19 -18.5 -83t-18.5 -103q0 -25 24 -25q38 0 60 41q35 59 35 127q0 9 -3.5 17.5 t-3.5 14.5q0 16 33.5 26.5t78.5 10.5q34 0 34 -26q0 -18 -17.5 -79t-17.5 -90q0 -41 32 -41q17 0 38 21q10 10 17 10q14 0 14 -14q0 -13 -16 -32q-51 -66 -126 -66zM204 398q-100 -60 -113 -60q-16 0 -16 14q0 13 15 23q37 28 77 71q2 2 8 9.5t8.5 9.5t8 6t11 5.5t12.5 1.5 t12 -1.5t8 -3t6.5 -6t4.5 -6.5t4 -9.5t4 -9.5q5 -12 11.5 -23t11 -16t13 -15t11.5 -13t7 -6.5t5.5 -5.5t3 -4.5t1.5 -5.5q0 -15 -17 -15q-32 0 -97 60z" />
<glyph unicode="&#xfc;" horiz-adv-x="430" d="M303 -5q-50 0 -74 30q-11 14 -14 31q-21 -19 -42 -31q-54 -30 -109 -30q-37 0 -58 22.5t-21 54.5q0 34 17 95t17 76q0 9 -3.5 17.5t-3.5 14.5q0 16 33.5 26.5t78.5 10.5q34 0 34 -26q0 -19 -18.5 -83t-18.5 -103q0 -25 24 -25q38 0 60 41q35 59 35 127q0 9 -3.5 17.5 t-3.5 14.5q0 16 33.5 26.5t78.5 10.5q34 0 34 -26q0 -18 -17.5 -79t-17.5 -90q0 -41 32 -41q17 0 38 21q10 10 17 10q14 0 14 -14q0 -13 -16 -32q-51 -66 -126 -66zM91 389q0 26 20 49.5t46 23.5q18 0 29 -13t11 -33q0 -27 -20 -50.5t-48 -23.5q-17 0 -27.5 13t-10.5 34z M229 389q0 26 20 49.5t46 23.5q18 0 29 -13t11 -33q0 -27 -20 -50.5t-48 -23.5q-17 0 -27.5 13t-10.5 34z" />
<glyph unicode="&#xfd;" horiz-adv-x="409" d="M30 243q0 9 -3.5 17.5t-3.5 14.5q0 16 33.5 26.5t77.5 10.5q34 0 34 -26q0 -20 -17.5 -83.5t-17.5 -96.5q0 -13 7 -22t19 -9q36 0 63 42q29 46 29 126q0 9 -3.5 17.5t-3.5 14.5q0 16 33.5 26.5t77.5 10.5q34 0 34 -26q0 -8 -2.5 -19.5t-6.5 -27.5t-12.5 -57t-17.5 -96 q-7 -45 -11.5 -70t-15 -70t-21 -72.5t-29 -61.5t-40.5 -53.5t-53.5 -33t-68.5 -13.5q-57 0 -96.5 30.5t-39.5 81.5q0 53 31 83t56 30q11 0 11 -9q0 -4 -4.5 -14t-4.5 -23q0 -22 15.5 -34.5t41.5 -12.5q22 0 39.5 13t28.5 32t20.5 50t14.5 55.5t11 60.5q-60 -60 -152 -60 q-38 0 -62 22t-24 55q0 37 16.5 97t16.5 74zM301 499q11 0 30 -23.5t19 -38.5q0 -21 -23 -40q-29 -24 -66 -38t-63 -14q-17 0 -17 14q0 10 15 19q59 35 82 102q7 19 23 19z" />
<glyph unicode="&#xfe;" horiz-adv-x="404" d="M149 258q54 54 118 54q48 0 75.5 -29.5t27.5 -80.5q0 -74 -52.5 -140.5t-137.5 -66.5q-50 0 -77 27q-18 -70 -18 -139q0 -24 14 -40.5t32 -16.5q14 0 14 -12q0 -15 -33.5 -34.5t-78.5 -19.5q-39 0 -61 21t-22 57q0 72 57 320t57 305q0 49 -39 49q-14 0 -14 12 q0 17 34.5 35.5t75.5 18.5q40 0 62.5 -20t22.5 -58q0 -40 -57 -242zM125 75q0 -29 32 -29q37 0 58.5 57t21.5 109q0 41 -32 41q-31 0 -51 -47q-10 -21 -19.5 -61t-9.5 -70z" />
<glyph unicode="&#xff;" horiz-adv-x="409" d="M30 243q0 9 -3.5 17.5t-3.5 14.5q0 16 33.5 26.5t77.5 10.5q34 0 34 -26q0 -20 -17.5 -83.5t-17.5 -96.5q0 -13 7 -22t19 -9q36 0 63 42q29 46 29 126q0 9 -3.5 17.5t-3.5 14.5q0 16 33.5 26.5t77.5 10.5q34 0 34 -26q0 -8 -2.5 -19.5t-6.5 -27.5t-12.5 -57t-17.5 -96 q-7 -45 -11.5 -70t-15 -70t-21 -72.5t-29 -61.5t-40.5 -53.5t-53.5 -33t-68.5 -13.5q-57 0 -96.5 30.5t-39.5 81.5q0 53 31 83t56 30q11 0 11 -9q0 -4 -4.5 -14t-4.5 -23q0 -22 15.5 -34.5t41.5 -12.5q22 0 39.5 13t28.5 32t20.5 50t14.5 55.5t11 60.5q-60 -60 -152 -60 q-38 0 -62 22t-24 55q0 37 16.5 97t16.5 74zM104 387q0 26 20 49.5t46 23.5q18 0 29 -13t11 -33q0 -27 -20 -50.5t-48 -23.5q-17 0 -27.5 13t-10.5 34zM242 387q0 26 20 49.5t46 23.5q18 0 29 -13t11 -33q0 -27 -20 -50.5t-48 -23.5q-17 0 -27.5 13t-10.5 34z" />
<glyph unicode="&#x102;" horiz-adv-x="721" d="M668 76q17 0 38 21q10 10 17 10q14 0 14 -14q0 -13 -16 -32q-51 -66 -127 -66q-97 0 -97 111q0 68 24 185q-37 0 -60 -16.5t-43 -53.5q-20 -38 -27.5 -51.5t-27 -45.5t-31 -45t-33 -34.5t-41 -30.5t-46 -16.5t-55.5 -7.5q-68 0 -112.5 39t-44.5 101q0 63 49 100t90 37 q14 0 14 -13q0 -5 -9 -20.5t-9 -28.5q0 -52 58 -52q22 0 43.5 13.5t46.5 46t36.5 50t38.5 61.5q12 20 41 68t44.5 73t40 57.5t46.5 52.5q-64 20 -130 20q-41 0 -69 -22t-28 -51q0 -44 42 -44q9 0 18.5 5t11.5 5q11 0 11 -11q0 -32 -35 -66.5t-83 -34.5t-81 32.5t-33 83.5 q0 78 64 124.5t153 46.5q61 0 129.5 -13.5t86.5 -13.5q37 0 68.5 4t50 8t23.5 4q18 0 18 -17q0 -5 -4.5 -14.5t-15 -34.5t-20.5 -59q-23 -73 -47.5 -199t-24.5 -196q0 -56 33 -56zM473 354h65q21 99 75 204q-40 -32 -79 -93.5t-61 -110.5zM606 676q-41 0 -73 26t-32 64 q0 17 12.5 29.5t28.5 12.5q29 0 29 -26q0 -8 -4 -16t-4 -15q0 -12 13.5 -19.5t35.5 -7.5q58 0 58 42t33 42q16 0 25 -8t9 -21q0 -25 -17 -51q-37 -52 -114 -52z" />
<glyph unicode="&#x103;" horiz-adv-x="423" d="M227 239q0 29 -30 29q-26 0 -45.5 -29.5t-28 -64.5t-8.5 -66q0 -47 34 -47q32 0 52 47q9 21 17.5 62t8.5 69zM422 61q-51 -66 -127 -66q-37 0 -61 26q-11 11 -16 27q-16 -16 -36 -27q-46 -26 -90 -26q-47 0 -77 30.5t-30 86.5q0 82 51.5 141t151.5 59q32 0 56.5 -9.5 t27.5 -9.5q7 0 39 9.5t44 9.5q15 0 15 -15q0 -5 -17.5 -69.5t-17.5 -110.5q0 -20 9.5 -30.5t24.5 -10.5q17 0 38 21q10 10 17 10q14 0 14 -14q0 -13 -16 -32zM198 343q-41 0 -73 26t-32 64q0 17 12.5 29.5t28.5 12.5q29 0 29 -26q0 -8 -4 -16t-4 -15q0 -12 13.5 -19.5 t35.5 -7.5q58 0 58 42t33 42q16 0 25 -8t9 -21q0 -25 -17 -51q-37 -52 -114 -52z" />
<glyph unicode="&#x104;" horiz-adv-x="721" d="M668 76q17 0 38 21q10 10 17 10q14 0 14 -14q0 -13 -16 -32q-51 -66 -127 -66q-11 0 -13 1q-44 -28 -44 -58q0 -18 23.5 -30t59.5 -12q16 0 16 -10t-14 -24q-35 -37 -71 -37q-29 0 -59.5 26t-30.5 57q0 62 78 101q-42 28 -42 97q0 68 24 185q-37 0 -60 -16.5t-43 -53.5 q-20 -38 -27.5 -51.5t-27 -45.5t-31 -45t-33 -34.5t-41 -30.5t-46 -16.5t-55.5 -7.5q-68 0 -112.5 39t-44.5 101q0 63 49 100t90 37q14 0 14 -13q0 -5 -9 -20.5t-9 -28.5q0 -52 58 -52q22 0 43.5 13.5t46.5 46t36.5 50t38.5 61.5q12 20 41 68t44.5 73t40 57.5t46.5 52.5 q-64 20 -130 20q-41 0 -69 -22t-28 -51q0 -44 42 -44q9 0 18.5 5t11.5 5q11 0 11 -11q0 -32 -35 -66.5t-83 -34.5t-81 32.5t-33 83.5q0 78 64 124.5t153 46.5q61 0 129.5 -13.5t86.5 -13.5q37 0 68.5 4t50 8t23.5 4q18 0 18 -17q0 -5 -4.5 -14.5t-15 -34.5t-20.5 -59 q-23 -73 -47.5 -199t-24.5 -196q0 -56 33 -56zM473 354h65q21 99 75 204q-40 -32 -79 -93.5t-61 -110.5z" />
<glyph unicode="&#x105;" horiz-adv-x="423" d="M422 61q-50 -63 -119 -66q-44 -28 -44 -57q0 -18 23.5 -30t59.5 -12q16 0 16 -10t-14 -24q-35 -37 -71 -37q-29 0 -59.5 26t-30.5 57q0 58 71 97q-21 11 -29 27q-5 8 -7 16q-16 -16 -36 -27q-46 -26 -90 -26q-47 0 -77 30.5t-30 86.5q0 82 51.5 141t151.5 59 q32 0 56.5 -9.5t27.5 -9.5q7 0 39 9.5t44 9.5q15 0 15 -15q0 -5 -17.5 -69.5t-17.5 -110.5q0 -20 9.5 -30.5t24.5 -10.5q17 0 38 21q10 10 17 10q14 0 14 -14q0 -13 -16 -32zM227 239q0 29 -30 29q-26 0 -45.5 -29.5t-28 -64.5t-8.5 -66q0 -47 34 -47q32 0 52 47 q9 21 17.5 62t8.5 69z" />
<glyph unicode="&#x106;" horiz-adv-x="477" d="M341 663q60 0 98 -33t38 -93q0 -42 -19 -69.5t-48 -27.5q-21 0 -35 12.5t-14 32.5q0 25 22.5 45t22.5 41q0 17 -13 26.5t-32 9.5q-77 0 -136 -109t-59 -253q0 -68 36 -104t93 -36q24 0 50 14t34.5 22t28.5 28q15 17 23 17q13 0 13 -11q0 -12 -10 -31q-22 -50 -85 -103.5 t-142 -53.5q-97 0 -152 56t-55 175q0 90 30.5 174t78.5 142.5t109.5 93.5t122.5 35zM384 844q11 0 30 -23.5t19 -38.5q0 -21 -23 -40q-29 -24 -66 -38t-63 -14q-17 0 -17 14q0 10 15 19q59 35 82 102q7 19 23 19z" />
<glyph unicode="&#x107;" horiz-adv-x="329" d="M205 59q47 0 105 51q14 12 21 12q12 0 12 -12t-21 -34q-24 -24 -41 -38t-55 -30t-81 -16q-71 0 -115.5 35.5t-44.5 97.5q0 80 57.5 134.5t151.5 54.5q104 0 104 -70q0 -30 -16.5 -47t-42.5 -17q-17 0 -28.5 9t-11.5 24q0 13 8 26t8 17q0 13 -18 13q-24 0 -48 -37t-24 -87 q0 -43 22.5 -64.5t57.5 -21.5zM238 493q11 0 30 -23.5t19 -38.5q0 -21 -23 -40q-29 -24 -66 -38t-63 -14q-17 0 -17 14q0 10 15 19q59 35 82 102q7 19 23 19z" />
<glyph unicode="&#x10c;" horiz-adv-x="477" d="M341 663q60 0 98 -33t38 -93q0 -42 -19 -69.5t-48 -27.5q-21 0 -35 12.5t-14 32.5q0 25 22.5 45t22.5 41q0 17 -13 26.5t-32 9.5q-77 0 -136 -109t-59 -253q0 -68 36 -104t93 -36q24 0 50 14t34.5 22t28.5 28q15 17 23 17q13 0 13 -11q0 -12 -10 -31q-22 -50 -85 -103.5 t-142 -53.5q-97 0 -152 56t-55 175q0 90 30.5 174t78.5 142.5t109.5 93.5t122.5 35zM334 692q-14 0 -34 18.5t-35 42.5q-23 31 -23 47q0 14 11 14q7 0 25 -15q17 -15 41.5 -25.5t34.5 -10.5q21 0 61 38q19 17 29 17q12 0 12 -11q0 -15 -46 -63q-48 -52 -76 -52z" />
<glyph unicode="&#x10d;" horiz-adv-x="329" d="M205 59q47 0 105 51q14 12 21 12q12 0 12 -12t-21 -34q-24 -24 -41 -38t-55 -30t-81 -16q-71 0 -115.5 35.5t-44.5 97.5q0 80 57.5 134.5t151.5 54.5q104 0 104 -70q0 -30 -16.5 -47t-42.5 -17q-17 0 -28.5 9t-11.5 24q0 13 8 26t8 17q0 13 -18 13q-24 0 -48 -37t-24 -87 q0 -43 22.5 -64.5t57.5 -21.5zM184 342q-14 0 -34 18.5t-35 42.5q-23 31 -23 47q0 14 11 14q7 0 25 -15q17 -15 41.5 -25.5t34.5 -10.5q21 0 61 38q19 17 29 17q12 0 12 -11q0 -15 -46 -63q-48 -52 -76 -52z" />
<glyph unicode="&#x10e;" horiz-adv-x="748" d="M582 439q0 152 -87 167q-24 -30 -45 -108q-24 -79 -50.5 -228.5t-26.5 -177.5q0 -39 41 -39q44 0 79 42.5t57 114.5q32 105 32 229zM218 76q8 23 43.5 199t48.5 228q7 31 20.5 54t24 32t28.5 22q-93 -6 -159.5 -61.5t-66.5 -110.5q0 -47 41 -47q8 0 20 3.5t14 3.5 q10 0 10 -11q0 -27 -41 -64.5t-94 -37.5q-49 0 -78 28.5t-29 81.5q0 76 62.5 138t161 95.5t209.5 33.5q62 0 114 -14t93.5 -43t64.5 -80t23 -119q0 -125 -34 -212q-39 -98 -104.5 -149t-145.5 -51q-40 0 -89.5 18t-51.5 18q-11 0 -49.5 -18t-52.5 -18q-16 0 -16 13 q0 5 4 11.5t12.5 21t16.5 35.5zM455 700q-14 0 -34 18.5t-35 42.5q-23 31 -23 47q0 14 11 14q7 0 25 -15q17 -15 41.5 -25.5t34.5 -10.5q21 0 61 38q19 17 29 17q12 0 12 -11q0 -15 -46 -63q-48 -52 -76 -52z" />
<glyph unicode="&#x10f;" horiz-adv-x="607" d="M369 76q17 0 38 21q10 10 17 10q14 0 14 -14q0 -13 -16 -32q-51 -66 -127 -66q-39 0 -62 25q-11 9 -16 25q-22 -18 -35 -25q-44 -25 -89 -25q-108 0 -108 116q0 86 53.5 143.5t136.5 57.5q51 0 73 -17q29 116 29 168q0 24 -10.5 36.5t-27.5 12.5q-15 0 -15 12 q0 17 34.5 35.5t75.5 18.5q40 0 62.5 -20t22.5 -58q0 -40 -42 -179.5t-42 -203.5q0 -20 9.5 -30.5t24.5 -10.5zM227 239q0 29 -32 29q-26 0 -45 -31.5t-26.5 -68t-7.5 -67.5q0 -41 32 -41t52 48q9 21 18 61.5t9 69.5zM444 526q0 24 14.5 38.5t38.5 14.5q53 0 53 -54 q0 -48 -45.5 -98t-66.5 -50q-15 0 -15 13q0 5 16 32.5t16 56.5q0 9 -5.5 22.5t-5.5 24.5z" />
<glyph unicode="&#x110;" horiz-adv-x="748" d="M218 76q5 14 44 197h-54q-15 0 -15 16q0 15 13 39q-44 -42 -99 -42q-49 0 -78 28.5t-29 81.5q0 76 62.5 138t161 95.5t209.5 33.5q62 0 114 -14t93.5 -43t64.5 -80t23 -119q0 -125 -34 -212q-39 -98 -104.5 -149t-145.5 -51q-40 0 -89.5 18t-51.5 18q-11 0 -49.5 -18 t-52.5 -18q-16 0 -16 13q0 5 4 11.5t12.5 21t16.5 35.5zM582 439q0 152 -87 167q-24 -30 -45 -108q-13 -42 -36 -153h47q11 0 14.5 -3t3.5 -11q0 -12 -12 -35t-23 -23h-43q-28 -154 -28 -181q0 -39 41 -39q44 0 79 42.5t57 114.5q32 105 32 229zM225 345h51q24 124 34 158 q7 31 20.5 54t24 32t28.5 22q-93 -6 -159.5 -61.5t-66.5 -110.5q0 -47 41 -47q8 0 20 3.5t14 3.5q10 0 10 -11q0 -19 -22 -44q1 1 5 1z" />
<glyph unicode="&#x111;" horiz-adv-x="423" d="M435 346h-50q-50 -160 -50 -229q0 -20 9.5 -30.5t24.5 -10.5q17 0 38 21q10 10 17 10q14 0 14 -14q0 -13 -16 -32q-51 -66 -127 -66q-39 0 -62 25q-11 9 -16 25q-22 -18 -35 -25q-44 -25 -89 -25q-108 0 -108 116q0 86 53.5 143.5t136.5 57.5q51 0 73 -17l13 51h-54 q-15 0 -15 16q0 13 10.5 34.5t21.5 21.5h50q3 22 3 45q0 24 -10.5 36.5t-27.5 12.5q-15 0 -15 12q0 17 34.5 35.5t75.5 18.5q40 0 62.5 -20t22.5 -58q0 -28 -14 -82h47q11 0 14.5 -3t3.5 -11q0 -12 -12 -35t-23 -23zM227 239q0 29 -32 29q-26 0 -45 -31.5t-26.5 -68 t-7.5 -67.5q0 -41 32 -41t52 48q9 21 18 61.5t9 69.5z" />
<glyph unicode="&#x114;" horiz-adv-x="398" d="M157 216q0 -52 31.5 -81.5t81.5 -29.5q58 0 107 61q20 20 24 20q13 0 13 -11q0 -5 -8 -27q-10 -25 -24.5 -48.5t-39 -51t-63 -44.5t-83.5 -17q-83 0 -139.5 52.5t-56.5 131.5q0 147 148 213q-52 52 -52 114q0 67 60 116t138 49q66 0 102 -27.5t36 -78.5q0 -39 -18.5 -63 t-50.5 -24q-21 0 -35 12t-14 32q0 21 21 38.5t21 31.5q0 25 -34 25q-39 0 -65.5 -38t-26.5 -92q0 -28 10 -46q6 -10 11 -13l14 4q11 4 40 4q24 0 38.5 -12.5t14.5 -32.5q0 -25 -18 -40t-47 -15q-45 0 -81 21q-17 -12 -36 -51t-19 -82zM289 694q-41 0 -73 26t-32 64 q0 17 12.5 29.5t28.5 12.5q29 0 29 -26q0 -8 -4 -16t-4 -15q0 -12 13.5 -19.5t35.5 -7.5q58 0 58 42t33 42q16 0 25 -8t9 -21q0 -25 -17 -51q-37 -52 -114 -52z" />
<glyph unicode="&#x115;" horiz-adv-x="330" d="M128 163q39 8 66.5 36t27.5 49q0 23 -24 23t-47 -33t-23 -75zM203 59q49 0 108 51q13 12 21 12q12 0 12 -12q0 -13 -20 -34q-23 -24 -40.5 -38.5t-55.5 -30t-83 -15.5q-75 0 -117.5 34t-42.5 104q0 76 58 130t153 54q49 0 74 -19.5t25 -53.5q0 -44 -47 -79t-120 -41 q0 -27 20 -44.5t55 -17.5zM175 339q-41 0 -73 26t-32 64q0 17 12.5 29.5t28.5 12.5q29 0 29 -26q0 -8 -4 -16t-4 -15q0 -12 13.5 -19.5t35.5 -7.5q58 0 58 42t33 42q16 0 25 -8t9 -21q0 -25 -17 -51q-37 -52 -114 -52z" />
<glyph unicode="&#x118;" horiz-adv-x="398" d="M157 216q0 -52 31.5 -81.5t81.5 -29.5q58 0 107 61q20 20 24 20q13 0 13 -11q0 -5 -8 -27q-10 -25 -24.5 -48.5t-39 -51t-63 -44.5t-83.5 -17h-9q-47 -26 -47 -59q0 -18 23.5 -30t59.5 -12q16 0 16 -10t-14 -24q-35 -37 -71 -37q-29 0 -59.5 26t-30.5 57q0 59 71 98 q-61 18 -98 65t-37 110q0 147 148 213q-52 52 -52 114q0 67 60 116t138 49q66 0 102 -27.5t36 -78.5q0 -39 -18.5 -63t-50.5 -24q-21 0 -35 12t-14 32q0 21 21 38.5t21 31.5q0 25 -34 25q-39 0 -65.5 -38t-26.5 -92q0 -28 10 -46q6 -10 11 -13l14 4q11 4 40 4 q24 0 38.5 -12.5t14.5 -32.5q0 -25 -18 -40t-47 -15q-45 0 -81 21q-17 -12 -36 -51t-19 -82z" />
<glyph unicode="&#x119;" horiz-adv-x="330" d="M203 59q49 0 108 51q13 12 21 12q12 0 12 -12q0 -13 -20 -34q-74 -81 -170 -84q-49 -28 -49 -60q0 -18 23.5 -30t59.5 -12q16 0 16 -10t-14 -24q-35 -37 -71 -37q-29 0 -59.5 26t-30.5 57q0 55 66 95q-110 19 -110 133q0 76 58 130t153 54q49 0 74 -19.5t25 -53.5 q0 -44 -47 -79t-120 -41q0 -27 20 -44.5t55 -17.5zM128 163q39 8 66.5 36t27.5 49q0 23 -24 23t-47 -33t-23 -75z" />
<glyph unicode="&#x128;" horiz-adv-x="475" d="M463 589q-9 -21 -15 -68t-11 -100t-13 -114.5t-25.5 -117t-44.5 -101.5t-74 -73t-109 -27q-74 0 -122.5 42t-48.5 106q0 65 47.5 105t104.5 40q34 0 34 -13q0 -11 -13 -14q-19 -6 -33.5 -23.5t-14.5 -39.5q0 -26 17 -42.5t44 -16.5q44 0 72.5 41.5t41 102.5t20.5 123.5 t20 113t31 62.5q-143 -55 -143 -152q0 -36 24 -53q14 -12 15 -16q0 -15 -30 -15q-49 0 -91.5 31.5t-42.5 81.5q0 23 12 43.5t26.5 33.5t45 28t48.5 21.5t57.5 19.5t52.5 18q15 5 32 19.5t26 16.5q38 11 62 11q20 0 20 -15q0 -5 -22 -59zM462 688q-23 0 -64 17.5t-63 17.5 q-14 0 -34.5 -9.5t-23.5 -9.5q-12 0 -12 12q0 8 10 22q13 20 37 37.5t47 17.5q22 0 58.5 -18t60.5 -18q18 0 40 11t25 11q13 0 13 -10q0 -8 -6 -18q-14 -19 -24.5 -30.5t-28 -22t-35.5 -10.5z" />
<glyph unicode="&#x129;" horiz-adv-x="212" d="M84 -5q-49 0 -74 23t-25 60q0 36 16.5 93t16.5 72q0 9 -3 17.5t-3 14.5q0 16 33 26.5t78 10.5q34 0 34 -26q0 -17 -16 -75t-16 -94q0 -41 33 -41q17 0 38 21q10 10 17 10q14 0 14 -14q0 -13 -16 -32q-51 -66 -127 -66zM158 343q-23 0 -64 17.5t-63 17.5q-14 0 -34.5 -9.5 t-23.5 -9.5q-12 0 -12 12q0 8 10 22q13 20 37 37.5t47 17.5q22 0 58.5 -18t60.5 -18q18 0 40 11t25 11q13 0 13 -10q0 -8 -6 -18q-14 -19 -24.5 -30.5t-28 -22t-35.5 -10.5z" />
<glyph unicode="&#x12c;" horiz-adv-x="475" d="M463 589q-9 -21 -15 -68t-11 -100t-13 -114.5t-25.5 -117t-44.5 -101.5t-74 -73t-109 -27q-74 0 -122.5 42t-48.5 106q0 65 47.5 105t104.5 40q34 0 34 -13q0 -11 -13 -14q-19 -6 -33.5 -23.5t-14.5 -39.5q0 -26 17 -42.5t44 -16.5q44 0 72.5 41.5t41 102.5t20.5 123.5 t20 113t31 62.5q-143 -55 -143 -152q0 -36 24 -53q14 -12 15 -16q0 -15 -30 -15q-49 0 -91.5 31.5t-42.5 81.5q0 23 12 43.5t26.5 33.5t45 28t48.5 21.5t57.5 19.5t52.5 18q15 5 32 19.5t26 16.5q38 11 62 11q20 0 20 -15q0 -5 -22 -59zM421 692q-41 0 -73 26t-32 64 q0 17 12.5 29.5t28.5 12.5q29 0 29 -26q0 -8 -4 -16t-4 -15q0 -12 13.5 -19.5t35.5 -7.5q58 0 58 42t33 42q16 0 25 -8t9 -21q0 -25 -17 -51q-37 -52 -114 -52z" />
<glyph unicode="&#x12d;" horiz-adv-x="212" d="M84 -5q-49 0 -74 23t-25 60q0 36 16.5 93t16.5 72q0 9 -3 17.5t-3 14.5q0 16 33 26.5t78 10.5q34 0 34 -26q0 -17 -16 -75t-16 -94q0 -41 33 -41q17 0 38 21q10 10 17 10q14 0 14 -14q0 -13 -16 -32q-51 -66 -127 -66zM99 350q-41 0 -73 26t-32 64q0 17 12.5 29.5 t28.5 12.5q29 0 29 -26q0 -8 -4 -16t-4 -15q0 -12 13.5 -19.5t35.5 -7.5q58 0 58 42t33 42q16 0 25 -8t9 -21q0 -25 -17 -51q-37 -52 -114 -52z" />
<glyph unicode="&#x131;" horiz-adv-x="212" d="M84 -5q-49 0 -74 23t-25 60q0 36 16.5 93t16.5 72q0 9 -3 17.5t-3 14.5q0 16 33 26.5t78 10.5q34 0 34 -26q0 -17 -16 -75t-16 -94q0 -41 33 -41q17 0 38 21q10 10 17 10q14 0 14 -14q0 -13 -16 -32q-51 -66 -127 -66z" />
<glyph unicode="&#x139;" horiz-adv-x="720" d="M437 312q-18 -62 -39 -122q94 -57 154 -57q61 0 98 44q13 16 21 16q15 0 15 -18q0 -26 -16 -66t-53 -77t-83 -37q-32 0 -65 19t-53.5 39t-55.5 59q-67 -117 -188 -117q-73 0 -122.5 40.5t-49.5 103.5q0 67 45 109t110 42q67 0 141 -36q4 8 18 58q-62 10 -115 33.5 t-90.5 66.5t-37.5 97q0 57 34.5 92.5t91.5 35.5t89.5 -33t32.5 -64q0 -15 -14 -15q-3 0 -15 3.5t-19 3.5q-19 0 -33 -16t-14 -40q0 -37 28 -66.5t77 -44.5q37 155 82.5 226.5t129.5 71.5q54 0 86 -28.5t32 -79.5q0 -80 -64.5 -154t-157.5 -89zM547 555q-30 0 -53 -44.5 t-44 -147.5q59 15 95 64.5t36 93.5q0 15 -9.5 24.5t-24.5 9.5zM182 129q67 0 95 64q-49 35 -87 35q-24 0 -40.5 -14t-16.5 -36q0 -23 14 -36t35 -13zM596 842q11 0 30 -23.5t19 -38.5q0 -21 -23 -40q-29 -24 -66 -38t-63 -14q-17 0 -17 14q0 10 15 19q59 35 82 102 q7 19 23 19z" />
<glyph unicode="&#x13a;" horiz-adv-x="210" d="M83 -5q-49 0 -73.5 26t-24.5 68q0 38 38.5 163.5t38.5 210.5q0 49 -39 49q-14 0 -14 12q0 17 34.5 35.5t75.5 18.5q40 0 62.5 -20t22.5 -58q0 -41 -40 -187.5t-40 -195.5q0 -41 32 -41q17 0 38 21q10 10 17 10q14 0 14 -14q0 -13 -16 -32q-51 -66 -126 -66zM154 761 q11 0 30 -23.5t19 -38.5q0 -21 -23 -40q-29 -24 -66 -38t-63 -14q-17 0 -17 14q0 10 15 19q59 35 82 102q7 19 23 19z" />
<glyph unicode="&#x13d;" horiz-adv-x="720" d="M437 312q-18 -62 -39 -122q94 -57 154 -57q61 0 98 44q13 16 21 16q15 0 15 -18q0 -26 -16 -66t-53 -77t-83 -37q-32 0 -65 19t-53.5 39t-55.5 59q-67 -117 -188 -117q-73 0 -122.5 40.5t-49.5 103.5q0 67 45 109t110 42q67 0 141 -36q4 8 18 58q-62 10 -115 33.5 t-90.5 66.5t-37.5 97q0 57 34.5 92.5t91.5 35.5t89.5 -33t32.5 -64q0 -15 -14 -15q-3 0 -15 3.5t-19 3.5q-19 0 -33 -16t-14 -40q0 -37 28 -66.5t77 -44.5q37 155 82.5 226.5t129.5 71.5q54 0 86 -28.5t32 -79.5q0 -80 -64.5 -154t-157.5 -89zM547 555q-30 0 -53 -44.5 t-44 -147.5q59 15 95 64.5t36 93.5q0 15 -9.5 24.5t-24.5 9.5zM182 129q67 0 95 64q-49 35 -87 35q-24 0 -40.5 -14t-16.5 -36q0 -23 14 -36t35 -13zM684 605q0 24 14.5 38.5t38.5 14.5q53 0 53 -54q0 -48 -45.5 -98t-66.5 -50q-15 0 -15 13q0 5 16 32.5t16 56.5 q0 9 -5.5 22.5t-5.5 24.5z" />
<glyph unicode="&#x13e;" horiz-adv-x="384" d="M83 -5q-49 0 -73.5 26t-24.5 68q0 38 38.5 163.5t38.5 210.5q0 49 -39 49q-14 0 -14 12q0 17 34.5 35.5t75.5 18.5q40 0 62.5 -20t22.5 -58q0 -41 -40 -187.5t-40 -195.5q0 -41 32 -41q17 0 38 21q10 10 17 10q14 0 14 -14q0 -13 -16 -32q-51 -66 -126 -66zM231 526 q0 24 14.5 38.5t38.5 14.5q53 0 53 -54q0 -48 -45.5 -98t-66.5 -50q-15 0 -15 13q0 5 16 32.5t16 56.5q0 9 -5.5 22.5t-5.5 24.5z" />
<glyph unicode="&#x141;" horiz-adv-x="720" d="M473 286h-44q-17 -57 -31 -96q94 -57 154 -57q61 0 98 44q13 16 21 16q15 0 15 -18q0 -26 -16 -66t-53 -77t-83 -37q-32 0 -65 19t-53.5 39t-55.5 59q-67 -117 -188 -117q-73 0 -122.5 40.5t-49.5 103.5q0 67 45 109t110 42q67 0 141 -36q7 15 11 32h-42q-15 0 -15 16 q0 11 10 23.5t22 12.5h40q1 1 4 14q-44 7 -72 12.5t-66.5 18t-61 27.5t-39 40.5t-16.5 58.5q0 57 34.5 92.5t91.5 35.5t89.5 -33t32.5 -64q0 -15 -14 -15q-3 0 -15 3.5t-19 3.5q-19 0 -33 -16t-14 -40q0 -11 5 -20t10.5 -14.5t19 -11.5t22.5 -8.5t29.5 -8t30.5 -8.5 q30 126 77 192t123 66q54 0 86 -28.5t32 -79.5q0 -78 -57 -132.5t-153 -70.5l-4 -14h45q11 0 14.5 -3t3.5 -11q0 -11 -11.5 -24.5t-23.5 -13.5zM182 129q67 0 95 64q-49 35 -87 35q-24 0 -40.5 -14t-16.5 -36q0 -23 14 -36t35 -13zM547 555q-27 0 -49.5 -43.5t-35.5 -108.5 q61 15 90 46t29 72q0 15 -9.5 24.5t-24.5 9.5z" />
<glyph unicode="&#x142;" horiz-adv-x="210" d="M169 222l-30 -5q-15 -65 -15 -100q0 -41 32 -41q17 0 38 21q10 10 17 10q14 0 14 -14q0 -13 -16 -32q-51 -66 -126 -66q-49 0 -73.5 26t-24.5 68q0 33 20 104l-21 -3q-15 0 -15 16q0 11 10 28.5t22 17.5l24 4q37 119 37 207q0 49 -39 49q-14 0 -14 12q0 17 34.5 35.5 t75.5 18.5q40 0 62.5 -20t22.5 -58q0 -49 -50 -222l32 6q11 0 14.5 -3t3.5 -11q0 -11 -11.5 -29.5t-23.5 -18.5z" />
<glyph unicode="&#x143;" horiz-adv-x="722" d="M577 288q45 232 90 320q27 55 78 55q39 0 61 -17.5t22 -35.5q0 -15 -15 -15q-37 0 -59 -27q-38 -48 -88.5 -210.5t-67.5 -328.5q-2 -29 -26 -29h-99q-18 0 -19 22q-3 51 -4.5 177t-8.5 186h-5q-10 -46 -16 -70.5t-21 -76.5t-29 -83.5t-37.5 -73.5t-49 -65.5t-62 -41 t-77.5 -17.5q-65 0 -104.5 38t-39.5 93q0 50 40 89t73 39q14 0 14 -12q0 -5 -3.5 -17.5t-3.5 -25.5q0 -21 14.5 -36t43.5 -15q44 0 92.5 68t81 167.5t32.5 185.5q0 76 -60 76q-41 0 -77.5 -54t-36.5 -115q0 -23 11.5 -35.5t28.5 -12.5q7 0 18 4t14 4q10 0 10 -11 q0 -28 -38.5 -65t-88.5 -37q-46 0 -75.5 30.5t-29.5 83.5q0 80 47 142.5t111.5 92t129.5 29.5q101 0 146 -46t65 -137q11 -46 18 -192zM642 805q11 0 30 -23.5t19 -38.5q0 -21 -23 -40q-29 -24 -66 -38t-63 -14q-17 0 -17 14q0 10 15 19q59 35 82 102q7 19 23 19z" />
<glyph unicode="&#x144;" horiz-adv-x="424" d="M296 -5q-42 0 -67 22t-25 55t16 78t16 62q0 28 -23 28q-31 0 -63 -61q-14 -30 -28.5 -80t-14.5 -78q0 -21 -22 -21q-17 0 -48 -2.5t-36 -2.5q-21 0 -21 22q0 16 21 106t21 120q0 9 -3.5 17.5t-3.5 14.5q0 16 33.5 26.5t78.5 10.5q34 0 34 -26q0 -17 -4 -29l-4 -16 q20 23 58.5 47t77.5 24q77 0 77 -63q0 -24 -14 -71t-14 -66q0 -36 32 -36q17 0 38 21q10 10 17 10q14 0 14 -14q0 -13 -16 -32q-51 -66 -127 -66zM330 487q11 0 30 -23.5t19 -38.5q0 -21 -23 -40q-29 -24 -66 -38t-63 -14q-17 0 -17 14q0 10 15 19q59 35 82 102q7 19 23 19z " />
<glyph unicode="&#x147;" horiz-adv-x="722" d="M577 288q45 232 90 320q27 55 78 55q39 0 61 -17.5t22 -35.5q0 -15 -15 -15q-37 0 -59 -27q-38 -48 -88.5 -210.5t-67.5 -328.5q-2 -29 -26 -29h-99q-18 0 -19 22q-3 51 -4.5 177t-8.5 186h-5q-10 -46 -16 -70.5t-21 -76.5t-29 -83.5t-37.5 -73.5t-49 -65.5t-62 -41 t-77.5 -17.5q-65 0 -104.5 38t-39.5 93q0 50 40 89t73 39q14 0 14 -12q0 -5 -3.5 -17.5t-3.5 -25.5q0 -21 14.5 -36t43.5 -15q44 0 92.5 68t81 167.5t32.5 185.5q0 76 -60 76q-41 0 -77.5 -54t-36.5 -115q0 -23 11.5 -35.5t28.5 -12.5q7 0 18 4t14 4q10 0 10 -11 q0 -28 -38.5 -65t-88.5 -37q-46 0 -75.5 30.5t-29.5 83.5q0 80 47 142.5t111.5 92t129.5 29.5q101 0 146 -46t65 -137q11 -46 18 -192zM583 648q-14 0 -34 18.5t-35 42.5q-23 31 -23 47q0 14 11 14q7 0 25 -15q17 -15 41.5 -25.5t34.5 -10.5q21 0 61 38q19 17 29 17 q12 0 12 -11q0 -15 -46 -63q-48 -52 -76 -52z" />
<glyph unicode="&#x148;" horiz-adv-x="424" d="M296 -5q-42 0 -67 22t-25 55t16 78t16 62q0 28 -23 28q-31 0 -63 -61q-14 -30 -28.5 -80t-14.5 -78q0 -21 -22 -21q-17 0 -48 -2.5t-36 -2.5q-21 0 -21 22q0 16 21 106t21 120q0 9 -3.5 17.5t-3.5 14.5q0 16 33.5 26.5t78.5 10.5q34 0 34 -26q0 -17 -4 -29l-4 -16 q20 23 58.5 47t77.5 24q77 0 77 -63q0 -24 -14 -71t-14 -66q0 -36 32 -36q17 0 38 21q10 10 17 10q14 0 14 -14q0 -13 -16 -32q-51 -66 -127 -66zM276 341q-14 0 -34 18.5t-35 42.5q-23 31 -23 47q0 14 11 14q7 0 25 -15q17 -15 41.5 -25.5t34.5 -10.5q21 0 61 38 q19 17 29 17q12 0 12 -11q0 -15 -46 -63q-48 -52 -76 -52z" />
<glyph unicode="&#x14e;" horiz-adv-x="566" d="M174 247q0 -86 25.5 -129t66.5 -43q71 0 121.5 99.5t50.5 216.5q0 103 -77 103q-30 0 -57 -15q-14 -8 -19 -8q-9 0 -9 11q0 13 16 36.5t41 40.5q44 32 102 32q60 0 95 -39.5t35 -117.5q0 -108 -45 -211t-123.5 -168.5t-167.5 -65.5q-103 0 -166 62.5t-63 181.5 q0 87 24.5 160.5t64.5 122t91 83t102.5 49.5t100.5 15q91 0 91 -29q0 -10 -13 -10q-2 0 -17.5 1t-30.5 1q-101 0 -170 -101.5t-69 -277.5zM350 692q-41 0 -73 26t-32 64q0 17 12.5 29.5t28.5 12.5q29 0 29 -26q0 -8 -4 -16t-4 -15q0 -12 13.5 -19.5t35.5 -7.5q58 0 58 42 t33 42q16 0 25 -8t9 -21q0 -25 -17 -51q-37 -52 -114 -52z" />
<glyph unicode="&#x14f;" horiz-adv-x="354" d="M199 316q57 0 91 -32.5t34 -84.5q0 -88 -52.5 -148t-141.5 -60q-66 0 -105.5 35.5t-39.5 95.5q0 78 58 136t156 58zM250 140q0 29 -20 38q-23 9 -31.5 18t-8.5 23q0 15 7.5 26.5t7.5 12.5q0 8 -9 8t-28 -14q-49 -39 -49 -114q0 -34 18 -54t47 -20q28 0 47 24t19 52z M188 343q-41 0 -73 26t-32 64q0 17 12.5 29.5t28.5 12.5q29 0 29 -26q0 -8 -4 -16t-4 -15q0 -12 13.5 -19.5t35.5 -7.5q58 0 58 42t33 42q16 0 25 -8t9 -21q0 -25 -17 -51q-37 -52 -114 -52z" />
<glyph unicode="&#x150;" horiz-adv-x="566" d="M174 247q0 -86 25.5 -129t66.5 -43q71 0 121.5 99.5t50.5 216.5q0 103 -77 103q-30 0 -57 -15q-14 -8 -19 -8q-9 0 -9 11q0 13 16 36.5t41 40.5q44 32 102 32q60 0 95 -39.5t35 -117.5q0 -108 -45 -211t-123.5 -168.5t-167.5 -65.5q-103 0 -166 62.5t-63 181.5 q0 87 24.5 160.5t64.5 122t91 83t102.5 49.5t100.5 15q91 0 91 -29q0 -10 -13 -10q-2 0 -17.5 1t-30.5 1q-101 0 -170 -101.5t-69 -277.5zM356 842q11 0 30 -23.5t19 -38.5q0 -21 -23 -40q-29 -24 -66 -38t-63 -14q-17 0 -17 14q0 10 15 19q59 35 82 102q7 19 23 19z M516 842q11 0 30 -23.5t19 -38.5q0 -21 -23 -40q-29 -24 -66 -38t-63 -14q-17 0 -17 14q0 10 15 19q59 35 82 102q7 19 23 19z" />
<glyph unicode="&#x151;" horiz-adv-x="354" d="M199 316q57 0 91 -32.5t34 -84.5q0 -88 -52.5 -148t-141.5 -60q-66 0 -105.5 35.5t-39.5 95.5q0 78 58 136t156 58zM250 140q0 29 -20 38q-23 9 -31.5 18t-8.5 23q0 15 7.5 26.5t7.5 12.5q0 8 -9 8t-28 -14q-49 -39 -49 -114q0 -34 18 -54t47 -20q28 0 47 24t19 52z M133 491q11 0 30 -23.5t19 -38.5q0 -21 -23 -40q-29 -24 -66 -38t-63 -14q-17 0 -17 14q0 10 15 19q59 35 82 102q7 19 23 19zM293 491q11 0 30 -23.5t19 -38.5q0 -21 -23 -40q-29 -24 -66 -38t-63 -14q-17 0 -17 14q0 10 15 19q59 35 82 102q7 19 23 19z" />
<glyph unicode="&#x152;" horiz-adv-x="836" d="M567 216q0 -52 31.5 -81.5t81.5 -29.5q58 0 107 61q20 20 24 20q13 0 13 -11q0 -5 -8 -27q-10 -25 -24.5 -48.5t-39 -51t-63 -44.5t-83.5 -17q-59 0 -105.5 27t-70.5 73q-91 -98 -201 -98q-103 0 -166 62.5t-63 181.5q0 87 24.5 160.5t64.5 122t91 83t102.5 49.5 t100.5 15q91 0 91 -29q0 -10 -13 -10q-2 0 -17.5 1t-30.5 1q-101 0 -170 -101.5t-69 -277.5q0 -86 25.5 -129t66.5 -43q48 0 89 47t64 118.5t23 145.5q0 110 -77 110q-31 0 -61 -17q-14 -8 -19 -8q-9 0 -9 11q0 13 16 36.5t41 40.5q44 32 102 32q51 0 86 -32q24 46 74 75 t109 29q66 0 102 -27.5t36 -78.5q0 -39 -18.5 -63t-50.5 -24q-21 0 -35 12t-14 32q0 21 21 38.5t21 31.5q0 25 -34 25q-39 0 -65.5 -38t-26.5 -92q0 -28 10 -46q6 -10 11 -13l14 4q11 4 40 4q24 0 38.5 -12.5t14.5 -32.5q0 -25 -18 -40t-47 -15q-45 0 -81 21 q-17 -12 -36 -51t-19 -82z" />
<glyph unicode="&#x153;" horiz-adv-x="607" d="M476 59q56 0 112 51q14 12 21 12q12 0 12 -12q0 -13 -20 -34q-79 -84 -186 -84q-102 0 -142 59q-54 -60 -141 -60q-66 0 -105.5 35.5t-39.5 95.5q0 78 58 136t156 58q76 0 108 -56q59 54 154 54q49 0 74 -19.5t25 -53.5q0 -44 -47 -79t-120 -41q0 -27 22.5 -44.5 t58.5 -17.5zM252 137q0 32 -20 41q-23 9 -31.5 18t-8.5 23q0 15 7.5 26.5t7.5 12.5q0 8 -9 8t-28 -14q-49 -39 -49 -114q0 -34 18 -54t47 -20q28 0 47 22.5t19 50.5zM395 163q39 8 66.5 36t27.5 49q0 23 -24 23t-47 -33t-23 -75z" />
<glyph unicode="&#x154;" horiz-adv-x="712" d="M416 406l-16 -63q71 8 115 66.5t44 123.5q0 38 -17 59t-46 21q-25 -23 -45 -86q-6 -20 -18 -62t-17 -59zM464 663q106 0 169 -38t63 -113q0 -79 -62 -132.5t-141 -67.5q24 -11 42.5 -47t28.5 -72.5t30 -66t48 -29.5t53 25q10 10 17 10q11 0 11 -11q0 -14 -19 -42 q-57 -84 -147 -84q-50 0 -77.5 30.5t-34.5 74t-9.5 87.5t-12.5 74.5t-35 30.5q-4 -18 -21.5 -81t-28.5 -113t-11 -80q0 -12 -4.5 -16.5t-16.5 -4.5q-17 0 -59 -3t-48 -3q-19 0 -19 23q0 62 130 489q9 32 22.5 54.5t23 32t27.5 21.5q-93 -6 -159.5 -61.5t-66.5 -110.5 q0 -47 41 -47q8 0 20 3.5t14 3.5q10 0 10 -11q0 -27 -41 -64.5t-94 -37.5q-49 0 -78 28.5t-29 81.5q0 116 134.5 191.5t329.5 75.5zM563 854q11 0 30 -23.5t19 -38.5q0 -21 -23 -40q-29 -24 -66 -38t-63 -14q-17 0 -17 14q0 10 15 19q59 35 82 102q7 19 23 19z" />
<glyph unicode="&#x155;" horiz-adv-x="299" d="M148 177q-14 -26 -27.5 -77.5t-13.5 -78.5q0 -21 -22 -21q-17 0 -48 -2.5t-36 -2.5q-21 0 -21 22q0 16 21 106t21 120q0 9 -3.5 17.5t-3.5 14.5q0 16 33.5 26.5t78.5 10.5q34 0 34 -26q0 -11 -6 -41q5 16 28.5 39.5t59.5 23.5q46 0 46 -47q0 -30 -18 -54.5t-47 -24.5 q-20 0 -31 11.5t-11 26.5q-14 -6 -34 -43zM185 491q11 0 30 -23.5t19 -38.5q0 -21 -23 -40q-29 -24 -66 -38t-63 -14q-17 0 -17 14q0 10 15 19q59 35 82 102q7 19 23 19z" />
<glyph unicode="&#x158;" horiz-adv-x="712" d="M416 406l-16 -63q71 8 115 66.5t44 123.5q0 38 -17 59t-46 21q-25 -23 -45 -86q-6 -20 -18 -62t-17 -59zM464 663q106 0 169 -38t63 -113q0 -79 -62 -132.5t-141 -67.5q24 -11 42.5 -47t28.5 -72.5t30 -66t48 -29.5t53 25q10 10 17 10q11 0 11 -11q0 -14 -19 -42 q-57 -84 -147 -84q-50 0 -77.5 30.5t-34.5 74t-9.5 87.5t-12.5 74.5t-35 30.5q-4 -18 -21.5 -81t-28.5 -113t-11 -80q0 -12 -4.5 -16.5t-16.5 -4.5q-17 0 -59 -3t-48 -3q-19 0 -19 23q0 62 130 489q9 32 22.5 54.5t23 32t27.5 21.5q-93 -6 -159.5 -61.5t-66.5 -110.5 q0 -47 41 -47q8 0 20 3.5t14 3.5q10 0 10 -11q0 -27 -41 -64.5t-94 -37.5q-49 0 -78 28.5t-29 81.5q0 116 134.5 191.5t329.5 75.5zM503 692q-14 0 -34 18.5t-35 42.5q-23 31 -23 47q0 14 11 14q7 0 25 -15q17 -15 41.5 -25.5t34.5 -10.5q21 0 61 38q19 17 29 17 q12 0 12 -11q0 -15 -46 -63q-48 -52 -76 -52z" />
<glyph unicode="&#x159;" horiz-adv-x="299" d="M148 177q-14 -26 -27.5 -77.5t-13.5 -78.5q0 -21 -22 -21q-17 0 -48 -2.5t-36 -2.5q-21 0 -21 22q0 16 21 106t21 120q0 9 -3.5 17.5t-3.5 14.5q0 16 33.5 26.5t78.5 10.5q34 0 34 -26q0 -11 -6 -41q5 16 28.5 39.5t59.5 23.5q46 0 46 -47q0 -30 -18 -54.5t-47 -24.5 q-20 0 -31 11.5t-11 26.5q-14 -6 -34 -43zM168 340q-14 0 -34 18.5t-35 42.5q-23 31 -23 47q0 14 11 14q7 0 25 -15q17 -15 41.5 -25.5t34.5 -10.5q21 0 61 38q19 17 29 17q12 0 12 -11q0 -15 -46 -63q-48 -52 -76 -52z" />
<glyph unicode="&#x15a;" horiz-adv-x="507" d="M217 52q36 0 59.5 35.5t23.5 89.5q0 50 -20 97t-43.5 76.5t-43.5 68.5t-20 77q0 75 61 121t131 46q130 0 130 -109q0 -34 -19.5 -59t-49.5 -25q-21 0 -35 12t-14 32q0 18 17 38t17 33q0 27 -31 27q-27 0 -46.5 -21t-19.5 -53t14 -63.5t34 -58.5t40 -55.5t34 -65t14 -76.5 q0 -100 -72.5 -166.5t-180.5 -66.5q-83 0 -140 41.5t-57 112.5q0 63 54 99.5t115 36.5q44 0 44 -16q0 -10 -17 -21q-24 -15 -40 -43.5t-16 -61.5q0 -38 21.5 -60t55.5 -22zM443 848q11 0 30 -23.5t19 -38.5q0 -21 -23 -40q-29 -24 -66 -38t-63 -14q-17 0 -17 14q0 10 15 19 q59 35 82 102q7 19 23 19z" />
<glyph unicode="&#x15b;" horiz-adv-x="293" d="M21 131q43 0 43 -37q0 -42 27 -42q22 0 22 27q0 19 -15.5 36.5t-34 29t-34 32t-15.5 45.5q0 45 39.5 70t98.5 25q53 0 79.5 -18.5t26.5 -50.5q0 -22 -12 -36.5t-35 -14.5q-14 0 -25 10t-11 24q0 8 4 17t4 13q0 14 -19 14q-10 0 -19.5 -9.5t-9.5 -23.5q0 -20 17 -37 t38 -28t38 -31t17 -44q0 -49 -37.5 -79t-102.5 -30q-58 0 -94 23t-36 64q0 23 14 37t32 14zM182 491q11 0 30 -23.5t19 -38.5q0 -21 -23 -40q-29 -24 -66 -38t-63 -14q-17 0 -17 14q0 10 15 19q59 35 82 102q7 19 23 19z" />
<glyph unicode="&#x160;" horiz-adv-x="507" d="M217 52q36 0 59.5 35.5t23.5 89.5q0 50 -20 97t-43.5 76.5t-43.5 68.5t-20 77q0 75 61 121t131 46q130 0 130 -109q0 -34 -19.5 -59t-49.5 -25q-21 0 -35 12t-14 32q0 18 17 38t17 33q0 27 -31 27q-27 0 -46.5 -21t-19.5 -53t14 -63.5t34 -58.5t40 -55.5t34 -65t14 -76.5 q0 -100 -72.5 -166.5t-180.5 -66.5q-83 0 -140 41.5t-57 112.5q0 63 54 99.5t115 36.5q44 0 44 -16q0 -10 -17 -21q-24 -15 -40 -43.5t-16 -61.5q0 -38 21.5 -60t55.5 -22zM362 694q-14 0 -34 18.5t-35 42.5q-23 31 -23 47q0 14 11 14q7 0 25 -15q17 -15 41.5 -25.5 t34.5 -10.5q21 0 61 38q19 17 29 17q12 0 12 -11q0 -15 -46 -63q-48 -52 -76 -52z" />
<glyph unicode="&#x161;" horiz-adv-x="293" d="M21 131q43 0 43 -37q0 -42 27 -42q22 0 22 27q0 19 -15.5 36.5t-34 29t-34 32t-15.5 45.5q0 45 39.5 70t98.5 25q53 0 79.5 -18.5t26.5 -50.5q0 -22 -12 -36.5t-35 -14.5q-14 0 -25 10t-11 24q0 8 4 17t4 13q0 14 -19 14q-10 0 -19.5 -9.5t-9.5 -23.5q0 -20 17 -37 t38 -28t38 -31t17 -44q0 -49 -37.5 -79t-102.5 -30q-58 0 -94 23t-36 64q0 23 14 37t32 14zM155 341q-14 0 -34 18.5t-35 42.5q-23 31 -23 47q0 14 11 14q7 0 25 -15q17 -15 41.5 -25.5t34.5 -10.5q21 0 61 38q19 17 29 17q12 0 12 -11q0 -15 -46 -63q-48 -52 -76 -52z" />
<glyph unicode="&#x162;" horiz-adv-x="512" d="M592 663q0 -24 -16 -46q-37 -47 -94 -51q-17 -12 -27.5 -61t-16 -112t-22 -134.5t-41 -131t-77 -98.5t-127.5 -39q-74 0 -122.5 42t-48.5 106q0 69 46.5 106.5t105.5 37.5q34 0 34 -12q0 -11 -13 -14q-19 -6 -33.5 -23.5t-14.5 -39.5q0 -26 17 -42.5t44 -16.5q38 0 64 28 t39.5 74.5t22 95t19 103.5t22.5 85q15 38 45 55q-60 20 -111 20q-41 0 -69 -22t-28 -51q0 -44 42 -44q9 0 18.5 5t12.5 5q10 0 10 -11q0 -32 -35 -66.5t-83 -34.5t-81 32.5t-33 83.5q0 78 64 124.5t153 46.5q64 0 134 -11t87 -11q39 0 70 16t32 16q11 0 11 -10z" />
<glyph unicode="&#x163;" horiz-adv-x="235" d="M188 262q-34 0 -43 -32q-21 -76 -21 -113q0 -41 39 -41q16 0 42 21t32 21q13 0 13 -12q0 -25 -55 -68t-107 -43q-51 0 -77 27t-26 69q0 34 15.5 87t15.5 77q0 6 -13.5 9.5t-13.5 13.5t4.5 19.5t12.5 9.5q37 0 71 28t57 66q13 22 27 22q16 0 16 -16q0 -12 -7 -42t-7 -38 q0 -11 6 -15.5t28 -4.5q14 0 14 -11q0 -15 -7 -24.5t-16 -9.5zM40 -73q0 19 12.5 32t32.5 13q46 0 46 -46q0 -40 -39 -83t-57 -43q-12 0 -12 11q0 5 13.5 27.5t13.5 48.5q0 7 -5 18.5t-5 21.5z" />
<glyph unicode="&#x164;" horiz-adv-x="512" d="M592 663q0 -24 -16 -46q-37 -47 -94 -51q-17 -12 -27.5 -61t-16 -112t-22 -134.5t-41 -131t-77 -98.5t-127.5 -39q-74 0 -122.5 42t-48.5 106q0 69 46.5 106.5t105.5 37.5q34 0 34 -12q0 -11 -13 -14q-19 -6 -33.5 -23.5t-14.5 -39.5q0 -26 17 -42.5t44 -16.5q38 0 64 28 t39.5 74.5t22 95t19 103.5t22.5 85q15 38 45 55q-60 20 -111 20q-41 0 -69 -22t-28 -51q0 -44 42 -44q9 0 18.5 5t12.5 5q10 0 10 -11q0 -32 -35 -66.5t-83 -34.5t-81 32.5t-33 83.5q0 78 64 124.5t153 46.5q64 0 134 -11t87 -11q39 0 70 16t32 16q11 0 11 -10zM462 676 q-14 0 -34 18.5t-35 42.5q-23 31 -23 47q0 14 11 14q7 0 25 -15q17 -15 41.5 -25.5t34.5 -10.5q21 0 61 38q19 17 29 17q12 0 12 -11q0 -15 -46 -63q-48 -52 -76 -52z" />
<glyph unicode="&#x165;" horiz-adv-x="235" d="M188 262q-34 0 -43 -32q-21 -76 -21 -113q0 -41 39 -41q16 0 42 21t32 21q13 0 13 -12q0 -25 -55 -68t-107 -43q-51 0 -77 27t-26 69q0 34 15.5 87t15.5 77q0 6 -13.5 9.5t-13.5 13.5t4.5 19.5t12.5 9.5q37 0 71 28t57 66q13 22 27 22q16 0 16 -16q0 -12 -7 -42t-7 -38 q0 -11 6 -15.5t28 -4.5q14 0 14 -11q0 -15 -7 -24.5t-16 -9.5zM218 502q0 24 14.5 38.5t38.5 14.5q53 0 53 -54q0 -48 -45.5 -98t-66.5 -50q-15 0 -15 13q0 5 16 32.5t16 56.5q0 9 -5.5 22.5t-5.5 24.5z" />
<glyph unicode="&#x168;" horiz-adv-x="788" d="M702 132q0 -56 33 -56q17 0 38 21q10 10 17 10q14 0 14 -14q0 -13 -16 -32q-51 -66 -127 -66q-97 0 -97 111q0 4 1 20t1 18q-97 -154 -206 -154q-53 0 -87 34.5t-34 86.5q0 57 54 212.5t54 228.5q0 55 -44 55q-56 0 -104.5 -61.5t-48.5 -124.5q0 -23 11.5 -35.5 t28.5 -12.5q7 0 18 4t14 4q10 0 10 -11q0 -28 -38.5 -65t-88.5 -37q-46 0 -75.5 30.5t-29.5 83.5q0 121 101.5 201t224.5 80q74 0 116.5 -33.5t42.5 -97.5q0 -68 -40.5 -197t-40.5 -184q0 -46 41 -46q50 0 118 127q30 58 65 200.5t37 149.5q6 21 45.5 39t86.5 18 q19 0 19 -18q0 -5 -5 -14t-13 -24t-13 -28q-19 -68 -51 -218.5t-32 -204.5zM657 672q-23 0 -64 17.5t-63 17.5q-14 0 -34.5 -9.5t-23.5 -9.5q-12 0 -12 12q0 8 10 22q13 20 37 37.5t47 17.5q22 0 58.5 -18t60.5 -18q18 0 40 11t25 11q13 0 13 -10q0 -8 -6 -18 q-14 -19 -24.5 -30.5t-28 -22t-35.5 -10.5z" />
<glyph unicode="&#x169;" horiz-adv-x="430" d="M303 -5q-50 0 -74 30q-11 14 -14 31q-21 -19 -42 -31q-54 -30 -109 -30q-37 0 -58 22.5t-21 54.5q0 34 17 95t17 76q0 9 -3.5 17.5t-3.5 14.5q0 16 33.5 26.5t78.5 10.5q34 0 34 -26q0 -19 -18.5 -83t-18.5 -103q0 -25 24 -25q38 0 60 41q35 59 35 127q0 9 -3.5 17.5 t-3.5 14.5q0 16 33.5 26.5t78.5 10.5q34 0 34 -26q0 -18 -17.5 -79t-17.5 -90q0 -41 32 -41q17 0 38 21q10 10 17 10q14 0 14 -14q0 -13 -16 -32q-51 -66 -126 -66zM266 343q-23 0 -64 17.5t-63 17.5q-14 0 -34.5 -9.5t-23.5 -9.5q-12 0 -12 12q0 8 10 22q13 20 37 37.5 t47 17.5q22 0 58.5 -18t60.5 -18q18 0 40 11t25 11q13 0 13 -10q0 -8 -6 -18q-14 -19 -24.5 -30.5t-28 -22t-35.5 -10.5z" />
<glyph unicode="&#x16c;" horiz-adv-x="788" d="M702 132q0 -56 33 -56q17 0 38 21q10 10 17 10q14 0 14 -14q0 -13 -16 -32q-51 -66 -127 -66q-97 0 -97 111q0 4 1 20t1 18q-97 -154 -206 -154q-53 0 -87 34.5t-34 86.5q0 57 54 212.5t54 228.5q0 55 -44 55q-56 0 -104.5 -61.5t-48.5 -124.5q0 -23 11.5 -35.5 t28.5 -12.5q7 0 18 4t14 4q10 0 10 -11q0 -28 -38.5 -65t-88.5 -37q-46 0 -75.5 30.5t-29.5 83.5q0 121 101.5 201t224.5 80q74 0 116.5 -33.5t42.5 -97.5q0 -68 -40.5 -197t-40.5 -184q0 -46 41 -46q50 0 118 127q30 58 65 200.5t37 149.5q6 21 45.5 39t86.5 18 q19 0 19 -18q0 -5 -5 -14t-13 -24t-13 -28q-19 -68 -51 -218.5t-32 -204.5zM576 623q-41 0 -73 26t-32 64q0 17 12.5 29.5t28.5 12.5q29 0 29 -26q0 -8 -4 -16t-4 -15q0 -12 13.5 -19.5t35.5 -7.5q58 0 58 42t33 42q16 0 25 -8t9 -21q0 -25 -17 -51q-37 -52 -114 -52z" />
<glyph unicode="&#x16d;" horiz-adv-x="430" d="M303 -5q-50 0 -74 30q-11 14 -14 31q-21 -19 -42 -31q-54 -30 -109 -30q-37 0 -58 22.5t-21 54.5q0 34 17 95t17 76q0 9 -3.5 17.5t-3.5 14.5q0 16 33.5 26.5t78.5 10.5q34 0 34 -26q0 -19 -18.5 -83t-18.5 -103q0 -25 24 -25q38 0 60 41q35 59 35 127q0 9 -3.5 17.5 t-3.5 14.5q0 16 33.5 26.5t78.5 10.5q34 0 34 -26q0 -18 -17.5 -79t-17.5 -90q0 -41 32 -41q17 0 38 21q10 10 17 10q14 0 14 -14q0 -13 -16 -32q-51 -66 -126 -66zM202 343q-41 0 -73 26t-32 64q0 17 12.5 29.5t28.5 12.5q29 0 29 -26q0 -8 -4 -16t-4 -15q0 -12 13.5 -19.5 t35.5 -7.5q58 0 58 42t33 42q16 0 25 -8t9 -21q0 -25 -17 -51q-37 -52 -114 -52z" />
<glyph unicode="&#x16e;" horiz-adv-x="788" d="M702 132q0 -56 33 -56q17 0 38 21q10 10 17 10q14 0 14 -14q0 -13 -16 -32q-51 -66 -127 -66q-97 0 -97 111q0 4 1 20t1 18q-97 -154 -206 -154q-53 0 -87 34.5t-34 86.5q0 57 54 212.5t54 228.5q0 55 -44 55q-56 0 -104.5 -61.5t-48.5 -124.5q0 -23 11.5 -35.5 t28.5 -12.5q7 0 18 4t14 4q10 0 10 -11q0 -28 -38.5 -65t-88.5 -37q-46 0 -75.5 30.5t-29.5 83.5q0 121 101.5 201t224.5 80q74 0 116.5 -33.5t42.5 -97.5q0 -68 -40.5 -197t-40.5 -184q0 -46 41 -46q50 0 118 127q30 58 65 200.5t37 149.5q6 21 45.5 39t86.5 18 q19 0 19 -18q0 -5 -5 -14t-13 -24t-13 -28q-19 -68 -51 -218.5t-32 -204.5zM538 721q0 -17 12.5 -29.5t29.5 -12.5t28.5 12.5t11.5 29.5t-11.5 28.5t-28.5 11.5t-29.5 -11.5t-12.5 -28.5zM481 721q0 42 28.5 70.5t70.5 28.5t70.5 -28.5t28.5 -70.5t-28.5 -70.5t-70.5 -28.5 t-70.5 28.5t-28.5 70.5z" />
<glyph unicode="&#x16f;" horiz-adv-x="430" d="M303 -5q-50 0 -74 30q-11 14 -14 31q-21 -19 -42 -31q-54 -30 -109 -30q-37 0 -58 22.5t-21 54.5q0 34 17 95t17 76q0 9 -3.5 17.5t-3.5 14.5q0 16 33.5 26.5t78.5 10.5q34 0 34 -26q0 -19 -18.5 -83t-18.5 -103q0 -25 24 -25q38 0 60 41q35 59 35 127q0 9 -3.5 17.5 t-3.5 14.5q0 16 33.5 26.5t78.5 10.5q34 0 34 -26q0 -18 -17.5 -79t-17.5 -90q0 -41 32 -41q17 0 38 21q10 10 17 10q14 0 14 -14q0 -13 -16 -32q-51 -66 -126 -66zM165 431q0 -17 12.5 -29.5t29.5 -12.5t28.5 12.5t11.5 29.5t-11.5 28.5t-28.5 11.5t-29.5 -11.5 t-12.5 -28.5zM108 431q0 42 28.5 70.5t70.5 28.5t70.5 -28.5t28.5 -70.5t-28.5 -70.5t-70.5 -28.5t-70.5 28.5t-28.5 70.5z" />
<glyph unicode="&#x170;" horiz-adv-x="788" d="M702 132q0 -56 33 -56q17 0 38 21q10 10 17 10q14 0 14 -14q0 -13 -16 -32q-51 -66 -127 -66q-97 0 -97 111q0 4 1 20t1 18q-97 -154 -206 -154q-53 0 -87 34.5t-34 86.5q0 57 54 212.5t54 228.5q0 55 -44 55q-56 0 -104.5 -61.5t-48.5 -124.5q0 -23 11.5 -35.5 t28.5 -12.5q7 0 18 4t14 4q10 0 10 -11q0 -28 -38.5 -65t-88.5 -37q-46 0 -75.5 30.5t-29.5 83.5q0 121 101.5 201t224.5 80q74 0 116.5 -33.5t42.5 -97.5q0 -68 -40.5 -197t-40.5 -184q0 -46 41 -46q50 0 118 127q30 58 65 200.5t37 149.5q6 21 45.5 39t86.5 18 q19 0 19 -18q0 -5 -5 -14t-13 -24t-13 -28q-19 -68 -51 -218.5t-32 -204.5zM580 808q11 0 30 -23.5t19 -38.5q0 -21 -23 -40q-29 -24 -66 -38t-63 -14q-17 0 -17 14q0 10 15 19q59 35 82 102q7 19 23 19zM740 808q11 0 30 -23.5t19 -38.5q0 -21 -23 -40q-29 -24 -66 -38 t-63 -14q-17 0 -17 14q0 10 15 19q59 35 82 102q7 19 23 19z" />
<glyph unicode="&#x171;" horiz-adv-x="430" d="M303 -5q-50 0 -74 30q-11 14 -14 31q-21 -19 -42 -31q-54 -30 -109 -30q-37 0 -58 22.5t-21 54.5q0 34 17 95t17 76q0 9 -3.5 17.5t-3.5 14.5q0 16 33.5 26.5t78.5 10.5q34 0 34 -26q0 -19 -18.5 -83t-18.5 -103q0 -25 24 -25q38 0 60 41q35 59 35 127q0 9 -3.5 17.5 t-3.5 14.5q0 16 33.5 26.5t78.5 10.5q34 0 34 -26q0 -18 -17.5 -79t-17.5 -90q0 -41 32 -41q17 0 38 21q10 10 17 10q14 0 14 -14q0 -13 -16 -32q-51 -66 -126 -66zM170 491q11 0 30 -23.5t19 -38.5q0 -21 -23 -40q-29 -24 -66 -38t-63 -14q-17 0 -17 14q0 10 15 19 q59 35 82 102q7 19 23 19zM330 491q11 0 30 -23.5t19 -38.5q0 -21 -23 -40q-29 -24 -66 -38t-63 -14q-17 0 -17 14q0 10 15 19q59 35 82 102q7 19 23 19z" />
<glyph unicode="&#x178;" horiz-adv-x="792" d="M479 539q0 -60 -34 -171.5t-34 -163.5q0 -21 11.5 -34.5t31.5 -13.5q28 0 59.5 31t55.5 76q17 35 33.5 91t36.5 133t25 95q6 21 46.5 39t88.5 18q19 0 19 -15q0 -5 -3 -11.5t-10 -18.5t-12 -25q-39 -91 -100 -392q-16 -80 -29.5 -134t-34 -118.5t-45 -105.5t-58 -77.5 t-78.5 -54t-100 -17.5q-87 0 -140.5 45.5t-53.5 117.5q0 73 50.5 117.5t123.5 44.5q50 0 50 -19q0 -13 -15 -13q-20 0 -37 -17t-17 -46q0 -31 19 -50t54 -19q115 0 188 349q-32 -51 -86.5 -92t-109.5 -41q-52 0 -83 32.5t-31 86.5q0 49 43.5 182t43.5 214q0 45 -44 45 q-56 0 -104.5 -61.5t-48.5 -124.5q0 -23 11.5 -35.5t28.5 -12.5q7 0 18 4t14 4q10 0 10 -11q0 -28 -38.5 -65t-88.5 -37q-46 0 -75.5 30.5t-29.5 83.5q0 121 101.5 201t224.5 80q72 0 112.5 -32t40.5 -92zM462 689q0 26 20 49.5t46 23.5q18 0 29 -13t11 -33q0 -27 -20 -50.5 t-48 -23.5q-17 0 -27.5 13t-10.5 34zM600 689q0 26 20 49.5t46 23.5q18 0 29 -13t11 -33q0 -27 -20 -50.5t-48 -23.5q-17 0 -27.5 13t-10.5 34z" />
<glyph unicode="&#x179;" horiz-adv-x="555" d="M178 132q27 11 78 11q18 0 53.5 -5t55.5 -5q32 0 62 12.5t46 31.5q12 16 21 16q14 0 14 -18q0 -24 -19.5 -65t-59 -78t-83.5 -37q-33 0 -97 23t-88 23q-29 0 -66.5 -20.5t-50.5 -20.5q-22 0 -33 24t-11 44q0 27 30 70q35 51 94.5 112t110.5 106.5t99.5 99.5t67.5 96 q-67 26 -123 26q-37 0 -60.5 -23t-23.5 -52q0 -28 23 -47q13 -13 13 -19q0 -15 -33 -15q-50 0 -95.5 28.5t-45.5 83.5q0 59 43.5 94t111.5 35q66 0 146 -19.5t98 -19.5q29 0 47.5 3t26 6.5t11.5 3.5q14 0 14 -14q0 -17 -11 -60.5t-25 -64.5q-29 -45 -83 -101.5t-102.5 -99 t-94 -89t-61.5 -76.5zM526 818q11 0 30 -23.5t19 -38.5q0 -21 -23 -40q-29 -24 -66 -38t-63 -14q-17 0 -17 14q0 10 15 19q59 35 82 102q7 19 23 19z" />
<glyph unicode="&#x17a;" horiz-adv-x="321" d="M183 -5q-37 0 -77 12t-59 12q-16 0 -33 -12t-23 -12q-15 0 -15 12v19q0 42 7 65t34 36q58 26 122 64q12 7 12 14q0 13 -54 13q-34 0 -61 -21q-17 -11 -21 -11q-11 0 -11 14q0 25 32.5 68.5t71.5 43.5q19 0 60.5 -7t62.5 -7q17 0 32 4t17 4q15 0 15 -14q0 -21 -11.5 -50 t-34.5 -45q-20 -13 -55 -33t-56 -33q-13 -9 -13 -16q0 -9 12 -11q24 -5 85 -5q51 0 78 18q14 11 21 11q11 0 11 -11q0 -13 -18 -38q-64 -84 -131 -84zM241 489q11 0 30 -23.5t19 -38.5q0 -21 -23 -40q-29 -24 -66 -38t-63 -14q-17 0 -17 14q0 10 15 19q59 35 82 102 q7 19 23 19z" />
<glyph unicode="&#x17b;" horiz-adv-x="555" d="M178 132q27 11 78 11q18 0 53.5 -5t55.5 -5q32 0 62 12.5t46 31.5q12 16 21 16q14 0 14 -18q0 -24 -19.5 -65t-59 -78t-83.5 -37q-33 0 -97 23t-88 23q-29 0 -66.5 -20.5t-50.5 -20.5q-22 0 -33 24t-11 44q0 27 30 70q35 51 94.5 112t110.5 106.5t99.5 99.5t67.5 96 q-67 26 -123 26q-37 0 -60.5 -23t-23.5 -52q0 -28 23 -47q13 -13 13 -19q0 -15 -33 -15q-50 0 -95.5 28.5t-45.5 83.5q0 59 43.5 94t111.5 35q66 0 146 -19.5t98 -19.5q29 0 47.5 3t26 6.5t11.5 3.5q14 0 14 -14q0 -17 -11 -60.5t-25 -64.5q-29 -45 -83 -101.5t-102.5 -99 t-94 -89t-61.5 -76.5zM395 724q0 26 20 49.5t46 23.5q18 0 29 -13t11 -33q0 -27 -20 -50.5t-48 -23.5q-17 0 -27.5 13t-10.5 34z" />
<glyph unicode="&#x17c;" horiz-adv-x="321" d="M183 -5q-37 0 -77 12t-59 12q-16 0 -33 -12t-23 -12q-15 0 -15 12v19q0 42 7 65t34 36q58 26 122 64q12 7 12 14q0 13 -54 13q-34 0 -61 -21q-17 -11 -21 -11q-11 0 -11 14q0 25 32.5 68.5t71.5 43.5q19 0 60.5 -7t62.5 -7q17 0 32 4t17 4q15 0 15 -14q0 -21 -11.5 -50 t-34.5 -45q-20 -13 -55 -33t-56 -33q-13 -9 -13 -16q0 -9 12 -11q24 -5 85 -5q51 0 78 18q14 11 21 11q11 0 11 -11q0 -13 -18 -38q-64 -84 -131 -84zM153 381q0 26 20 49.5t46 23.5q18 0 29 -13t11 -33q0 -27 -20 -50.5t-48 -23.5q-17 0 -27.5 13t-10.5 34z" />
<glyph unicode="&#x17d;" horiz-adv-x="555" d="M178 132q27 11 78 11q18 0 53.5 -5t55.5 -5q32 0 62 12.5t46 31.5q12 16 21 16q14 0 14 -18q0 -24 -19.5 -65t-59 -78t-83.5 -37q-33 0 -97 23t-88 23q-29 0 -66.5 -20.5t-50.5 -20.5q-22 0 -33 24t-11 44q0 27 30 70q35 51 94.5 112t110.5 106.5t99.5 99.5t67.5 96 q-67 26 -123 26q-37 0 -60.5 -23t-23.5 -52q0 -28 23 -47q13 -13 13 -19q0 -15 -33 -15q-50 0 -95.5 28.5t-45.5 83.5q0 59 43.5 94t111.5 35q66 0 146 -19.5t98 -19.5q29 0 47.5 3t26 6.5t11.5 3.5q14 0 14 -14q0 -17 -11 -60.5t-25 -64.5q-29 -45 -83 -101.5t-102.5 -99 t-94 -89t-61.5 -76.5zM448 659q-14 0 -34 18.5t-35 42.5q-23 31 -23 47q0 14 11 14q7 0 25 -15q17 -15 41.5 -25.5t34.5 -10.5q21 0 61 38q19 17 29 17q12 0 12 -11q0 -15 -46 -63q-48 -52 -76 -52z" />
<glyph unicode="&#x17e;" horiz-adv-x="321" d="M183 -5q-37 0 -77 12t-59 12q-16 0 -33 -12t-23 -12q-15 0 -15 12v19q0 42 7 65t34 36q58 26 122 64q12 7 12 14q0 13 -54 13q-34 0 -61 -21q-17 -11 -21 -11q-11 0 -11 14q0 25 32.5 68.5t71.5 43.5q19 0 60.5 -7t62.5 -7q17 0 32 4t17 4q15 0 15 -14q0 -21 -11.5 -50 t-34.5 -45q-20 -13 -55 -33t-56 -33q-13 -9 -13 -16q0 -9 12 -11q24 -5 85 -5q51 0 78 18q14 11 21 11q11 0 11 -11q0 -13 -18 -38q-64 -84 -131 -84zM208 326q-14 0 -34 18.5t-35 42.5q-23 31 -23 47q0 14 11 14q7 0 25 -15q17 -15 41.5 -25.5t34.5 -10.5q21 0 61 38 q19 17 29 17q12 0 12 -11q0 -15 -46 -63q-48 -52 -76 -52z" />
<glyph unicode="&#x192;" horiz-adv-x="298" d="M185 322v-279q0 -77 -34 -115t-86 -38q-31 0 -48.5 13t-17.5 35q0 40 36 40q13 0 21 -9.5t8 -20.5q0 -7 9 -7q12 0 21.5 12t11.5 33v336h-14q-8 0 -12 3q-12 5 -12 20t12 20q4 3 12 3h14v48q0 77 32.5 115t84.5 38q31 0 48.5 -13t17.5 -35q0 -40 -36 -40q-13 0 -21 9 t-8 21q0 7 -9 7q-12 0 -21 -12t-9 -34v-104h58q5 0 10 -3q11 -7 11 -20t-11 -20q-5 -3 -10 -3h-58z" />
<glyph unicode="&#x1a0;" horiz-adv-x="566" d="M174 247q0 -86 25.5 -129t66.5 -43q71 0 121.5 99.5t50.5 216.5q0 103 -77 103q-30 0 -57 -15q-14 -8 -19 -8q-9 0 -9 11q0 13 16 36.5t41 40.5q44 32 102 32q32 0 52 -10q22 5 43 65q2 7 2.5 22t4.5 26q9 22 30.5 34.5t43.5 3.5q48 -16 25 -78q-13 -31 -48 -55.5 t-72 -35.5q49 -40 49 -129q0 -108 -45 -211t-123.5 -168.5t-167.5 -65.5q-103 0 -166 62.5t-63 181.5q0 87 24.5 160.5t64.5 122t91 83t102.5 49.5t100.5 15q91 0 91 -29q0 -10 -13 -10q-2 0 -17.5 1t-30.5 1q-101 0 -170 -101.5t-69 -277.5z" />
<glyph unicode="&#x1a1;" horiz-adv-x="399" d="M199 316q75 0 109 -56q11 17 21 46q2 7 2.5 22t4.5 26q8 22 27 30t42 -1q50 -17 30 -69q-23 -58 -114 -89q3 -12 3 -26q0 -88 -52.5 -148t-141.5 -60q-66 0 -105.5 35.5t-39.5 95.5q0 78 58 136t156 58zM250 140q0 29 -20 38q-23 9 -31.5 18t-8.5 23q0 15 7.5 26.5 t7.5 12.5q0 8 -9 8t-28 -14q-49 -39 -49 -114q0 -34 18 -54t47 -20q28 0 47 24t19 52z" />
<glyph unicode="&#x1af;" horiz-adv-x="788" d="M702 132q0 -56 33 -56q17 0 38 21q10 10 17 10q14 0 14 -14q0 -13 -16 -32q-51 -66 -127 -66q-97 0 -97 111q0 4 1 20t1 18q-97 -154 -206 -154q-53 0 -87 34.5t-34 86.5q0 57 54 212.5t54 228.5q0 55 -44 55q-56 0 -104.5 -61.5t-48.5 -124.5q0 -23 11.5 -35.5 t28.5 -12.5q7 0 18 4t14 4q10 0 10 -11q0 -28 -38.5 -65t-88.5 -37q-46 0 -75.5 30.5t-29.5 83.5q0 121 101.5 201t224.5 80q74 0 116.5 -33.5t42.5 -97.5q0 -68 -40.5 -197t-40.5 -184q0 -46 41 -46q50 0 118 127q30 58 65 200.5t37 149.5q6 21 45.5 39t86.5 18 q19 0 19 -18q0 -4 -3 -9.5t-8.5 -14.5t-8.5 -16q22 5 43 65q2 7 2.5 22t4.5 26q9 22 30.5 34.5t43.5 3.5q48 -16 25 -78q-17 -44 -79 -74t-80 -22q-1 -1 -1 -3q-19 -68 -51 -218.5t-32 -204.5z" />
<glyph unicode="&#x1b0;" horiz-adv-x="475" d="M303 -5q-50 0 -74 30q-11 14 -14 31q-21 -19 -42 -31q-54 -30 -109 -30q-37 0 -58 22.5t-21 54.5q0 34 17 95t17 76q0 9 -3.5 17.5t-3.5 14.5q0 16 33.5 26.5t78.5 10.5q34 0 34 -26q0 -19 -18.5 -83t-18.5 -103q0 -25 24 -25q38 0 60 41q35 59 35 127q0 9 -3.5 17.5 t-3.5 14.5q0 16 33.5 26.5t78.5 10.5q34 0 34 -26q0 -8 -6 -38q15 13 31 58q2 7 2.5 22t4.5 26q8 22 27 30t42 -1q50 -17 30 -69q-16 -38 -63.5 -65t-82.5 -32q-20 -78 -20 -100q0 -41 32 -41q17 0 38 21q10 10 17 10q14 0 14 -14q0 -13 -16 -32q-51 -66 -126 -66z" />
<glyph unicode="&#x218;" horiz-adv-x="507" d="M217 52q36 0 59.5 35.5t23.5 89.5q0 50 -20 97t-43.5 76.5t-43.5 68.5t-20 77q0 75 61 121t131 46q130 0 130 -109q0 -34 -19.5 -59t-49.5 -25q-21 0 -35 12t-14 32q0 18 17 38t17 33q0 27 -31 27q-27 0 -46.5 -21t-19.5 -53t14 -63.5t34 -58.5t40 -55.5t34 -65t14 -76.5 q0 -100 -72.5 -166.5t-180.5 -66.5q-83 0 -140 41.5t-57 112.5q0 63 54 99.5t115 36.5q44 0 44 -16q0 -10 -17 -21q-24 -15 -40 -43.5t-16 -61.5q0 -38 21.5 -60t55.5 -22zM157 -95q0 24 14.5 38.5t38.5 14.5q53 0 53 -54q0 -48 -45.5 -98t-66.5 -50q-15 0 -15 13 q0 5 16 32.5t16 56.5q0 9 -5.5 22.5t-5.5 24.5z" />
<glyph unicode="&#x219;" horiz-adv-x="293" d="M21 131q43 0 43 -37q0 -42 27 -42q22 0 22 27q0 19 -15.5 36.5t-34 29t-34 32t-15.5 45.5q0 45 39.5 70t98.5 25q53 0 79.5 -18.5t26.5 -50.5q0 -22 -12 -36.5t-35 -14.5q-14 0 -25 10t-11 24q0 8 4 17t4 13q0 14 -19 14q-10 0 -19.5 -9.5t-9.5 -23.5q0 -20 17 -37 t38 -28t38 -31t17 -44q0 -49 -37.5 -79t-102.5 -30q-58 0 -94 23t-36 64q0 23 14 37t32 14zM60 -73q0 19 12.5 32t32.5 13q46 0 46 -46q0 -40 -39 -83t-57 -43q-12 0 -12 11q0 5 13.5 27.5t13.5 48.5q0 7 -5 18.5t-5 21.5z" />
<glyph unicode="&#x2c6;" horiz-adv-x="280" d="M148 396q-100 -60 -113 -60q-16 0 -16 14q0 12 15 23q37 28 77 71q2 2 8 9.5t8.5 9.5t8 6t11 5.5t12.5 1.5t12 -1.5t8 -3t6.5 -6t4.5 -6.5t4 -9.5t4 -9.5q5 -12 11.5 -23t11 -16t13 -15t11.5 -13t7 -6.5t5.5 -5.5t3 -4.5t1.5 -5.5q0 -15 -17 -15q-32 0 -97 60z" />
<glyph unicode="&#x2c7;" horiz-adv-x="240" d="M104 349q-14 0 -34 18.5t-35 42.5q-23 31 -23 47q0 14 11 14q7 0 25 -15q17 -15 41.5 -25.5t34.5 -10.5q21 0 61 38q19 17 29 17q12 0 12 -11q0 -15 -46 -63q-48 -52 -76 -52z" />
<glyph unicode="&#x2d8;" horiz-adv-x="260" d="M117 343q-41 0 -73 26t-32 64q0 17 12.5 29.5t28.5 12.5q29 0 29 -26q0 -8 -4 -16t-4 -15q0 -12 13.5 -19.5t35.5 -7.5q58 0 58 42t33 42q16 0 25 -8t9 -21q0 -25 -17 -51q-37 -52 -114 -52z" />
<glyph unicode="&#x2d9;" horiz-adv-x="146" d="M22 403q0 26 20 49.5t46 23.5q18 0 29 -13t11 -33q0 -27 -20 -50.5t-48 -23.5q-17 0 -27.5 13t-10.5 34z" />
<glyph unicode="&#x2da;" horiz-adv-x="245" d="M80 431q0 -17 12.5 -29.5t29.5 -12.5t28.5 12.5t11.5 29.5t-11.5 28.5t-28.5 11.5t-29.5 -11.5t-12.5 -28.5zM23 431q0 42 28.5 70.5t70.5 28.5t70.5 -28.5t28.5 -70.5t-28.5 -70.5t-70.5 -28.5t-70.5 28.5t-28.5 70.5z" />
<glyph unicode="&#x2db;" horiz-adv-x="194" d="M139 26q14 0 14 -11q0 -7 -15 -16q-51 -30 -51 -61q0 -18 23.5 -30t59.5 -12q16 0 16 -10t-14 -24q-35 -37 -71 -37q-29 0 -59.5 26t-30.5 57q0 51 51 84.5t77 33.5z" />
<glyph unicode="&#x2dc;" horiz-adv-x="312" d="M207 343q-23 0 -64 17.5t-63 17.5q-14 0 -34.5 -9.5t-23.5 -9.5q-12 0 -12 12q0 8 10 22q13 20 37 37.5t47 17.5q22 0 58.5 -18t60.5 -18q18 0 40 11t25 11q13 0 13 -10q0 -8 -6 -18q-14 -19 -24.5 -30.5t-28 -22t-35.5 -10.5z" />
<glyph unicode="&#x2dd;" horiz-adv-x="366" d="M138 491q11 0 30 -23.5t19 -38.5q0 -21 -23 -40q-29 -24 -66 -38t-63 -14q-17 0 -17 14q0 10 15 19q59 35 82 102q7 19 23 19zM298 491q11 0 30 -23.5t19 -38.5q0 -21 -23 -40q-29 -24 -66 -38t-63 -14q-17 0 -17 14q0 10 15 19q59 35 82 102q7 19 23 19z" />
<glyph unicode="&#x309;" horiz-adv-x="243" d="M132 431q-2 -9 -14 -9q-6 -1 -13.5 -3t-9.5 -2q-6 0 -6 5q-2 22 28.5 62.5t30.5 59.5q0 26 -29 26q-10 0 -16.5 -6t-6.5 -14q0 -4 7 -10.5t7 -13.5t-7 -13.5t-18 -6.5q-14 0 -23 9.5t-9 22.5q0 25 22 44t56 18q37 -1 58.5 -16.5t20.5 -47.5q0 -23 -17.5 -41.5t-37.5 -34 t-23 -29.5z" />
<glyph unicode="&#x323;" horiz-adv-x="146" d="M22 -130q0 26 20 49.5t46 23.5q18 0 29 -13t11 -33q0 -27 -20 -50.5t-48 -23.5q-17 0 -27.5 13t-10.5 34z" />
<glyph unicode="&#x3c0;" horiz-adv-x="416" d="M151 288v-256q0 -11 -10 -18.5t-24 -7.5t-25.5 8t-11.5 20v254h-50q-24 0 -24 33q0 36 26 36h350q11 0 18.5 -11.5t7.5 -24.5q0 -11 -7.5 -22t-18.5 -11h-50v-256q0 -11 -10.5 -18.5t-23.5 -7.5t-22.5 8t-9.5 20v254h-115z" />
<glyph unicode="&#x1ea0;" horiz-adv-x="721" d="M668 76q17 0 38 21q10 10 17 10q14 0 14 -14q0 -13 -16 -32q-51 -66 -127 -66q-97 0 -97 111q0 68 24 185q-37 0 -60 -16.5t-43 -53.5q-20 -38 -27.5 -51.5t-27 -45.5t-31 -45t-33 -34.5t-41 -30.5t-46 -16.5t-55.5 -7.5q-68 0 -112.5 39t-44.5 101q0 63 49 100t90 37 q14 0 14 -13q0 -5 -9 -20.5t-9 -28.5q0 -52 58 -52q22 0 43.5 13.5t46.5 46t36.5 50t38.5 61.5q12 20 41 68t44.5 73t40 57.5t46.5 52.5q-64 20 -130 20q-41 0 -69 -22t-28 -51q0 -44 42 -44q9 0 18.5 5t11.5 5q11 0 11 -11q0 -32 -35 -66.5t-83 -34.5t-81 32.5t-33 83.5 q0 78 64 124.5t153 46.5q61 0 129.5 -13.5t86.5 -13.5q37 0 68.5 4t50 8t23.5 4q18 0 18 -17q0 -5 -4.5 -14.5t-15 -34.5t-20.5 -59q-23 -73 -47.5 -199t-24.5 -196q0 -56 33 -56zM473 354h65q21 99 75 204q-40 -32 -79 -93.5t-61 -110.5zM355 -130q0 26 20 49.5t46 23.5 q18 0 29 -13t11 -33q0 -27 -20 -50.5t-48 -23.5q-17 0 -27.5 13t-10.5 34z" />
<glyph unicode="&#x1ea1;" horiz-adv-x="423" d="M227 239q0 29 -30 29q-26 0 -45.5 -29.5t-28 -64.5t-8.5 -66q0 -47 34 -47q32 0 52 47q9 21 17.5 62t8.5 69zM422 61q-51 -66 -127 -66q-37 0 -61 26q-11 11 -16 27q-16 -16 -36 -27q-46 -26 -90 -26q-47 0 -77 30.5t-30 86.5q0 82 51.5 141t151.5 59q32 0 56.5 -9.5 t27.5 -9.5q7 0 39 9.5t44 9.5q15 0 15 -15q0 -5 -17.5 -69.5t-17.5 -110.5q0 -20 9.5 -30.5t24.5 -10.5q17 0 38 21q10 10 17 10q14 0 14 -14q0 -13 -16 -32zM109 -130q0 26 20 49.5t46 23.5q18 0 29 -13t11 -33q0 -27 -20 -50.5t-48 -23.5q-17 0 -27.5 13t-10.5 34z" />
<glyph unicode="&#x1ea2;" horiz-adv-x="721" d="M668 76q17 0 38 21q10 10 17 10q14 0 14 -14q0 -13 -16 -32q-51 -66 -127 -66q-97 0 -97 111q0 68 24 185q-37 0 -60 -16.5t-43 -53.5q-20 -38 -27.5 -51.5t-27 -45.5t-31 -45t-33 -34.5t-41 -30.5t-46 -16.5t-55.5 -7.5q-68 0 -112.5 39t-44.5 101q0 63 49 100t90 37 q14 0 14 -13q0 -5 -9 -20.5t-9 -28.5q0 -52 58 -52q22 0 43.5 13.5t46.5 46t36.5 50t38.5 61.5q12 20 41 68t44.5 73t40 57.5t46.5 52.5q-64 20 -130 20q-41 0 -69 -22t-28 -51q0 -44 42 -44q9 0 18.5 5t11.5 5q11 0 11 -11q0 -32 -35 -66.5t-83 -34.5t-81 32.5t-33 83.5 q0 78 64 124.5t153 46.5q61 0 129.5 -13.5t86.5 -13.5q37 0 68.5 4t50 8t23.5 4q18 0 18 -17q0 -5 -4.5 -14.5t-15 -34.5t-20.5 -59q-23 -73 -47.5 -199t-24.5 -196q0 -56 33 -56zM473 354h65q21 99 75 204q-40 -32 -79 -93.5t-61 -110.5zM672 699q-2 -9 -14 -9 q-6 -1 -13.5 -3t-9.5 -2q-6 0 -6 5q-2 22 28.5 62.5t30.5 59.5q0 26 -29 26q-10 0 -16.5 -6t-6.5 -14q0 -4 7 -10.5t7 -13.5t-7 -13.5t-18 -6.5q-14 0 -23 9.5t-9 22.5q0 25 22 44t56 18q37 -1 58.5 -16.5t20.5 -47.5q0 -23 -17.5 -41.5t-37.5 -34t-23 -29.5z" />
<glyph unicode="&#x1ea3;" horiz-adv-x="407" d="M212 239q0 29 -30 29q-26 0 -45.5 -29.5t-28 -64.5t-8.5 -66q0 -47 34 -47q32 0 52 47q9 21 17.5 62t8.5 69zM407 61q-51 -66 -127 -66q-37 0 -61 26q-11 11 -16 27q-17 -16 -36 -27q-46 -26 -90 -26q-47 0 -77 30.5t-30 86.5q0 82 51.5 141t151.5 59q32 0 56.5 -9.5 t27.5 -9.5q7 0 39 9.5t44 9.5q15 0 15 -15q0 -5 -17.5 -69.5t-17.5 -110.5q0 -20 9.5 -30.5t24.5 -10.5q17 0 38 21q10 10 17 10q14 0 14 -14q0 -13 -16 -32zM246 375q-2 -9 -14 -9q-6 -1 -13.5 -3t-9.5 -2q-6 0 -6 5q-2 22 28.5 62.5t30.5 59.5q0 26 -29 26q-10 0 -16.5 -6 t-6.5 -14q0 -4 7 -10.5t7 -13.5t-7 -13.5t-18 -6.5q-14 0 -23 9.5t-9 22.5q0 25 22 44t56 18q37 -1 58.5 -16.5t20.5 -47.5q0 -23 -17.5 -41.5t-37.5 -34t-23 -29.5z" />
<glyph unicode="&#x1ea4;" horiz-adv-x="721" d="M668 76q17 0 38 21q10 10 17 10q14 0 14 -14q0 -13 -16 -32q-51 -66 -127 -66q-97 0 -97 111q0 68 24 185q-37 0 -60 -16.5t-43 -53.5q-20 -38 -27.5 -51.5t-27 -45.5t-31 -45t-33 -34.5t-41 -30.5t-46 -16.5t-55.5 -7.5q-68 0 -112.5 39t-44.5 101q0 63 49 100t90 37 q14 0 14 -13q0 -5 -9 -20.5t-9 -28.5q0 -52 58 -52q22 0 43.5 13.5t46.5 46t36.5 50t38.5 61.5q12 20 41 68t44.5 73t40 57.5t46.5 52.5q-64 20 -130 20q-41 0 -69 -22t-28 -51q0 -44 42 -44q9 0 18.5 5t11.5 5q11 0 11 -11q0 -32 -35 -66.5t-83 -34.5t-81 32.5t-33 83.5 q0 78 64 124.5t153 46.5q61 0 129.5 -13.5t86.5 -13.5q37 0 68.5 4t50 8t23.5 4q18 0 18 -17q0 -5 -4.5 -14.5t-15 -34.5t-20.5 -59q-23 -73 -47.5 -199t-24.5 -196q0 -56 33 -56zM473 354h65q21 99 75 204q-40 -32 -79 -93.5t-61 -110.5zM581 737q-100 -60 -113 -60 q-16 0 -16 14q0 13 15 23q37 28 77 71q2 2 8 9.5t8.5 9.5t8 6t11 5.5t12.5 1.5t12 -1.5t8 -3t6.5 -6t4.5 -6.5t4 -9.5t4 -9.5q5 -12 11.5 -23t11 -16t13 -15t11.5 -13t7 -6.5t5.5 -5.5t3 -4.5t1.5 -5.5q0 -15 -17 -15q-32 0 -97 60zM635 985q11 0 30 -23.5t19 -38.5 q0 -21 -23 -40q-29 -24 -66 -38t-63 -14q-17 0 -17 14q0 10 15 19q59 35 82 102q7 19 23 19z" />
<glyph unicode="&#x1ea5;" horiz-adv-x="423" d="M227 239q0 29 -30 29q-26 0 -45.5 -29.5t-28 -64.5t-8.5 -66q0 -47 34 -47q32 0 52 47q9 21 17.5 62t8.5 69zM422 61q-51 -66 -127 -66q-37 0 -61 26q-11 11 -16 27q-16 -16 -36 -27q-46 -26 -90 -26q-47 0 -77 30.5t-30 86.5q0 82 51.5 141t151.5 59q32 0 56.5 -9.5 t27.5 -9.5q7 0 39 9.5t44 9.5q15 0 15 -15q0 -5 -17.5 -69.5t-17.5 -110.5q0 -20 9.5 -30.5t24.5 -10.5q17 0 38 21q10 10 17 10q14 0 14 -14q0 -13 -16 -32zM219 396q-100 -60 -113 -60q-16 0 -16 14q0 12 15 23q37 28 77 71q2 2 8 9.5t8.5 9.5t8 6t11 5.5t12.5 1.5 t12 -1.5t8 -3t6.5 -6t4.5 -6.5t4 -9.5t4 -9.5q5 -12 11.5 -23t11 -16t13 -15t11.5 -13t7 -6.5t5.5 -5.5t3 -4.5t1.5 -5.5q0 -15 -17 -15q-32 0 -97 60zM270 649q11 0 30 -23.5t19 -38.5q0 -21 -23 -40q-29 -24 -66 -38t-63 -14q-17 0 -17 14q0 10 15 19q59 35 82 102 q7 19 23 19z" />
<glyph unicode="&#x1ea6;" horiz-adv-x="721" d="M668 76q17 0 38 21q10 10 17 10q14 0 14 -14q0 -13 -16 -32q-51 -66 -127 -66q-97 0 -97 111q0 68 24 185q-37 0 -60 -16.5t-43 -53.5q-20 -38 -27.5 -51.5t-27 -45.5t-31 -45t-33 -34.5t-41 -30.5t-46 -16.5t-55.5 -7.5q-68 0 -112.5 39t-44.5 101q0 63 49 100t90 37 q14 0 14 -13q0 -5 -9 -20.5t-9 -28.5q0 -52 58 -52q22 0 43.5 13.5t46.5 46t36.5 50t38.5 61.5q12 20 41 68t44.5 73t40 57.5t46.5 52.5q-64 20 -130 20q-41 0 -69 -22t-28 -51q0 -44 42 -44q9 0 18.5 5t11.5 5q11 0 11 -11q0 -32 -35 -66.5t-83 -34.5t-81 32.5t-33 83.5 q0 78 64 124.5t153 46.5q61 0 129.5 -13.5t86.5 -13.5q37 0 68.5 4t50 8t23.5 4q18 0 18 -17q0 -5 -4.5 -14.5t-15 -34.5t-20.5 -59q-23 -73 -47.5 -199t-24.5 -196q0 -56 33 -56zM473 354h65q21 99 75 204q-40 -32 -79 -93.5t-61 -110.5zM581 737q-100 -60 -113 -60 q-16 0 -16 14q0 13 15 23q37 28 77 71q2 2 8 9.5t8.5 9.5t8 6t11 5.5t12.5 1.5t12 -1.5t8 -3t6.5 -6t4.5 -6.5t4 -9.5t4 -9.5q5 -12 11.5 -23t11 -16t13 -15t11.5 -13t7 -6.5t5.5 -5.5t3 -4.5t1.5 -5.5q0 -15 -17 -15q-32 0 -97 60zM592 982q16 0 23 -19q23 -67 82 -102 q15 -9 15 -19q0 -14 -17 -14q-26 0 -63 14t-66 38q-23 19 -23 40q0 15 19 38.5t30 23.5z" />
<glyph unicode="&#x1ea7;" horiz-adv-x="423" d="M227 239q0 29 -30 29q-26 0 -45.5 -29.5t-28 -64.5t-8.5 -66q0 -47 34 -47q32 0 52 47q9 21 17.5 62t8.5 69zM422 61q-51 -66 -127 -66q-37 0 -61 26q-11 11 -16 27q-16 -16 -36 -27q-46 -26 -90 -26q-47 0 -77 30.5t-30 86.5q0 82 51.5 141t151.5 59q32 0 56.5 -9.5 t27.5 -9.5q7 0 39 9.5t44 9.5q15 0 15 -15q0 -5 -17.5 -69.5t-17.5 -110.5q0 -20 9.5 -30.5t24.5 -10.5q17 0 38 21q10 10 17 10q14 0 14 -14q0 -13 -16 -32zM219 396q-100 -60 -113 -60q-16 0 -16 14q0 12 15 23q37 28 77 71q2 2 8 9.5t8.5 9.5t8 6t11 5.5t12.5 1.5 t12 -1.5t8 -3t6.5 -6t4.5 -6.5t4 -9.5t4 -9.5q5 -12 11.5 -23t11 -16t13 -15t11.5 -13t7 -6.5t5.5 -5.5t3 -4.5t1.5 -5.5q0 -15 -17 -15q-32 0 -97 60zM196 653q16 0 23 -19q23 -67 82 -102q15 -9 15 -19q0 -14 -17 -14q-26 0 -63 14t-66 38q-23 19 -23 40q0 15 19 38.5 t30 23.5z" />
<glyph unicode="&#x1ea8;" horiz-adv-x="721" d="M668 76q17 0 38 21q10 10 17 10q14 0 14 -14q0 -13 -16 -32q-51 -66 -127 -66q-97 0 -97 111q0 68 24 185q-37 0 -60 -16.5t-43 -53.5q-20 -38 -27.5 -51.5t-27 -45.5t-31 -45t-33 -34.5t-41 -30.5t-46 -16.5t-55.5 -7.5q-68 0 -112.5 39t-44.5 101q0 63 49 100t90 37 q14 0 14 -13q0 -5 -9 -20.5t-9 -28.5q0 -52 58 -52q22 0 43.5 13.5t46.5 46t36.5 50t38.5 61.5q12 20 41 68t44.5 73t40 57.5t46.5 52.5q-64 20 -130 20q-41 0 -69 -22t-28 -51q0 -44 42 -44q9 0 18.5 5t11.5 5q11 0 11 -11q0 -32 -35 -66.5t-83 -34.5t-81 32.5t-33 83.5 q0 78 64 124.5t153 46.5q61 0 129.5 -13.5t86.5 -13.5q37 0 68.5 4t50 8t23.5 4q18 0 18 -17q0 -5 -4.5 -14.5t-15 -34.5t-20.5 -59q-23 -73 -47.5 -199t-24.5 -196q0 -56 33 -56zM473 354h65q21 99 75 204q-40 -32 -79 -93.5t-61 -110.5zM581 737q-100 -60 -113 -60 q-16 0 -16 14q0 13 15 23q37 28 77 71q2 2 8 9.5t8.5 9.5t8 6t11 5.5t12.5 1.5t12 -1.5t8 -3t6.5 -6t4.5 -6.5t4 -9.5t4 -9.5q5 -12 11.5 -23t11 -16t13 -15t11.5 -13t7 -6.5t5.5 -5.5t3 -4.5t1.5 -5.5q0 -15 -17 -15q-32 0 -97 60zM685 836q-1 -9 -14 -9q-6 -1 -13.5 -3 t-9.5 -2q-6 0 -6 5q-2 22 28.5 62.5t30.5 59.5q0 26 -29 26q-10 0 -16.5 -6t-6.5 -14q0 -4 7 -10.5t7 -13.5t-7 -13.5t-18 -6.5q-14 0 -23 9.5t-9 22.5q0 25 22 44t56 18q37 -1 58.5 -16.5t20.5 -47.5q0 -23 -17.5 -41.5t-37.5 -34t-23 -29.5z" />
<glyph unicode="&#x1ea9;" horiz-adv-x="423" d="M227 239q0 29 -30 29q-26 0 -45.5 -29.5t-28 -64.5t-8.5 -66q0 -47 34 -47q32 0 52 47q9 21 17.5 62t8.5 69zM422 61q-51 -66 -127 -66q-37 0 -61 26q-11 11 -16 27q-16 -16 -36 -27q-46 -26 -90 -26q-47 0 -77 30.5t-30 86.5q0 82 51.5 141t151.5 59q32 0 56.5 -9.5 t27.5 -9.5q7 0 39 9.5t44 9.5q15 0 15 -15q0 -5 -17.5 -69.5t-17.5 -110.5q0 -20 9.5 -30.5t24.5 -10.5q17 0 38 21q10 10 17 10q14 0 14 -14q0 -13 -16 -32zM219 396q-100 -60 -113 -60q-16 0 -16 14q0 12 15 23q37 28 77 71q2 2 8 9.5t8.5 9.5t8 6t11 5.5t12.5 1.5 t12 -1.5t8 -3t6.5 -6t4.5 -6.5t4 -9.5t4 -9.5q5 -12 11.5 -23t11 -16t13 -15t11.5 -13t7 -6.5t5.5 -5.5t3 -4.5t1.5 -5.5q0 -15 -17 -15q-32 0 -97 60zM313 496q-1 -9 -14 -9q-6 -1 -13.5 -3t-9.5 -2q-6 0 -6 5q-2 22 28.5 62.5t30.5 59.5q0 26 -29 26q-10 0 -16.5 -6 t-6.5 -14q0 -4 7 -10.5t7 -13.5t-7 -13.5t-18 -6.5q-14 0 -23 9.5t-9 22.5q0 25 22 44t56 18q37 -1 58.5 -16.5t20.5 -47.5q0 -23 -17.5 -41.5t-37.5 -34t-23 -29.5z" />
<glyph unicode="&#x1eaa;" horiz-adv-x="721" d="M668 76q17 0 38 21q10 10 17 10q14 0 14 -14q0 -13 -16 -32q-51 -66 -127 -66q-97 0 -97 111q0 68 24 185q-37 0 -60 -16.5t-43 -53.5q-20 -38 -27.5 -51.5t-27 -45.5t-31 -45t-33 -34.5t-41 -30.5t-46 -16.5t-55.5 -7.5q-68 0 -112.5 39t-44.5 101q0 63 49 100t90 37 q14 0 14 -13q0 -5 -9 -20.5t-9 -28.5q0 -52 58 -52q22 0 43.5 13.5t46.5 46t36.5 50t38.5 61.5q12 20 41 68t44.5 73t40 57.5t46.5 52.5q-64 20 -130 20q-41 0 -69 -22t-28 -51q0 -44 42 -44q9 0 18.5 5t11.5 5q11 0 11 -11q0 -32 -35 -66.5t-83 -34.5t-81 32.5t-33 83.5 q0 78 64 124.5t153 46.5q61 0 129.5 -13.5t86.5 -13.5q37 0 68.5 4t50 8t23.5 4q18 0 18 -17q0 -5 -4.5 -14.5t-15 -34.5t-20.5 -59q-23 -73 -47.5 -199t-24.5 -196q0 -56 33 -56zM473 354h65q21 99 75 204q-40 -32 -79 -93.5t-61 -110.5zM581 737q-100 -60 -113 -60 q-16 0 -16 14q0 13 15 23q37 28 77 71q2 2 8 9.5t8.5 9.5t8 6t11 5.5t12.5 1.5t12 -1.5t8 -3t6.5 -6t4.5 -6.5t4 -9.5t4 -9.5q5 -12 11.5 -23t11 -16t13 -15t11.5 -13t7 -6.5t5.5 -5.5t3 -4.5t1.5 -5.5q0 -15 -17 -15q-32 0 -97 60zM658 836q-23 0 -64 17.5t-63 17.5 q-14 0 -34.5 -9.5t-23.5 -9.5q-12 0 -12 12q0 8 10 22q13 20 37 37.5t47 17.5q22 0 58.5 -18t60.5 -18q18 0 40 11t25 11q13 0 13 -10q0 -8 -6 -18q-14 -19 -24.5 -30.5t-28 -22t-35.5 -10.5z" />
<glyph unicode="&#x1eab;" horiz-adv-x="423" d="M227 239q0 29 -30 29q-26 0 -45.5 -29.5t-28 -64.5t-8.5 -66q0 -47 34 -47q32 0 52 47q9 21 17.5 62t8.5 69zM422 61q-51 -66 -127 -66q-37 0 -61 26q-11 11 -16 27q-16 -16 -36 -27q-46 -26 -90 -26q-47 0 -77 30.5t-30 86.5q0 82 51.5 141t151.5 59q32 0 56.5 -9.5 t27.5 -9.5q7 0 39 9.5t44 9.5q15 0 15 -15q0 -5 -17.5 -69.5t-17.5 -110.5q0 -20 9.5 -30.5t24.5 -10.5q17 0 38 21q10 10 17 10q14 0 14 -14q0 -13 -16 -32zM219 396q-100 -60 -113 -60q-16 0 -16 14q0 12 15 23q37 28 77 71q2 2 8 9.5t8.5 9.5t8 6t11 5.5t12.5 1.5 t12 -1.5t8 -3t6.5 -6t4.5 -6.5t4 -9.5t4 -9.5q5 -12 11.5 -23t11 -16t13 -15t11.5 -13t7 -6.5t5.5 -5.5t3 -4.5t1.5 -5.5q0 -15 -17 -15q-32 0 -97 60zM300 511q-23 0 -64 17.5t-63 17.5q-14 0 -34.5 -9.5t-23.5 -9.5q-12 0 -12 12q0 8 10 22q13 20 37 37.5t47 17.5 q22 0 58.5 -18t60.5 -18q18 0 40 11t25 11q13 0 13 -10q0 -8 -6 -18q-14 -19 -24.5 -30.5t-28 -22t-35.5 -10.5z" />
<glyph unicode="&#x1eac;" horiz-adv-x="721" d="M355 -130q0 26 20 49.5t46 23.5q18 0 29 -13t11 -33q0 -27 -20 -50.5t-48 -23.5q-17 0 -27.5 13t-10.5 34zM668 76q17 0 38 21q10 10 17 10q14 0 14 -14q0 -13 -16 -32q-51 -66 -127 -66q-97 0 -97 111q0 68 24 185q-37 0 -60 -16.5t-43 -53.5q-20 -38 -27.5 -51.5 t-27 -45.5t-31 -45t-33 -34.5t-41 -30.5t-46 -16.5t-55.5 -7.5q-68 0 -112.5 39t-44.5 101q0 63 49 100t90 37q14 0 14 -13q0 -5 -9 -20.5t-9 -28.5q0 -52 58 -52q22 0 43.5 13.5t46.5 46t36.5 50t38.5 61.5q12 20 41 68t44.5 73t40 57.5t46.5 52.5q-64 20 -130 20 q-41 0 -69 -22t-28 -51q0 -44 42 -44q9 0 18.5 5t11.5 5q11 0 11 -11q0 -32 -35 -66.5t-83 -34.5t-81 32.5t-33 83.5q0 78 64 124.5t153 46.5q61 0 129.5 -13.5t86.5 -13.5q37 0 68.5 4t50 8t23.5 4q18 0 18 -17q0 -5 -4.5 -14.5t-15 -34.5t-20.5 -59q-23 -73 -47.5 -199 t-24.5 -196q0 -56 33 -56zM473 354h65q21 99 75 204q-40 -32 -79 -93.5t-61 -110.5zM581 737q-100 -60 -113 -60q-16 0 -16 14q0 13 15 23q37 28 77 71q2 2 8 9.5t8.5 9.5t8 6t11 5.5t12.5 1.5t12 -1.5t8 -3t6.5 -6t4.5 -6.5t4 -9.5t4 -9.5q5 -12 11.5 -23t11 -16t13 -15 t11.5 -13t7 -6.5t5.5 -5.5t3 -4.5t1.5 -5.5q0 -15 -17 -15q-32 0 -97 60z" />
<glyph unicode="&#x1ead;" horiz-adv-x="423" d="M109 -130q0 26 20 49.5t46 23.5q18 0 29 -13t11 -33q0 -27 -20 -50.5t-48 -23.5q-17 0 -27.5 13t-10.5 34zM227 239q0 29 -30 29q-26 0 -45.5 -29.5t-28 -64.5t-8.5 -66q0 -47 34 -47q32 0 52 47q9 21 17.5 62t8.5 69zM422 61q-51 -66 -127 -66q-37 0 -61 26 q-11 11 -16 27q-16 -16 -36 -27q-46 -26 -90 -26q-47 0 -77 30.5t-30 86.5q0 82 51.5 141t151.5 59q32 0 56.5 -9.5t27.5 -9.5q7 0 39 9.5t44 9.5q15 0 15 -15q0 -5 -17.5 -69.5t-17.5 -110.5q0 -20 9.5 -30.5t24.5 -10.5q17 0 38 21q10 10 17 10q14 0 14 -14q0 -13 -16 -32 zM219 396q-100 -60 -113 -60q-16 0 -16 14q0 12 15 23q37 28 77 71q2 2 8 9.5t8.5 9.5t8 6t11 5.5t12.5 1.5t12 -1.5t8 -3t6.5 -6t4.5 -6.5t4 -9.5t4 -9.5q5 -12 11.5 -23t11 -16t13 -15t11.5 -13t7 -6.5t5.5 -5.5t3 -4.5t1.5 -5.5q0 -15 -17 -15q-32 0 -97 60z" />
<glyph unicode="&#x1eae;" horiz-adv-x="721" d="M668 76q17 0 38 21q10 10 17 10q14 0 14 -14q0 -13 -16 -32q-51 -66 -127 -66q-97 0 -97 111q0 68 24 185q-37 0 -60 -16.5t-43 -53.5q-20 -38 -27.5 -51.5t-27 -45.5t-31 -45t-33 -34.5t-41 -30.5t-46 -16.5t-55.5 -7.5q-68 0 -112.5 39t-44.5 101q0 63 49 100t90 37 q14 0 14 -13q0 -5 -9 -20.5t-9 -28.5q0 -52 58 -52q22 0 43.5 13.5t46.5 46t36.5 50t38.5 61.5q12 20 41 68t44.5 73t40 57.5t46.5 52.5q-64 20 -130 20q-41 0 -69 -22t-28 -51q0 -44 42 -44q9 0 18.5 5t11.5 5q11 0 11 -11q0 -32 -35 -66.5t-83 -34.5t-81 32.5t-33 83.5 q0 78 64 124.5t153 46.5q61 0 129.5 -13.5t86.5 -13.5q37 0 68.5 4t50 8t23.5 4q18 0 18 -17q0 -5 -4.5 -14.5t-15 -34.5t-20.5 -59q-23 -73 -47.5 -199t-24.5 -196q0 -56 33 -56zM473 354h65q21 99 75 204q-40 -32 -79 -93.5t-61 -110.5zM606 676q-41 0 -73 26t-32 64 q0 17 12.5 29.5t28.5 12.5q29 0 29 -26q0 -8 -4 -16t-4 -15q0 -12 13.5 -19.5t35.5 -7.5q58 0 58 42t33 42q16 0 25 -8t9 -21q0 -25 -17 -51q-37 -52 -114 -52zM711 981q11 0 30 -23.5t19 -38.5q0 -21 -23 -40q-29 -24 -66 -38t-63 -14q-17 0 -17 14q0 10 15 19 q59 35 82 102q7 19 23 19z" />
<glyph unicode="&#x1eaf;" horiz-adv-x="423" d="M227 239q0 29 -30 29q-26 0 -45.5 -29.5t-28 -64.5t-8.5 -66q0 -47 34 -47q32 0 52 47q9 21 17.5 62t8.5 69zM422 61q-51 -66 -127 -66q-37 0 -61 26q-11 11 -16 27q-16 -16 -36 -27q-46 -26 -90 -26q-47 0 -77 30.5t-30 86.5q0 82 51.5 141t151.5 59q32 0 56.5 -9.5 t27.5 -9.5q7 0 39 9.5t44 9.5q15 0 15 -15q0 -5 -17.5 -69.5t-17.5 -110.5q0 -20 9.5 -30.5t24.5 -10.5q17 0 38 21q10 10 17 10q14 0 14 -14q0 -13 -16 -32zM198 343q-41 0 -73 26t-32 64q0 17 12.5 29.5t28.5 12.5q29 0 29 -26q0 -8 -4 -16t-4 -15q0 -12 13.5 -19.5 t35.5 -7.5q58 0 58 42t33 42q16 0 25 -8t9 -21q0 -25 -17 -51q-37 -52 -114 -52zM297 649q11 0 30 -23.5t19 -38.5q0 -21 -23 -40q-29 -24 -66 -38t-63 -14q-17 0 -17 14q0 10 15 19q59 35 82 102q7 19 23 19z" />
<glyph unicode="&#x1eb0;" horiz-adv-x="721" d="M668 76q17 0 38 21q10 10 17 10q14 0 14 -14q0 -13 -16 -32q-51 -66 -127 -66q-97 0 -97 111q0 68 24 185q-37 0 -60 -16.5t-43 -53.5q-20 -38 -27.5 -51.5t-27 -45.5t-31 -45t-33 -34.5t-41 -30.5t-46 -16.5t-55.5 -7.5q-68 0 -112.5 39t-44.5 101q0 63 49 100t90 37 q14 0 14 -13q0 -5 -9 -20.5t-9 -28.5q0 -52 58 -52q22 0 43.5 13.5t46.5 46t36.5 50t38.5 61.5q12 20 41 68t44.5 73t40 57.5t46.5 52.5q-64 20 -130 20q-41 0 -69 -22t-28 -51q0 -44 42 -44q9 0 18.5 5t11.5 5q11 0 11 -11q0 -32 -35 -66.5t-83 -34.5t-81 32.5t-33 83.5 q0 78 64 124.5t153 46.5q61 0 129.5 -13.5t86.5 -13.5q37 0 68.5 4t50 8t23.5 4q18 0 18 -17q0 -5 -4.5 -14.5t-15 -34.5t-20.5 -59q-23 -73 -47.5 -199t-24.5 -196q0 -56 33 -56zM473 354h65q21 99 75 204q-40 -32 -79 -93.5t-61 -110.5zM606 676q-41 0 -73 26t-32 64 q0 17 12.5 29.5t28.5 12.5q29 0 29 -26q0 -8 -4 -16t-4 -15q0 -12 13.5 -19.5t35.5 -7.5q58 0 58 42t33 42q16 0 25 -8t9 -21q0 -25 -17 -51q-37 -52 -114 -52zM583 993q16 0 23 -19q23 -67 82 -102q15 -9 15 -19q0 -14 -17 -14q-26 0 -63 14t-66 38q-23 19 -23 40 q0 15 19 38.5t30 23.5z" />
<glyph unicode="&#x1eb1;" horiz-adv-x="423" d="M227 239q0 29 -30 29q-26 0 -45.5 -29.5t-28 -64.5t-8.5 -66q0 -47 34 -47q32 0 52 47q9 21 17.5 62t8.5 69zM422 61q-51 -66 -127 -66q-37 0 -61 26q-11 11 -16 27q-16 -16 -36 -27q-46 -26 -90 -26q-47 0 -77 30.5t-30 86.5q0 82 51.5 141t151.5 59q32 0 56.5 -9.5 t27.5 -9.5q7 0 39 9.5t44 9.5q15 0 15 -15q0 -5 -17.5 -69.5t-17.5 -110.5q0 -20 9.5 -30.5t24.5 -10.5q17 0 38 21q10 10 17 10q14 0 14 -14q0 -13 -16 -32zM198 343q-41 0 -73 26t-32 64q0 17 12.5 29.5t28.5 12.5q29 0 29 -26q0 -8 -4 -16t-4 -15q0 -12 13.5 -19.5 t35.5 -7.5q58 0 58 42t33 42q16 0 25 -8t9 -21q0 -25 -17 -51q-37 -52 -114 -52zM176 653q16 0 23 -19q23 -67 82 -102q15 -9 15 -19q0 -14 -17 -14q-26 0 -63 14t-66 38q-23 19 -23 40q0 15 19 38.5t30 23.5z" />
<glyph unicode="&#x1eb2;" horiz-adv-x="721" d="M668 76q17 0 38 21q10 10 17 10q14 0 14 -14q0 -13 -16 -32q-51 -66 -127 -66q-97 0 -97 111q0 68 24 185q-37 0 -60 -16.5t-43 -53.5q-20 -38 -27.5 -51.5t-27 -45.5t-31 -45t-33 -34.5t-41 -30.5t-46 -16.5t-55.5 -7.5q-68 0 -112.5 39t-44.5 101q0 63 49 100t90 37 q14 0 14 -13q0 -5 -9 -20.5t-9 -28.5q0 -52 58 -52q22 0 43.5 13.5t46.5 46t36.5 50t38.5 61.5q12 20 41 68t44.5 73t40 57.5t46.5 52.5q-64 20 -130 20q-41 0 -69 -22t-28 -51q0 -44 42 -44q9 0 18.5 5t11.5 5q11 0 11 -11q0 -32 -35 -66.5t-83 -34.5t-81 32.5t-33 83.5 q0 78 64 124.5t153 46.5q61 0 129.5 -13.5t86.5 -13.5q37 0 68.5 4t50 8t23.5 4q18 0 18 -17q0 -5 -4.5 -14.5t-15 -34.5t-20.5 -59q-23 -73 -47.5 -199t-24.5 -196q0 -56 33 -56zM473 354h65q21 99 75 204q-40 -32 -79 -93.5t-61 -110.5zM606 676q-41 0 -73 26t-32 64 q0 17 12.5 29.5t28.5 12.5q29 0 29 -26q0 -8 -4 -16t-4 -15q0 -12 13.5 -19.5t35.5 -7.5q58 0 58 42t33 42q16 0 25 -8t9 -21q0 -25 -17 -51q-37 -52 -114 -52zM659 836q-1 -9 -14 -9q-6 -1 -13.5 -3t-9.5 -2q-6 0 -6 5q-2 22 28.5 62.5t30.5 59.5q0 26 -29 26 q-10 0 -16.5 -6t-6.5 -14q0 -4 7 -10.5t7 -13.5t-7 -13.5t-18 -6.5q-14 0 -23 9.5t-9 22.5q0 25 22 44t56 18q37 -1 58.5 -16.5t20.5 -47.5q0 -23 -17.5 -41.5t-37.5 -34t-23 -29.5z" />
<glyph unicode="&#x1eb3;" horiz-adv-x="423" d="M227 239q0 29 -30 29q-26 0 -45.5 -29.5t-28 -64.5t-8.5 -66q0 -47 34 -47q32 0 52 47q9 21 17.5 62t8.5 69zM422 61q-51 -66 -127 -66q-37 0 -61 26q-11 11 -16 27q-16 -16 -36 -27q-46 -26 -90 -26q-47 0 -77 30.5t-30 86.5q0 82 51.5 141t151.5 59q32 0 56.5 -9.5 t27.5 -9.5q7 0 39 9.5t44 9.5q15 0 15 -15q0 -5 -17.5 -69.5t-17.5 -110.5q0 -20 9.5 -30.5t24.5 -10.5q17 0 38 21q10 10 17 10q14 0 14 -14q0 -13 -16 -32zM198 343q-41 0 -73 26t-32 64q0 17 12.5 29.5t28.5 12.5q29 0 29 -26q0 -8 -4 -16t-4 -15q0 -12 13.5 -19.5 t35.5 -7.5q58 0 58 42t33 42q16 0 25 -8t9 -21q0 -25 -17 -51q-37 -52 -114 -52zM246 491q-2 -9 -14 -9q-6 -1 -13.5 -3t-9.5 -2q-6 0 -6 5q-2 22 28.5 62.5t30.5 59.5q0 26 -29 26q-10 0 -16.5 -6t-6.5 -14q0 -4 7 -10.5t7 -13.5t-7 -13.5t-18 -6.5q-14 0 -23 9.5t-9 22.5 q0 25 22 44t56 18q37 -1 58.5 -16.5t20.5 -47.5q0 -23 -17.5 -41.5t-37.5 -34t-23 -29.5z" />
<glyph unicode="&#x1eb4;" horiz-adv-x="721" d="M668 76q17 0 38 21q10 10 17 10q14 0 14 -14q0 -13 -16 -32q-51 -66 -127 -66q-97 0 -97 111q0 68 24 185q-37 0 -60 -16.5t-43 -53.5q-20 -38 -27.5 -51.5t-27 -45.5t-31 -45t-33 -34.5t-41 -30.5t-46 -16.5t-55.5 -7.5q-68 0 -112.5 39t-44.5 101q0 63 49 100t90 37 q14 0 14 -13q0 -5 -9 -20.5t-9 -28.5q0 -52 58 -52q22 0 43.5 13.5t46.5 46t36.5 50t38.5 61.5q12 20 41 68t44.5 73t40 57.5t46.5 52.5q-64 20 -130 20q-41 0 -69 -22t-28 -51q0 -44 42 -44q9 0 18.5 5t11.5 5q11 0 11 -11q0 -32 -35 -66.5t-83 -34.5t-81 32.5t-33 83.5 q0 78 64 124.5t153 46.5q61 0 129.5 -13.5t86.5 -13.5q37 0 68.5 4t50 8t23.5 4q18 0 18 -17q0 -5 -4.5 -14.5t-15 -34.5t-20.5 -59q-23 -73 -47.5 -199t-24.5 -196q0 -56 33 -56zM473 354h65q21 99 75 204q-40 -32 -79 -93.5t-61 -110.5zM606 676q-41 0 -73 26t-32 64 q0 17 12.5 29.5t28.5 12.5q29 0 29 -26q0 -8 -4 -16t-4 -15q0 -12 13.5 -19.5t35.5 -7.5q58 0 58 42t33 42q16 0 25 -8t9 -21q0 -25 -17 -51q-37 -52 -114 -52zM685 836q-23 0 -64 17.5t-63 17.5q-14 0 -34.5 -9.5t-23.5 -9.5q-12 0 -12 12q0 8 10 22q13 20 37 37.5t47 17.5 q22 0 58.5 -18t60.5 -18q18 0 40 11t25 11q13 0 13 -10q0 -8 -6 -18q-14 -19 -24.5 -30.5t-28 -22t-35.5 -10.5z" />
<glyph unicode="&#x1eb5;" horiz-adv-x="423" d="M227 239q0 29 -30 29q-26 0 -45.5 -29.5t-28 -64.5t-8.5 -66q0 -47 34 -47q32 0 52 47q9 21 17.5 62t8.5 69zM422 61q-51 -66 -127 -66q-37 0 -61 26q-11 11 -16 27q-16 -16 -36 -27q-46 -26 -90 -26q-47 0 -77 30.5t-30 86.5q0 82 51.5 141t151.5 59q32 0 56.5 -9.5 t27.5 -9.5q7 0 39 9.5t44 9.5q15 0 15 -15q0 -5 -17.5 -69.5t-17.5 -110.5q0 -20 9.5 -30.5t24.5 -10.5q17 0 38 21q10 10 17 10q14 0 14 -14q0 -13 -16 -32zM198 343q-41 0 -73 26t-32 64q0 17 12.5 29.5t28.5 12.5q29 0 29 -26q0 -8 -4 -16t-4 -15q0 -12 13.5 -19.5 t35.5 -7.5q58 0 58 42t33 42q16 0 25 -8t9 -21q0 -25 -17 -51q-37 -52 -114 -52zM278 511q-23 0 -64 17.5t-63 17.5q-14 0 -34.5 -9.5t-23.5 -9.5q-12 0 -12 12q0 8 10 22q13 20 37 37.5t47 17.5q22 0 58.5 -18t60.5 -18q18 0 40 11t25 11q13 0 13 -10q0 -8 -6 -18 q-14 -19 -24.5 -30.5t-28 -22t-35.5 -10.5z" />
<glyph unicode="&#x1eb6;" horiz-adv-x="721" d="M355 -130q0 26 20 49.5t46 23.5q18 0 29 -13t11 -33q0 -27 -20 -50.5t-48 -23.5q-17 0 -27.5 13t-10.5 34zM668 76q17 0 38 21q10 10 17 10q14 0 14 -14q0 -13 -16 -32q-51 -66 -127 -66q-97 0 -97 111q0 68 24 185q-37 0 -60 -16.5t-43 -53.5q-20 -38 -27.5 -51.5 t-27 -45.5t-31 -45t-33 -34.5t-41 -30.5t-46 -16.5t-55.5 -7.5q-68 0 -112.5 39t-44.5 101q0 63 49 100t90 37q14 0 14 -13q0 -5 -9 -20.5t-9 -28.5q0 -52 58 -52q22 0 43.5 13.5t46.5 46t36.5 50t38.5 61.5q12 20 41 68t44.5 73t40 57.5t46.5 52.5q-64 20 -130 20 q-41 0 -69 -22t-28 -51q0 -44 42 -44q9 0 18.5 5t11.5 5q11 0 11 -11q0 -32 -35 -66.5t-83 -34.5t-81 32.5t-33 83.5q0 78 64 124.5t153 46.5q61 0 129.5 -13.5t86.5 -13.5q37 0 68.5 4t50 8t23.5 4q18 0 18 -17q0 -5 -4.5 -14.5t-15 -34.5t-20.5 -59q-23 -73 -47.5 -199 t-24.5 -196q0 -56 33 -56zM473 354h65q21 99 75 204q-40 -32 -79 -93.5t-61 -110.5zM606 676q-41 0 -73 26t-32 64q0 17 12.5 29.5t28.5 12.5q29 0 29 -26q0 -8 -4 -16t-4 -15q0 -12 13.5 -19.5t35.5 -7.5q58 0 58 42t33 42q16 0 25 -8t9 -21q0 -25 -17 -51 q-37 -52 -114 -52z" />
<glyph unicode="&#x1eb7;" horiz-adv-x="423" d="M227 239q0 29 -30 29q-26 0 -45.5 -29.5t-28 -64.5t-8.5 -66q0 -47 34 -47q32 0 52 47q9 21 17.5 62t8.5 69zM422 61q-51 -66 -127 -66q-37 0 -61 26q-11 11 -16 27q-16 -16 -36 -27q-46 -26 -90 -26q-47 0 -77 30.5t-30 86.5q0 82 51.5 141t151.5 59q32 0 56.5 -9.5 t27.5 -9.5q7 0 39 9.5t44 9.5q15 0 15 -15q0 -5 -17.5 -69.5t-17.5 -110.5q0 -20 9.5 -30.5t24.5 -10.5q17 0 38 21q10 10 17 10q14 0 14 -14q0 -13 -16 -32zM109 -130q0 26 20 49.5t46 23.5q18 0 29 -13t11 -33q0 -27 -20 -50.5t-48 -23.5q-17 0 -27.5 13t-10.5 34z M198 343q-41 0 -73 26t-32 64q0 17 12.5 29.5t28.5 12.5q29 0 29 -26q0 -8 -4 -16t-4 -15q0 -12 13.5 -19.5t35.5 -7.5q58 0 58 42t33 42q16 0 25 -8t9 -21q0 -25 -17 -51q-37 -52 -114 -52z" />
<glyph unicode="&#x1eb8;" horiz-adv-x="454" d="M157 216q0 -52 31.5 -81.5t81.5 -29.5q58 0 107 61q20 20 24 20q13 0 13 -11q0 -5 -8 -27q-10 -25 -24.5 -48.5t-39 -51t-63 -44.5t-83.5 -17q-83 0 -139.5 52.5t-56.5 131.5q0 147 148 213q-52 52 -52 114q0 67 60 116t138 49q66 0 102 -27.5t36 -78.5q0 -39 -18.5 -63 t-50.5 -24q-21 0 -35 12t-14 32q0 21 21 38.5t21 31.5q0 25 -34 25q-39 0 -65.5 -38t-26.5 -92q0 -28 10 -46q6 -10 11 -13l14 4q11 4 40 4q24 0 38.5 -12.5t14.5 -32.5q0 -25 -18 -40t-47 -15q-45 0 -81 21q-17 -12 -36 -51t-19 -82zM163 -130q0 26 20 49.5t46 23.5 q18 0 29 -13t11 -33q0 -27 -20 -50.5t-48 -23.5q-17 0 -27.5 13t-10.5 34z" />
<glyph unicode="&#x1eb9;" horiz-adv-x="330" d="M128 163q39 8 66.5 36t27.5 49q0 23 -24 23t-47 -33t-23 -75zM203 59q49 0 108 51q13 12 21 12q12 0 12 -12q0 -13 -20 -34q-23 -24 -40.5 -38.5t-55.5 -30t-83 -15.5q-75 0 -117.5 34t-42.5 104q0 76 58 130t153 54q49 0 74 -19.5t25 -53.5q0 -44 -47 -79t-120 -41 q0 -27 20 -44.5t55 -17.5zM94 -130q0 26 20 49.5t46 23.5q18 0 29 -13t11 -33q0 -27 -20 -50.5t-48 -23.5q-17 0 -27.5 13t-10.5 34z" />
<glyph unicode="&#x1eba;" horiz-adv-x="454" d="M157 216q0 -52 31.5 -81.5t81.5 -29.5q58 0 107 61q20 20 24 20q13 0 13 -11q0 -5 -8 -27q-10 -25 -24.5 -48.5t-39 -51t-63 -44.5t-83.5 -17q-83 0 -139.5 52.5t-56.5 131.5q0 147 148 213q-52 52 -52 114q0 67 60 116t138 49q66 0 102 -27.5t36 -78.5q0 -39 -18.5 -63 t-50.5 -24q-21 0 -35 12t-14 32q0 21 21 38.5t21 31.5q0 25 -34 25q-39 0 -65.5 -38t-26.5 -92q0 -28 10 -46q6 -10 11 -13l14 4q11 4 40 4q24 0 38.5 -12.5t14.5 -32.5q0 -25 -18 -40t-47 -15q-45 0 -81 21q-17 -12 -36 -51t-19 -82zM349 699q-1 -9 -14 -9q-6 -1 -13.5 -3 t-9.5 -2q-6 0 -6 5q-2 22 28.5 62.5t30.5 59.5q0 26 -29 26q-10 0 -16.5 -6t-6.5 -14q0 -4 7 -10.5t7 -13.5t-7 -13.5t-18 -6.5q-14 0 -23 9.5t-9 22.5q0 25 22 44t56 18q37 -1 58.5 -16.5t20.5 -47.5q0 -23 -17.5 -41.5t-37.5 -34t-23 -29.5z" />
<glyph unicode="&#x1ebb;" horiz-adv-x="330" d="M128 163q39 8 66.5 36t27.5 49q0 23 -24 23t-47 -33t-23 -75zM203 59q49 0 108 51q13 12 21 12q12 0 12 -12q0 -13 -20 -34q-23 -24 -40.5 -38.5t-55.5 -30t-83 -15.5q-75 0 -117.5 34t-42.5 104q0 76 58 130t153 54q49 0 74 -19.5t25 -53.5q0 -44 -47 -79t-120 -41 q0 -27 20 -44.5t55 -17.5zM215 375q-1 -9 -14 -9q-6 -1 -13.5 -3t-9.5 -2q-6 0 -6 5q-2 22 28.5 62.5t30.5 59.5q0 26 -29 26q-10 0 -16.5 -6t-6.5 -14q0 -4 7 -10.5t7 -13.5t-7 -13.5t-18 -6.5q-14 0 -23 9.5t-9 22.5q0 25 22 44t56 18q37 -1 58.5 -16.5t20.5 -47.5 q0 -23 -17.5 -41.5t-37.5 -34t-23 -29.5z" />
<glyph unicode="&#x1ebc;" horiz-adv-x="454" d="M157 216q0 -52 31.5 -81.5t81.5 -29.5q58 0 107 61q20 20 24 20q13 0 13 -11q0 -5 -8 -27q-10 -25 -24.5 -48.5t-39 -51t-63 -44.5t-83.5 -17q-83 0 -139.5 52.5t-56.5 131.5q0 147 148 213q-52 52 -52 114q0 67 60 116t138 49q66 0 102 -27.5t36 -78.5q0 -39 -18.5 -63 t-50.5 -24q-21 0 -35 12t-14 32q0 21 21 38.5t21 31.5q0 25 -34 25q-39 0 -65.5 -38t-26.5 -92q0 -28 10 -46q6 -10 11 -13l14 4q11 4 40 4q24 0 38.5 -12.5t14.5 -32.5q0 -25 -18 -40t-47 -15q-45 0 -81 21q-17 -12 -36 -51t-19 -82zM349 689q-23 0 -64 17.5t-63 17.5 q-14 0 -34.5 -9.5t-23.5 -9.5q-12 0 -12 12q0 8 10 22q13 20 37 37.5t47 17.5q22 0 58.5 -18t60.5 -18q18 0 40 11t25 11q13 0 13 -10q0 -8 -6 -18q-14 -19 -24.5 -30.5t-28 -22t-35.5 -10.5z" />
<glyph unicode="&#x1ebd;" horiz-adv-x="330" d="M128 163q39 8 66.5 36t27.5 49q0 23 -24 23t-47 -33t-23 -75zM203 59q49 0 108 51q13 12 21 12q12 0 12 -12q0 -13 -20 -34q-23 -24 -40.5 -38.5t-55.5 -30t-83 -15.5q-75 0 -117.5 34t-42.5 104q0 76 58 130t153 54q49 0 74 -19.5t25 -53.5q0 -44 -47 -79t-120 -41 q0 -27 20 -44.5t55 -17.5zM227 343q-23 0 -64 17.5t-63 17.5q-14 0 -34.5 -9.5t-23.5 -9.5q-12 0 -12 12q0 8 10 22q13 20 37 37.5t47 17.5q22 0 58.5 -18t60.5 -18q18 0 40 11t25 11q13 0 13 -10q0 -8 -6 -18q-14 -19 -24.5 -30.5t-28 -22t-35.5 -10.5z" />
<glyph unicode="&#x1ebe;" horiz-adv-x="398" d="M157 216q0 -52 31.5 -81.5t81.5 -29.5q58 0 107 61q20 20 24 20q13 0 13 -11q0 -5 -8 -27q-10 -25 -24.5 -48.5t-39 -51t-63 -44.5t-83.5 -17q-83 0 -139.5 52.5t-56.5 131.5q0 147 148 213q-52 52 -52 114q0 67 60 116t138 49q66 0 102 -27.5t36 -78.5q0 -39 -18.5 -63 t-50.5 -24q-21 0 -35 12t-14 32q0 21 21 38.5t21 31.5q0 25 -34 25q-39 0 -65.5 -38t-26.5 -92q0 -28 10 -46q6 -10 11 -13l14 4q11 4 40 4q24 0 38.5 -12.5t14.5 -32.5q0 -25 -18 -40t-47 -15q-45 0 -81 21q-17 -12 -36 -51t-19 -82zM309 733q-100 -60 -113 -60 q-16 0 -16 14q0 13 15 23q37 28 77 71q2 2 8 9.5t8.5 9.5t8 6t11 5.5t12.5 1.5t12 -1.5t8 -3t6.5 -6t4.5 -6.5t4 -9.5t4 -9.5q5 -12 11.5 -23t11 -16t13 -15t11.5 -13t7 -6.5t5.5 -5.5t3 -4.5t1.5 -5.5q0 -15 -17 -15q-32 0 -97 60zM350 983q11 0 30 -23.5t19 -38.5 q0 -21 -23 -40q-29 -24 -66 -38t-63 -14q-17 0 -17 14q0 10 15 19q59 35 82 102q7 19 23 19z" />
<glyph unicode="&#x1ebf;" horiz-adv-x="330" d="M128 163q39 8 66.5 36t27.5 49q0 23 -24 23t-47 -33t-23 -75zM203 59q49 0 108 51q13 12 21 12q12 0 12 -12q0 -13 -20 -34q-23 -24 -40.5 -38.5t-55.5 -30t-83 -15.5q-75 0 -117.5 34t-42.5 104q0 76 58 130t153 54q49 0 74 -19.5t25 -53.5q0 -44 -47 -79t-120 -41 q0 -27 20 -44.5t55 -17.5zM188 388q-100 -60 -113 -60q-16 0 -16 14q0 12 15 23q37 28 77 71q2 2 8 9.5t8.5 9.5t8 6t11 5.5t12.5 1.5t12 -1.5t8 -3t6.5 -6t4.5 -6.5t4 -9.5t4 -9.5q5 -12 11.5 -23t11 -16t13 -15t11.5 -13t7 -6.5t5.5 -5.5t3 -4.5t1.5 -5.5q0 -15 -17 -15 q-32 0 -97 60zM242 649q11 0 30 -23.5t19 -38.5q0 -21 -23 -40q-29 -24 -66 -38t-63 -14q-17 0 -17 14q0 10 15 19q59 35 82 102q7 19 23 19z" />
<glyph unicode="&#x1ec0;" horiz-adv-x="398" d="M157 216q0 -52 31.5 -81.5t81.5 -29.5q58 0 107 61q20 20 24 20q13 0 13 -11q0 -5 -8 -27q-10 -25 -24.5 -48.5t-39 -51t-63 -44.5t-83.5 -17q-83 0 -139.5 52.5t-56.5 131.5q0 147 148 213q-52 52 -52 114q0 67 60 116t138 49q66 0 102 -27.5t36 -78.5q0 -39 -18.5 -63 t-50.5 -24q-21 0 -35 12t-14 32q0 21 21 38.5t21 31.5q0 25 -34 25q-39 0 -65.5 -38t-26.5 -92q0 -28 10 -46q6 -10 11 -13l14 4q11 4 40 4q24 0 38.5 -12.5t14.5 -32.5q0 -25 -18 -40t-47 -15q-45 0 -81 21q-17 -12 -36 -51t-19 -82zM309 733q-100 -60 -113 -60 q-16 0 -16 14q0 13 15 23q37 28 77 71q2 2 8 9.5t8.5 9.5t8 6t11 5.5t12.5 1.5t12 -1.5t8 -3t6.5 -6t4.5 -6.5t4 -9.5t4 -9.5q5 -12 11.5 -23t11 -16t13 -15t11.5 -13t7 -6.5t5.5 -5.5t3 -4.5t1.5 -5.5q0 -15 -17 -15q-32 0 -97 60zM297 999q16 0 23 -19q23 -67 82 -102 q15 -9 15 -19q0 -14 -17 -14q-26 0 -63 14t-66 38q-23 19 -23 40q0 15 19 38.5t30 23.5z" />
<glyph unicode="&#x1ec1;" horiz-adv-x="330" d="M128 163q39 8 66.5 36t27.5 49q0 23 -24 23t-47 -33t-23 -75zM203 59q49 0 108 51q13 12 21 12q12 0 12 -12q0 -13 -20 -34q-23 -24 -40.5 -38.5t-55.5 -30t-83 -15.5q-75 0 -117.5 34t-42.5 104q0 76 58 130t153 54q49 0 74 -19.5t25 -53.5q0 -44 -47 -79t-120 -41 q0 -27 20 -44.5t55 -17.5zM188 388q-100 -60 -113 -60q-16 0 -16 14q0 12 15 23q37 28 77 71q2 2 8 9.5t8.5 9.5t8 6t11 5.5t12.5 1.5t12 -1.5t8 -3t6.5 -6t4.5 -6.5t4 -9.5t4 -9.5q5 -12 11.5 -23t11 -16t13 -15t11.5 -13t7 -6.5t5.5 -5.5t3 -4.5t1.5 -5.5q0 -15 -17 -15 q-32 0 -97 60zM169 653q16 0 23 -19q23 -67 82 -102q15 -9 15 -19q0 -14 -17 -14q-26 0 -63 14t-66 38q-23 19 -23 40q0 15 19 38.5t30 23.5z" />
<glyph unicode="&#x1ec2;" horiz-adv-x="398" d="M157 216q0 -52 31.5 -81.5t81.5 -29.5q58 0 107 61q20 20 24 20q13 0 13 -11q0 -5 -8 -27q-10 -25 -24.5 -48.5t-39 -51t-63 -44.5t-83.5 -17q-83 0 -139.5 52.5t-56.5 131.5q0 147 148 213q-52 52 -52 114q0 67 60 116t138 49q66 0 102 -27.5t36 -78.5q0 -39 -18.5 -63 t-50.5 -24q-21 0 -35 12t-14 32q0 21 21 38.5t21 31.5q0 25 -34 25q-39 0 -65.5 -38t-26.5 -92q0 -28 10 -46q6 -10 11 -13l14 4q11 4 40 4q24 0 38.5 -12.5t14.5 -32.5q0 -25 -18 -40t-47 -15q-45 0 -81 21q-17 -12 -36 -51t-19 -82zM309 733q-100 -60 -113 -60 q-16 0 -16 14q0 13 15 23q37 28 77 71q2 2 8 9.5t8.5 9.5t8 6t11 5.5t12.5 1.5t12 -1.5t8 -3t6.5 -6t4.5 -6.5t4 -9.5t4 -9.5q5 -12 11.5 -23t11 -16t13 -15t11.5 -13t7 -6.5t5.5 -5.5t3 -4.5t1.5 -5.5q0 -15 -17 -15q-32 0 -97 60zM407 836q-1 -9 -14 -9q-6 -1 -13.5 -3 t-9.5 -2q-6 0 -6 5q-2 22 28.5 62.5t30.5 59.5q0 26 -29 26q-10 0 -16.5 -6t-6.5 -14q0 -4 7 -10.5t7 -13.5t-7 -13.5t-18 -6.5q-14 0 -23 9.5t-9 22.5q0 25 22 44t56 18q37 -1 58.5 -16.5t20.5 -47.5q0 -23 -17.5 -41.5t-37.5 -34t-23 -29.5z" />
<glyph unicode="&#x1ec3;" horiz-adv-x="330" d="M128 163q39 8 66.5 36t27.5 49q0 23 -24 23t-47 -33t-23 -75zM203 59q49 0 108 51q13 12 21 12q12 0 12 -12q0 -13 -20 -34q-23 -24 -40.5 -38.5t-55.5 -30t-83 -15.5q-75 0 -117.5 34t-42.5 104q0 76 58 130t153 54q49 0 74 -19.5t25 -53.5q0 -44 -47 -79t-120 -41 q0 -27 20 -44.5t55 -17.5zM188 388q-100 -60 -113 -60q-16 0 -16 14q0 12 15 23q37 28 77 71q2 2 8 9.5t8.5 9.5t8 6t11 5.5t12.5 1.5t12 -1.5t8 -3t6.5 -6t4.5 -6.5t4 -9.5t4 -9.5q5 -12 11.5 -23t11 -16t13 -15t11.5 -13t7 -6.5t5.5 -5.5t3 -4.5t1.5 -5.5q0 -15 -17 -15 q-32 0 -97 60zM275 488q-1 -9 -14 -9q-6 -1 -13.5 -3t-9.5 -2q-6 0 -6 5q-2 22 28.5 62.5t30.5 59.5q0 26 -29 26q-10 0 -16.5 -6t-6.5 -14q0 -4 7 -10.5t7 -13.5t-7 -13.5t-18 -6.5q-14 0 -23 9.5t-9 22.5q0 25 22 44t56 18q37 -1 58.5 -16.5t20.5 -47.5q0 -23 -17.5 -41.5 t-37.5 -34t-23 -29.5z" />
<glyph unicode="&#x1ec4;" horiz-adv-x="398" d="M157 216q0 -52 31.5 -81.5t81.5 -29.5q58 0 107 61q20 20 24 20q13 0 13 -11q0 -5 -8 -27q-10 -25 -24.5 -48.5t-39 -51t-63 -44.5t-83.5 -17q-83 0 -139.5 52.5t-56.5 131.5q0 147 148 213q-52 52 -52 114q0 67 60 116t138 49q66 0 102 -27.5t36 -78.5q0 -39 -18.5 -63 t-50.5 -24q-21 0 -35 12t-14 32q0 21 21 38.5t21 31.5q0 25 -34 25q-39 0 -65.5 -38t-26.5 -92q0 -28 10 -46q6 -10 11 -13l14 4q11 4 40 4q24 0 38.5 -12.5t14.5 -32.5q0 -25 -18 -40t-47 -15q-45 0 -81 21q-17 -12 -36 -51t-19 -82zM309 733q-100 -60 -113 -60 q-16 0 -16 14q0 13 15 23q37 28 77 71q2 2 8 9.5t8.5 9.5t8 6t11 5.5t12.5 1.5t12 -1.5t8 -3t6.5 -6t4.5 -6.5t4 -9.5t4 -9.5q5 -12 11.5 -23t11 -16t13 -15t11.5 -13t7 -6.5t5.5 -5.5t3 -4.5t1.5 -5.5q0 -15 -17 -15q-32 0 -97 60zM374 836q-23 0 -64 17.5t-63 17.5 q-14 0 -34.5 -9.5t-23.5 -9.5q-12 0 -12 12q0 8 10 22q13 20 37 37.5t47 17.5q22 0 58.5 -18t60.5 -18q18 0 40 11t25 11q13 0 13 -10q0 -8 -6 -18q-14 -19 -24.5 -30.5t-28 -22t-35.5 -10.5z" />
<glyph unicode="&#x1ec5;" horiz-adv-x="330" d="M128 163q39 8 66.5 36t27.5 49q0 23 -24 23t-47 -33t-23 -75zM203 59q49 0 108 51q13 12 21 12q12 0 12 -12q0 -13 -20 -34q-23 -24 -40.5 -38.5t-55.5 -30t-83 -15.5q-75 0 -117.5 34t-42.5 104q0 76 58 130t153 54q49 0 74 -19.5t25 -53.5q0 -44 -47 -79t-120 -41 q0 -27 20 -44.5t55 -17.5zM188 388q-100 -60 -113 -60q-16 0 -16 14q0 12 15 23q37 28 77 71q2 2 8 9.5t8.5 9.5t8 6t11 5.5t12.5 1.5t12 -1.5t8 -3t6.5 -6t4.5 -6.5t4 -9.5t4 -9.5q5 -12 11.5 -23t11 -16t13 -15t11.5 -13t7 -6.5t5.5 -5.5t3 -4.5t1.5 -5.5q0 -15 -17 -15 q-32 0 -97 60zM252 511q-23 0 -64 17.5t-63 17.5q-14 0 -34.5 -9.5t-23.5 -9.5q-12 0 -12 12q0 8 10 22q13 20 37 37.5t47 17.5q22 0 58.5 -18t60.5 -18q18 0 40 11t25 11q13 0 13 -10q0 -8 -6 -18q-14 -19 -24.5 -30.5t-28 -22t-35.5 -10.5z" />
<glyph unicode="&#x1ec6;" horiz-adv-x="454" d="M163 -130q0 26 20 49.5t46 23.5q18 0 29 -13t11 -33q0 -27 -20 -50.5t-48 -23.5q-17 0 -27.5 13t-10.5 34zM157 216q0 -52 31.5 -81.5t81.5 -29.5q58 0 107 61q20 20 24 20q13 0 13 -11q0 -5 -8 -27q-10 -25 -24.5 -48.5t-39 -51t-63 -44.5t-83.5 -17q-83 0 -139.5 52.5 t-56.5 131.5q0 147 148 213q-52 52 -52 114q0 67 60 116t138 49q66 0 102 -27.5t36 -78.5q0 -39 -18.5 -63t-50.5 -24q-21 0 -35 12t-14 32q0 21 21 38.5t21 31.5q0 25 -34 25q-39 0 -65.5 -38t-26.5 -92q0 -28 10 -46q6 -10 11 -13l14 4q11 4 40 4q24 0 38.5 -12.5 t14.5 -32.5q0 -25 -18 -40t-47 -15q-45 0 -81 21q-17 -12 -36 -51t-19 -82zM309 733q-100 -60 -113 -60q-16 0 -16 14q0 13 15 23q37 28 77 71q2 2 8 9.5t8.5 9.5t8 6t11 5.5t12.5 1.5t12 -1.5t8 -3t6.5 -6t4.5 -6.5t4 -9.5t4 -9.5q5 -12 11.5 -23t11 -16t13 -15t11.5 -13 t7 -6.5t5.5 -5.5t3 -4.5t1.5 -5.5q0 -15 -17 -15q-32 0 -97 60z" />
<glyph unicode="&#x1ec7;" horiz-adv-x="330" d="M128 163q39 8 66.5 36t27.5 49q0 23 -24 23t-47 -33t-23 -75zM203 59q49 0 108 51q13 12 21 12q12 0 12 -12q0 -13 -20 -34q-23 -24 -40.5 -38.5t-55.5 -30t-83 -15.5q-75 0 -117.5 34t-42.5 104q0 76 58 130t153 54q49 0 74 -19.5t25 -53.5q0 -44 -47 -79t-120 -41 q0 -27 20 -44.5t55 -17.5zM94 -130q0 26 20 49.5t46 23.5q18 0 29 -13t11 -33q0 -27 -20 -50.5t-48 -23.5q-17 0 -27.5 13t-10.5 34zM172 396q-100 -60 -113 -60q-16 0 -16 14q0 12 15 23q37 28 77 71q2 2 8 9.5t8.5 9.5t8 6t11 5.5t12.5 1.5t12 -1.5t8 -3t6.5 -6t4.5 -6.5 t4 -9.5t4 -9.5q5 -12 11.5 -23t11 -16t13 -15t11.5 -13t7 -6.5t5.5 -5.5t3 -4.5t1.5 -5.5q0 -15 -17 -15q-32 0 -97 60z" />
<glyph unicode="&#x1ec8;" horiz-adv-x="475" d="M463 589q-9 -21 -15 -68t-11 -100t-13 -114.5t-25.5 -117t-44.5 -101.5t-74 -73t-109 -27q-74 0 -122.5 42t-48.5 106q0 65 47.5 105t104.5 40q34 0 34 -13q0 -11 -13 -14q-19 -6 -33.5 -23.5t-14.5 -39.5q0 -26 17 -42.5t44 -16.5q44 0 72.5 41.5t41 102.5t20.5 123.5 t20 113t31 62.5q-143 -55 -143 -152q0 -36 24 -53q14 -12 15 -16q0 -15 -30 -15q-49 0 -91.5 31.5t-42.5 81.5q0 23 12 43.5t26.5 33.5t45 28t48.5 21.5t57.5 19.5t52.5 18q15 5 32 19.5t26 16.5q38 11 62 11q20 0 20 -15q0 -5 -22 -59zM438 699q-2 -9 -14 -9 q-6 -1 -13.5 -3t-9.5 -2q-6 0 -6 5q-2 22 28.5 62.5t30.5 59.5q0 26 -29 26q-10 0 -16.5 -6t-6.5 -14q0 -4 7 -10.5t7 -13.5t-7 -13.5t-18 -6.5q-14 0 -23 9.5t-9 22.5q0 25 22 44t56 18q37 -1 58.5 -16.5t20.5 -47.5q0 -23 -17.5 -41.5t-37.5 -34t-23 -29.5z" />
<glyph unicode="&#x1ec9;" horiz-adv-x="212" d="M84 -5q-49 0 -74 23t-25 60q0 36 16.5 93t16.5 72q0 9 -3 17.5t-3 14.5q0 16 33 26.5t78 10.5q34 0 34 -26q0 -17 -16 -75t-16 -94q0 -41 33 -41q17 0 38 21q10 10 17 10q14 0 14 -14q0 -13 -16 -32q-51 -66 -127 -66zM123 367q-1 -9 -14 -9q-6 -1 -13.5 -3t-9.5 -2 q-6 0 -6 5q-2 22 28.5 62.5t30.5 59.5q0 26 -29 26q-10 0 -16.5 -6t-6.5 -14q0 -4 7 -10.5t7 -13.5t-7 -13.5t-18 -6.5q-14 0 -23 9.5t-9 22.5q0 25 22 44t56 18q37 -1 58.5 -16.5t20.5 -47.5q0 -23 -17.5 -41.5t-37.5 -34t-23 -29.5z" />
<glyph unicode="&#x1eca;" horiz-adv-x="475" d="M463 589q-9 -21 -15 -68t-11 -100t-13 -114.5t-25.5 -117t-44.5 -101.5t-74 -73t-109 -27q-74 0 -122.5 42t-48.5 106q0 65 47.5 105t104.5 40q34 0 34 -13q0 -11 -13 -14q-19 -6 -33.5 -23.5t-14.5 -39.5q0 -26 17 -42.5t44 -16.5q44 0 72.5 41.5t41 102.5t20.5 123.5 t20 113t31 62.5q-143 -55 -143 -152q0 -36 24 -53q14 -12 15 -16q0 -15 -30 -15q-49 0 -91.5 31.5t-42.5 81.5q0 23 12 43.5t26.5 33.5t45 28t48.5 21.5t57.5 19.5t52.5 18q15 5 32 19.5t26 16.5q38 11 62 11q20 0 20 -15q0 -5 -22 -59zM184 -130q0 26 20 49.5t46 23.5 q18 0 29 -13t11 -33q0 -27 -20 -50.5t-48 -23.5q-17 0 -27.5 13t-10.5 34z" />
<glyph unicode="&#x1ecb;" horiz-adv-x="212" d="M44 419q0 30 23 56t51 26q26 0 41 -14.5t15 -38.5q0 -30 -23 -56.5t-51 -26.5q-23 0 -39.5 15.5t-16.5 38.5zM84 -5q-49 0 -74 23t-25 60q0 36 16.5 93t16.5 72q0 9 -3 17.5t-3 14.5q0 16 33 26.5t78 10.5q34 0 34 -26q0 -17 -16 -75t-16 -94q0 -41 33 -41q17 0 38 21 q10 10 17 10q14 0 14 -14q0 -13 -16 -32q-51 -66 -127 -66zM19 -130q0 26 20 49.5t46 23.5q18 0 29 -13t11 -33q0 -27 -20 -50.5t-48 -23.5q-17 0 -27.5 13t-10.5 34z" />
<glyph unicode="&#x1ecc;" horiz-adv-x="566" d="M174 247q0 -86 25.5 -129t66.5 -43q71 0 121.5 99.5t50.5 216.5q0 103 -77 103q-30 0 -57 -15q-14 -8 -19 -8q-9 0 -9 11q0 13 16 36.5t41 40.5q44 32 102 32q60 0 95 -39.5t35 -117.5q0 -108 -45 -211t-123.5 -168.5t-167.5 -65.5q-103 0 -166 62.5t-63 181.5 q0 87 24.5 160.5t64.5 122t91 83t102.5 49.5t100.5 15q91 0 91 -29q0 -10 -13 -10q-2 0 -17.5 1t-30.5 1q-101 0 -170 -101.5t-69 -277.5zM167 -130q0 26 20 49.5t46 23.5q18 0 29 -13t11 -33q0 -27 -20 -50.5t-48 -23.5q-17 0 -27.5 13t-10.5 34z" />
<glyph unicode="&#x1ecd;" horiz-adv-x="354" d="M199 316q57 0 91 -32.5t34 -84.5q0 -88 -52.5 -148t-141.5 -60q-66 0 -105.5 35.5t-39.5 95.5q0 78 58 136t156 58zM250 140q0 29 -20 38q-23 9 -31.5 18t-8.5 23q0 15 7.5 26.5t7.5 12.5q0 8 -9 8t-28 -14q-49 -39 -49 -114q0 -34 18 -54t47 -20q28 0 47 24t19 52z M71 -130q0 26 20 49.5t46 23.5q18 0 29 -13t11 -33q0 -27 -20 -50.5t-48 -23.5q-17 0 -27.5 13t-10.5 34z" />
<glyph unicode="&#x1ece;" horiz-adv-x="566" d="M174 247q0 -86 25.5 -129t66.5 -43q71 0 121.5 99.5t50.5 216.5q0 103 -77 103q-30 0 -57 -15q-14 -8 -19 -8q-9 0 -9 11q0 13 16 36.5t41 40.5q44 32 102 32q60 0 95 -39.5t35 -117.5q0 -108 -45 -211t-123.5 -168.5t-167.5 -65.5q-103 0 -166 62.5t-63 181.5 q0 87 24.5 160.5t64.5 122t91 83t102.5 49.5t100.5 15q91 0 91 -29q0 -10 -13 -10q-2 0 -17.5 1t-30.5 1q-101 0 -170 -101.5t-69 -277.5zM416 699q-2 -9 -14 -9q-6 -1 -13.5 -3t-9.5 -2q-6 0 -6 5q-2 22 28.5 62.5t30.5 59.5q0 26 -29 26q-10 0 -16.5 -6t-6.5 -14 q0 -4 7 -10.5t7 -13.5t-7 -13.5t-18 -6.5q-14 0 -23 9.5t-9 22.5q0 25 22 44t56 18q37 -1 58.5 -16.5t20.5 -47.5q0 -23 -17.5 -41.5t-37.5 -34t-23 -29.5z" />
<glyph unicode="&#x1ecf;" horiz-adv-x="354" d="M199 316q57 0 91 -32.5t34 -84.5q0 -88 -52.5 -148t-141.5 -60q-66 0 -105.5 35.5t-39.5 95.5q0 78 58 136t156 58zM250 140q0 29 -20 38q-23 9 -31.5 18t-8.5 23q0 15 7.5 26.5t7.5 12.5q0 8 -9 8t-28 -14q-49 -39 -49 -114q0 -34 18 -54t47 -20q28 0 47 24t19 52z M219 374q-1 -9 -14 -9q-6 -1 -13.5 -3t-9.5 -2q-6 0 -6 5q-2 22 28.5 62.5t30.5 59.5q0 26 -29 26q-10 0 -16.5 -6t-6.5 -14q0 -4 7 -10.5t7 -13.5t-7 -13.5t-18 -6.5q-14 0 -23 9.5t-9 22.5q0 25 22 44t56 18q37 -1 58.5 -16.5t20.5 -47.5q0 -23 -17.5 -41.5t-37.5 -34 t-23 -29.5z" />
<glyph unicode="&#x1ed0;" horiz-adv-x="566" d="M174 247q0 -86 25.5 -129t66.5 -43q71 0 121.5 99.5t50.5 216.5q0 103 -77 103q-30 0 -57 -15q-14 -8 -19 -8q-9 0 -9 11q0 13 16 36.5t41 40.5q44 32 102 32q60 0 95 -39.5t35 -117.5q0 -108 -45 -211t-123.5 -168.5t-167.5 -65.5q-103 0 -166 62.5t-63 181.5 q0 87 24.5 160.5t64.5 122t91 83t102.5 49.5t100.5 15q91 0 91 -29q0 -10 -13 -10q-2 0 -17.5 1t-30.5 1q-101 0 -170 -101.5t-69 -277.5zM377 739q-100 -60 -113 -60q-16 0 -16 14q0 13 15 23q37 28 77 71q2 2 8 9.5t8.5 9.5t8 6t11 5.5t12.5 1.5t12 -1.5t8 -3t6.5 -6 t4.5 -6.5t4 -9.5t4 -9.5q5 -12 11.5 -23t11 -16t13 -15t11.5 -13t7 -6.5t5.5 -5.5t3 -4.5t1.5 -5.5q0 -15 -17 -15q-32 0 -97 60zM427 985q11 0 30 -23.5t19 -38.5q0 -21 -23 -40q-29 -24 -66 -38t-63 -14q-17 0 -17 14q0 10 15 19q59 35 82 102q7 19 23 19z" />
<glyph unicode="&#x1ed1;" horiz-adv-x="354" d="M199 316q57 0 91 -32.5t34 -84.5q0 -88 -52.5 -148t-141.5 -60q-66 0 -105.5 35.5t-39.5 95.5q0 78 58 136t156 58zM250 140q0 29 -20 38q-23 9 -31.5 18t-8.5 23q0 15 7.5 26.5t7.5 12.5q0 8 -9 8t-28 -14q-49 -39 -49 -114q0 -34 18 -54t47 -20q28 0 47 24t19 52z M202 390q-100 -60 -113 -60q-16 0 -16 14q0 12 15 23q37 28 77 71q2 2 8 9.5t8.5 9.5t8 6t11 5.5t12.5 1.5t12 -1.5t8 -3t6.5 -6t4.5 -6.5t4 -9.5t4 -9.5q5 -12 11.5 -23t11 -16t13 -15t11.5 -13t7 -6.5t5.5 -5.5t3 -4.5t1.5 -5.5q0 -15 -17 -15q-32 0 -97 60zM249 649 q11 0 30 -23.5t19 -38.5q0 -21 -23 -40q-29 -24 -66 -38t-63 -14q-17 0 -17 14q0 10 15 19q59 35 82 102q7 19 23 19z" />
<glyph unicode="&#x1ed2;" horiz-adv-x="566" d="M174 247q0 -86 25.5 -129t66.5 -43q71 0 121.5 99.5t50.5 216.5q0 103 -77 103q-30 0 -57 -15q-14 -8 -19 -8q-9 0 -9 11q0 13 16 36.5t41 40.5q44 32 102 32q60 0 95 -39.5t35 -117.5q0 -108 -45 -211t-123.5 -168.5t-167.5 -65.5q-103 0 -166 62.5t-63 181.5 q0 87 24.5 160.5t64.5 122t91 83t102.5 49.5t100.5 15q91 0 91 -29q0 -10 -13 -10q-2 0 -17.5 1t-30.5 1q-101 0 -170 -101.5t-69 -277.5zM377 739q-100 -60 -113 -60q-16 0 -16 14q0 13 15 23q37 28 77 71q2 2 8 9.5t8.5 9.5t8 6t11 5.5t12.5 1.5t12 -1.5t8 -3t6.5 -6 t4.5 -6.5t4 -9.5t4 -9.5q5 -12 11.5 -23t11 -16t13 -15t11.5 -13t7 -6.5t5.5 -5.5t3 -4.5t1.5 -5.5q0 -15 -17 -15q-32 0 -97 60zM372 981q16 0 23 -19q23 -67 82 -102q15 -9 15 -19q0 -14 -17 -14q-26 0 -63 14t-66 38q-23 19 -23 40q0 15 19 38.5t30 23.5z" />
<glyph unicode="&#x1ed3;" horiz-adv-x="354" d="M199 316q57 0 91 -32.5t34 -84.5q0 -88 -52.5 -148t-141.5 -60q-66 0 -105.5 35.5t-39.5 95.5q0 78 58 136t156 58zM250 140q0 29 -20 38q-23 9 -31.5 18t-8.5 23q0 15 7.5 26.5t7.5 12.5q0 8 -9 8t-28 -14q-49 -39 -49 -114q0 -34 18 -54t47 -20q28 0 47 24t19 52z M202 390q-100 -60 -113 -60q-16 0 -16 14q0 12 15 23q37 28 77 71q2 2 8 9.5t8.5 9.5t8 6t11 5.5t12.5 1.5t12 -1.5t8 -3t6.5 -6t4.5 -6.5t4 -9.5t4 -9.5q5 -12 11.5 -23t11 -16t13 -15t11.5 -13t7 -6.5t5.5 -5.5t3 -4.5t1.5 -5.5q0 -15 -17 -15q-32 0 -97 60zM185 653 q16 0 23 -19q23 -67 82 -102q15 -9 15 -19q0 -14 -17 -14q-26 0 -63 14t-66 38q-23 19 -23 40q0 15 19 38.5t30 23.5z" />
<glyph unicode="&#x1ed4;" horiz-adv-x="566" d="M174 247q0 -86 25.5 -129t66.5 -43q71 0 121.5 99.5t50.5 216.5q0 103 -77 103q-30 0 -57 -15q-14 -8 -19 -8q-9 0 -9 11q0 13 16 36.5t41 40.5q44 32 102 32q60 0 95 -39.5t35 -117.5q0 -108 -45 -211t-123.5 -168.5t-167.5 -65.5q-103 0 -166 62.5t-63 181.5 q0 87 24.5 160.5t64.5 122t91 83t102.5 49.5t100.5 15q91 0 91 -29q0 -10 -13 -10q-2 0 -17.5 1t-30.5 1q-101 0 -170 -101.5t-69 -277.5zM377 739q-100 -60 -113 -60q-16 0 -16 14q0 13 15 23q37 28 77 71q2 2 8 9.5t8.5 9.5t8 6t11 5.5t12.5 1.5t12 -1.5t8 -3t6.5 -6 t4.5 -6.5t4 -9.5t4 -9.5q5 -12 11.5 -23t11 -16t13 -15t11.5 -13t7 -6.5t5.5 -5.5t3 -4.5t1.5 -5.5q0 -15 -17 -15q-32 0 -97 60zM477 836q-1 -9 -14 -9q-6 -1 -13.5 -3t-9.5 -2q-6 0 -6 5q-2 22 28.5 62.5t30.5 59.5q0 26 -29 26q-10 0 -16.5 -6t-6.5 -14q0 -4 7 -10.5 t7 -13.5t-7 -13.5t-18 -6.5q-14 0 -23 9.5t-9 22.5q0 25 22 44t56 18q37 -1 58.5 -16.5t20.5 -47.5q0 -23 -17.5 -41.5t-37.5 -34t-23 -29.5z" />
<glyph unicode="&#x1ed5;" horiz-adv-x="354" d="M199 316q57 0 91 -32.5t34 -84.5q0 -88 -52.5 -148t-141.5 -60q-66 0 -105.5 35.5t-39.5 95.5q0 78 58 136t156 58zM250 140q0 29 -20 38q-23 9 -31.5 18t-8.5 23q0 15 7.5 26.5t7.5 12.5q0 8 -9 8t-28 -14q-49 -39 -49 -114q0 -34 18 -54t47 -20q28 0 47 24t19 52z M202 390q-100 -60 -113 -60q-16 0 -16 14q0 12 15 23q37 28 77 71q2 2 8 9.5t8.5 9.5t8 6t11 5.5t12.5 1.5t12 -1.5t8 -3t6.5 -6t4.5 -6.5t4 -9.5t4 -9.5q5 -12 11.5 -23t11 -16t13 -15t11.5 -13t7 -6.5t5.5 -5.5t3 -4.5t1.5 -5.5q0 -15 -17 -15q-32 0 -97 60zM304 475 q-2 -9 -14 -9q-6 -1 -13.5 -3t-9.5 -2q-6 0 -6 5q-2 22 28.5 62.5t30.5 59.5q0 26 -29 26q-10 0 -16.5 -6t-6.5 -14q0 -4 7 -10.5t7 -13.5t-7 -13.5t-18 -6.5q-14 0 -23 9.5t-9 22.5q0 25 22 44t56 18q37 -1 58.5 -16.5t20.5 -47.5q0 -23 -17.5 -41.5t-37.5 -34t-23 -29.5z " />
<glyph unicode="&#x1ed6;" horiz-adv-x="566" d="M174 247q0 -86 25.5 -129t66.5 -43q71 0 121.5 99.5t50.5 216.5q0 103 -77 103q-30 0 -57 -15q-14 -8 -19 -8q-9 0 -9 11q0 13 16 36.5t41 40.5q44 32 102 32q60 0 95 -39.5t35 -117.5q0 -108 -45 -211t-123.5 -168.5t-167.5 -65.5q-103 0 -166 62.5t-63 181.5 q0 87 24.5 160.5t64.5 122t91 83t102.5 49.5t100.5 15q91 0 91 -29q0 -10 -13 -10q-2 0 -17.5 1t-30.5 1q-101 0 -170 -101.5t-69 -277.5zM377 739q-100 -60 -113 -60q-16 0 -16 14q0 13 15 23q37 28 77 71q2 2 8 9.5t8.5 9.5t8 6t11 5.5t12.5 1.5t12 -1.5t8 -3t6.5 -6 t4.5 -6.5t4 -9.5t4 -9.5q5 -12 11.5 -23t11 -16t13 -15t11.5 -13t7 -6.5t5.5 -5.5t3 -4.5t1.5 -5.5q0 -15 -17 -15q-32 0 -97 60zM453 836q-23 0 -64 17.5t-63 17.5q-14 0 -34.5 -9.5t-23.5 -9.5q-12 0 -12 12q0 8 10 22q13 20 37 37.5t47 17.5q22 0 58.5 -18t60.5 -18 q18 0 40 11t25 11q13 0 13 -10q0 -8 -6 -18q-14 -19 -24.5 -30.5t-28 -22t-35.5 -10.5z" />
<glyph unicode="&#x1ed7;" horiz-adv-x="354" d="M199 316q57 0 91 -32.5t34 -84.5q0 -88 -52.5 -148t-141.5 -60q-66 0 -105.5 35.5t-39.5 95.5q0 78 58 136t156 58zM250 140q0 29 -20 38q-23 9 -31.5 18t-8.5 23q0 15 7.5 26.5t7.5 12.5q0 8 -9 8t-28 -14q-49 -39 -49 -114q0 -34 18 -54t47 -20q28 0 47 24t19 52z M202 390q-100 -60 -113 -60q-16 0 -16 14q0 12 15 23q37 28 77 71q2 2 8 9.5t8.5 9.5t8 6t11 5.5t12.5 1.5t12 -1.5t8 -3t6.5 -6t4.5 -6.5t4 -9.5t4 -9.5q5 -12 11.5 -23t11 -16t13 -15t11.5 -13t7 -6.5t5.5 -5.5t3 -4.5t1.5 -5.5q0 -15 -17 -15q-32 0 -97 60zM278 511 q-23 0 -64 17.5t-63 17.5q-14 0 -34.5 -9.5t-23.5 -9.5q-12 0 -12 12q0 8 10 22q13 20 37 37.5t47 17.5q22 0 58.5 -18t60.5 -18q18 0 40 11t25 11q13 0 13 -10q0 -8 -6 -18q-14 -19 -24.5 -30.5t-28 -22t-35.5 -10.5z" />
<glyph unicode="&#x1ed8;" horiz-adv-x="566" d="M167 -130q0 26 20 49.5t46 23.5q18 0 29 -13t11 -33q0 -27 -20 -50.5t-48 -23.5q-17 0 -27.5 13t-10.5 34zM174 247q0 -86 25.5 -129t66.5 -43q71 0 121.5 99.5t50.5 216.5q0 103 -77 103q-30 0 -57 -15q-14 -8 -19 -8q-9 0 -9 11q0 13 16 36.5t41 40.5q44 32 102 32 q60 0 95 -39.5t35 -117.5q0 -108 -45 -211t-123.5 -168.5t-167.5 -65.5q-103 0 -166 62.5t-63 181.5q0 87 24.5 160.5t64.5 122t91 83t102.5 49.5t100.5 15q91 0 91 -29q0 -10 -13 -10q-2 0 -17.5 1t-30.5 1q-101 0 -170 -101.5t-69 -277.5zM377 739q-100 -60 -113 -60 q-16 0 -16 14q0 13 15 23q37 28 77 71q2 2 8 9.5t8.5 9.5t8 6t11 5.5t12.5 1.5t12 -1.5t8 -3t6.5 -6t4.5 -6.5t4 -9.5t4 -9.5q5 -12 11.5 -23t11 -16t13 -15t11.5 -13t7 -6.5t5.5 -5.5t3 -4.5t1.5 -5.5q0 -15 -17 -15q-32 0 -97 60z" />
<glyph unicode="&#x1ed9;" horiz-adv-x="354" d="M199 316q57 0 91 -32.5t34 -84.5q0 -88 -52.5 -148t-141.5 -60q-66 0 -105.5 35.5t-39.5 95.5q0 78 58 136t156 58zM250 140q0 29 -20 38q-23 9 -31.5 18t-8.5 23q0 15 7.5 26.5t7.5 12.5q0 8 -9 8t-28 -14q-49 -39 -49 -114q0 -34 18 -54t47 -20q28 0 47 24t19 52z M71 -130q0 26 20 49.5t46 23.5q18 0 29 -13t11 -33q0 -27 -20 -50.5t-48 -23.5q-17 0 -27.5 13t-10.5 34zM184 396q-100 -60 -113 -60q-16 0 -16 14q0 12 15 23q37 28 77 71q2 2 8 9.5t8.5 9.5t8 6t11 5.5t12.5 1.5t12 -1.5t8 -3t6.5 -6t4.5 -6.5t4 -9.5t4 -9.5 q5 -12 11.5 -23t11 -16t13 -15t11.5 -13t7 -6.5t5.5 -5.5t3 -4.5t1.5 -5.5q0 -15 -17 -15q-32 0 -97 60z" />
<glyph unicode="&#x1eda;" horiz-adv-x="566" d="M174 247q0 -86 25.5 -129t66.5 -43q71 0 121.5 99.5t50.5 216.5q0 103 -77 103q-30 0 -57 -15q-14 -8 -19 -8q-9 0 -9 11q0 13 16 36.5t41 40.5q44 32 102 32q32 0 52 -10q22 5 43 65q2 7 2.5 22t4.5 26q9 22 30.5 34.5t43.5 3.5q48 -16 25 -78q-13 -31 -48 -55.5 t-72 -35.5q49 -40 49 -129q0 -108 -45 -211t-123.5 -168.5t-167.5 -65.5q-103 0 -166 62.5t-63 181.5q0 87 24.5 160.5t64.5 122t91 83t102.5 49.5t100.5 15q91 0 91 -29q0 -10 -13 -10q-2 0 -17.5 1t-30.5 1q-101 0 -170 -101.5t-69 -277.5zM467 877q11 0 30 -23.5 t19 -38.5q0 -21 -23 -40q-29 -24 -66 -38t-63 -14q-17 0 -17 14q0 10 15 19q59 35 82 102q7 19 23 19z" />
<glyph unicode="&#x1edb;" horiz-adv-x="399" d="M199 316q75 0 109 -56q11 17 21 46q2 7 2.5 22t4.5 26q8 22 27 30t42 -1q50 -17 30 -69q-23 -58 -114 -89q3 -12 3 -26q0 -88 -52.5 -148t-141.5 -60q-66 0 -105.5 35.5t-39.5 95.5q0 78 58 136t156 58zM250 140q0 29 -20 38q-23 9 -31.5 18t-8.5 23q0 15 7.5 26.5 t7.5 12.5q0 8 -9 8t-28 -14q-49 -39 -49 -114q0 -34 18 -54t47 -20q28 0 47 24t19 52zM238 490q11 0 30 -23.5t19 -38.5q0 -21 -23 -40q-29 -24 -66 -38t-63 -14q-17 0 -17 14q0 10 15 19q59 35 82 102q7 19 23 19z" />
<glyph unicode="&#x1edc;" horiz-adv-x="566" d="M174 247q0 -86 25.5 -129t66.5 -43q71 0 121.5 99.5t50.5 216.5q0 103 -77 103q-30 0 -57 -15q-14 -8 -19 -8q-9 0 -9 11q0 13 16 36.5t41 40.5q44 32 102 32q32 0 52 -10q22 5 43 65q2 7 2.5 22t4.5 26q9 22 30.5 34.5t43.5 3.5q48 -16 25 -78q-13 -31 -48 -55.5 t-72 -35.5q49 -40 49 -129q0 -108 -45 -211t-123.5 -168.5t-167.5 -65.5q-103 0 -166 62.5t-63 181.5q0 87 24.5 160.5t64.5 122t91 83t102.5 49.5t100.5 15q91 0 91 -29q0 -10 -13 -10q-2 0 -17.5 1t-30.5 1q-101 0 -170 -101.5t-69 -277.5zM356 857q16 0 23 -19 q23 -67 82 -102q15 -9 15 -19q0 -14 -17 -14q-26 0 -63 14t-66 38q-23 19 -23 40q0 15 19 38.5t30 23.5z" />
<glyph unicode="&#x1edd;" horiz-adv-x="399" d="M199 316q75 0 109 -56q11 17 21 46q2 7 2.5 22t4.5 26q8 22 27 30t42 -1q50 -17 30 -69q-23 -58 -114 -89q3 -12 3 -26q0 -88 -52.5 -148t-141.5 -60q-66 0 -105.5 35.5t-39.5 95.5q0 78 58 136t156 58zM250 140q0 29 -20 38q-23 9 -31.5 18t-8.5 23q0 15 7.5 26.5 t7.5 12.5q0 8 -9 8t-28 -14q-49 -39 -49 -114q0 -34 18 -54t47 -20q28 0 47 24t19 52zM141 491q16 0 23 -19q23 -67 82 -102q15 -9 15 -19q0 -14 -17 -14q-26 0 -63 14t-66 38q-23 19 -23 40q0 15 19 38.5t30 23.5z" />
<glyph unicode="&#x1ede;" horiz-adv-x="566" d="M174 247q0 -86 25.5 -129t66.5 -43q71 0 121.5 99.5t50.5 216.5q0 103 -77 103q-30 0 -57 -15q-14 -8 -19 -8q-9 0 -9 11q0 13 16 36.5t41 40.5q44 32 102 32q32 0 52 -10q22 5 43 65q2 7 2.5 22t4.5 26q9 22 30.5 34.5t43.5 3.5q48 -16 25 -78q-13 -31 -48 -55.5 t-72 -35.5q49 -40 49 -129q0 -108 -45 -211t-123.5 -168.5t-167.5 -65.5q-103 0 -166 62.5t-63 181.5q0 87 24.5 160.5t64.5 122t91 83t102.5 49.5t100.5 15q91 0 91 -29q0 -10 -13 -10q-2 0 -17.5 1t-30.5 1q-101 0 -170 -101.5t-69 -277.5zM416 699q-2 -9 -14 -9 q-6 -1 -13.5 -3t-9.5 -2q-6 0 -6 5q-2 22 28.5 62.5t30.5 59.5q0 26 -29 26q-10 0 -16.5 -6t-6.5 -14q0 -4 7 -10.5t7 -13.5t-7 -13.5t-18 -6.5q-14 0 -23 9.5t-9 22.5q0 25 22 44t56 18q37 -1 58.5 -16.5t20.5 -47.5q0 -23 -17.5 -41.5t-37.5 -34t-23 -29.5z" />
<glyph unicode="&#x1edf;" horiz-adv-x="399" d="M199 316q75 0 109 -56q11 17 21 46q2 7 2.5 22t4.5 26q8 22 27 30t42 -1q50 -17 30 -69q-23 -58 -114 -89q3 -12 3 -26q0 -88 -52.5 -148t-141.5 -60q-66 0 -105.5 35.5t-39.5 95.5q0 78 58 136t156 58zM250 140q0 29 -20 38q-23 9 -31.5 18t-8.5 23q0 15 7.5 26.5 t7.5 12.5q0 8 -9 8t-28 -14q-49 -39 -49 -114q0 -34 18 -54t47 -20q28 0 47 24t19 52zM236 358q-2 -9 -14 -9q-6 -1 -13.5 -3t-9.5 -2q-6 0 -6 5q-2 22 28.5 62.5t30.5 59.5q0 26 -29 26q-10 0 -16.5 -6t-6.5 -14q0 -4 7 -10.5t7 -13.5t-7 -13.5t-18 -6.5q-14 0 -23 9.5 t-9 22.5q0 25 22 44t56 18q37 -1 58.5 -16.5t20.5 -47.5q0 -23 -17.5 -41.5t-37.5 -34t-23 -29.5z" />
<glyph unicode="&#x1ee0;" horiz-adv-x="566" d="M174 247q0 -86 25.5 -129t66.5 -43q71 0 121.5 99.5t50.5 216.5q0 103 -77 103q-30 0 -57 -15q-14 -8 -19 -8q-9 0 -9 11q0 13 16 36.5t41 40.5q44 32 102 32q32 0 52 -10q22 5 43 65q2 7 2.5 22t4.5 26q9 22 30.5 34.5t43.5 3.5q48 -16 25 -78q-13 -31 -48 -55.5 t-72 -35.5q49 -40 49 -129q0 -108 -45 -211t-123.5 -168.5t-167.5 -65.5q-103 0 -166 62.5t-63 181.5q0 87 24.5 160.5t64.5 122t91 83t102.5 49.5t100.5 15q91 0 91 -29q0 -10 -13 -10q-2 0 -17.5 1t-30.5 1q-101 0 -170 -101.5t-69 -277.5zM430 694q-23 0 -64 17.5 t-63 17.5q-14 0 -34.5 -9.5t-23.5 -9.5q-12 0 -12 12q0 8 10 22q13 20 37 37.5t47 17.5q22 0 58.5 -18t60.5 -18q18 0 40 11t25 11q13 0 13 -10q0 -8 -6 -18q-14 -19 -24.5 -30.5t-28 -22t-35.5 -10.5z" />
<glyph unicode="&#x1ee1;" horiz-adv-x="399" d="M199 316q75 0 109 -56q11 17 21 46q2 7 2.5 22t4.5 26q8 22 27 30t42 -1q50 -17 30 -69q-23 -58 -114 -89q3 -12 3 -26q0 -88 -52.5 -148t-141.5 -60q-66 0 -105.5 35.5t-39.5 95.5q0 78 58 136t156 58zM250 140q0 29 -20 38q-23 9 -31.5 18t-8.5 23q0 15 7.5 26.5 t7.5 12.5q0 8 -9 8t-28 -14q-49 -39 -49 -114q0 -34 18 -54t47 -20q28 0 47 24t19 52zM251 343q-23 0 -64 17.5t-63 17.5q-14 0 -34.5 -9.5t-23.5 -9.5q-12 0 -12 12q0 8 10 22q13 20 37 37.5t47 17.5q22 0 58.5 -18t60.5 -18q18 0 40 11t25 11q13 0 13 -10q0 -8 -6 -18 q-14 -19 -24.5 -30.5t-28 -22t-35.5 -10.5z" />
<glyph unicode="&#x1ee2;" horiz-adv-x="566" d="M174 247q0 -86 25.5 -129t66.5 -43q71 0 121.5 99.5t50.5 216.5q0 103 -77 103q-30 0 -57 -15q-14 -8 -19 -8q-9 0 -9 11q0 13 16 36.5t41 40.5q44 32 102 32q32 0 52 -10q22 5 43 65q2 7 2.5 22t4.5 26q9 22 30.5 34.5t43.5 3.5q48 -16 25 -78q-13 -31 -48 -55.5 t-72 -35.5q49 -40 49 -129q0 -108 -45 -211t-123.5 -168.5t-167.5 -65.5q-103 0 -166 62.5t-63 181.5q0 87 24.5 160.5t64.5 122t91 83t102.5 49.5t100.5 15q91 0 91 -29q0 -10 -13 -10q-2 0 -17.5 1t-30.5 1q-101 0 -170 -101.5t-69 -277.5zM230 -130q0 26 20 49.5t46 23.5 q18 0 29 -13t11 -33q0 -27 -20 -50.5t-48 -23.5q-17 0 -27.5 13t-10.5 34z" />
<glyph unicode="&#x1ee3;" horiz-adv-x="399" d="M199 316q75 0 109 -56q11 17 21 46q2 7 2.5 22t4.5 26q8 22 27 30t42 -1q50 -17 30 -69q-23 -58 -114 -89q3 -12 3 -26q0 -88 -52.5 -148t-141.5 -60q-66 0 -105.5 35.5t-39.5 95.5q0 78 58 136t156 58zM250 140q0 29 -20 38q-23 9 -31.5 18t-8.5 23q0 15 7.5 26.5 t7.5 12.5q0 8 -9 8t-28 -14q-49 -39 -49 -114q0 -34 18 -54t47 -20q28 0 47 24t19 52zM146 -130q0 26 20 49.5t46 23.5q18 0 29 -13t11 -33q0 -27 -20 -50.5t-48 -23.5q-17 0 -27.5 13t-10.5 34z" />
<glyph unicode="&#x1ee4;" horiz-adv-x="788" d="M702 132q0 -56 33 -56q17 0 38 21q10 10 17 10q14 0 14 -14q0 -13 -16 -32q-51 -66 -127 -66q-97 0 -97 111q0 4 1 20t1 18q-97 -154 -206 -154q-53 0 -87 34.5t-34 86.5q0 57 54 212.5t54 228.5q0 55 -44 55q-56 0 -104.5 -61.5t-48.5 -124.5q0 -23 11.5 -35.5 t28.5 -12.5q7 0 18 4t14 4q10 0 10 -11q0 -28 -38.5 -65t-88.5 -37q-46 0 -75.5 30.5t-29.5 83.5q0 121 101.5 201t224.5 80q74 0 116.5 -33.5t42.5 -97.5q0 -68 -40.5 -197t-40.5 -184q0 -46 41 -46q50 0 118 127q30 58 65 200.5t37 149.5q6 21 45.5 39t86.5 18 q19 0 19 -18q0 -5 -5 -14t-13 -24t-13 -28q-19 -68 -51 -218.5t-32 -204.5zM419 -130q0 26 20 49.5t46 23.5q18 0 29 -13t11 -33q0 -27 -20 -50.5t-48 -23.5q-17 0 -27.5 13t-10.5 34z" />
<glyph unicode="&#x1ee5;" horiz-adv-x="430" d="M303 -5q-50 0 -74 30q-11 14 -14 31q-21 -19 -42 -31q-54 -30 -109 -30q-37 0 -58 22.5t-21 54.5q0 34 17 95t17 76q0 9 -3.5 17.5t-3.5 14.5q0 16 33.5 26.5t78.5 10.5q34 0 34 -26q0 -19 -18.5 -83t-18.5 -103q0 -25 24 -25q38 0 60 41q35 59 35 127q0 9 -3.5 17.5 t-3.5 14.5q0 16 33.5 26.5t78.5 10.5q34 0 34 -26q0 -18 -17.5 -79t-17.5 -90q0 -41 32 -41q17 0 38 21q10 10 17 10q14 0 14 -14q0 -13 -16 -32q-51 -66 -126 -66zM107 -130q0 26 20 49.5t46 23.5q18 0 29 -13t11 -33q0 -27 -20 -50.5t-48 -23.5q-17 0 -27.5 13t-10.5 34z " />
<glyph unicode="&#x1ee6;" horiz-adv-x="788" d="M702 132q0 -56 33 -56q17 0 38 21q10 10 17 10q14 0 14 -14q0 -13 -16 -32q-51 -66 -127 -66q-97 0 -97 111q0 4 1 20t1 18q-97 -154 -206 -154q-53 0 -87 34.5t-34 86.5q0 57 54 212.5t54 228.5q0 55 -44 55q-56 0 -104.5 -61.5t-48.5 -124.5q0 -23 11.5 -35.5 t28.5 -12.5q7 0 18 4t14 4q10 0 10 -11q0 -28 -38.5 -65t-88.5 -37q-46 0 -75.5 30.5t-29.5 83.5q0 121 101.5 201t224.5 80q74 0 116.5 -33.5t42.5 -97.5q0 -68 -40.5 -197t-40.5 -184q0 -46 41 -46q50 0 118 127q30 58 65 200.5t37 149.5q6 21 45.5 39t86.5 18 q19 0 19 -18q0 -5 -5 -14t-13 -24t-13 -28q-19 -68 -51 -218.5t-32 -204.5zM628 699q-2 -9 -14 -9q-6 -1 -13.5 -3t-9.5 -2q-6 0 -6 5q-2 22 28.5 62.5t30.5 59.5q0 26 -29 26q-10 0 -16.5 -6t-6.5 -14q0 -4 7 -10.5t7 -13.5t-7 -13.5t-18 -6.5q-14 0 -23 9.5t-9 22.5 q0 25 22 44t56 18q37 -1 58.5 -16.5t20.5 -47.5q0 -23 -17.5 -41.5t-37.5 -34t-23 -29.5z" />
<glyph unicode="&#x1ee7;" horiz-adv-x="430" d="M303 -5q-50 0 -74 30q-11 14 -14 31q-21 -19 -42 -31q-54 -30 -109 -30q-37 0 -58 22.5t-21 54.5q0 34 17 95t17 76q0 9 -3.5 17.5t-3.5 14.5q0 16 33.5 26.5t78.5 10.5q34 0 34 -26q0 -19 -18.5 -83t-18.5 -103q0 -25 24 -25q38 0 60 41q35 59 35 127q0 9 -3.5 17.5 t-3.5 14.5q0 16 33.5 26.5t78.5 10.5q34 0 34 -26q0 -18 -17.5 -79t-17.5 -90q0 -41 32 -41q17 0 38 21q10 10 17 10q14 0 14 -14q0 -13 -16 -32q-51 -66 -126 -66zM239 365q-1 -9 -14 -9q-6 -1 -13.5 -3t-9.5 -2q-6 0 -6 5q-2 22 28.5 62.5t30.5 59.5q0 26 -29 26 q-10 0 -16.5 -6t-6.5 -14q0 -4 7 -10.5t7 -13.5t-7 -13.5t-18 -6.5q-14 0 -23 9.5t-9 22.5q0 25 22 44t56 18q37 -1 58.5 -16.5t20.5 -47.5q0 -23 -17.5 -41.5t-37.5 -34t-23 -29.5z" />
<glyph unicode="&#x1ee8;" horiz-adv-x="788" d="M702 132q0 -56 33 -56q17 0 38 21q10 10 17 10q14 0 14 -14q0 -13 -16 -32q-51 -66 -127 -66q-97 0 -97 111q0 4 1 20t1 18q-97 -154 -206 -154q-53 0 -87 34.5t-34 86.5q0 57 54 212.5t54 228.5q0 55 -44 55q-56 0 -104.5 -61.5t-48.5 -124.5q0 -23 11.5 -35.5 t28.5 -12.5q7 0 18 4t14 4q10 0 10 -11q0 -28 -38.5 -65t-88.5 -37q-46 0 -75.5 30.5t-29.5 83.5q0 121 101.5 201t224.5 80q74 0 116.5 -33.5t42.5 -97.5q0 -68 -40.5 -197t-40.5 -184q0 -46 41 -46q50 0 118 127q30 58 65 200.5t37 149.5q6 21 45.5 39t86.5 18 q19 0 19 -18q0 -4 -3 -9.5t-8.5 -14.5t-8.5 -16q22 5 43 65q2 7 2.5 22t4.5 26q9 22 30.5 34.5t43.5 3.5q48 -16 25 -78q-17 -44 -79 -74t-80 -22q-1 -1 -1 -3q-19 -68 -51 -218.5t-32 -204.5zM637 824q11 0 30 -23.5t19 -38.5q0 -21 -23 -40q-29 -24 -66 -38t-63 -14 q-17 0 -17 14q0 10 15 19q59 35 82 102q7 19 23 19z" />
<glyph unicode="&#x1ee9;" horiz-adv-x="475" d="M303 -5q-50 0 -74 30q-11 14 -14 31q-21 -19 -42 -31q-54 -30 -109 -30q-37 0 -58 22.5t-21 54.5q0 34 17 95t17 76q0 9 -3.5 17.5t-3.5 14.5q0 16 33.5 26.5t78.5 10.5q34 0 34 -26q0 -19 -18.5 -83t-18.5 -103q0 -25 24 -25q38 0 60 41q35 59 35 127q0 9 -3.5 17.5 t-3.5 14.5q0 16 33.5 26.5t78.5 10.5q34 0 34 -26q0 -8 -6 -38q15 13 31 58q2 7 2.5 22t4.5 26q8 22 27 30t42 -1q50 -17 30 -69q-16 -38 -63.5 -65t-82.5 -32q-20 -78 -20 -100q0 -41 32 -41q17 0 38 21q10 10 17 10q14 0 14 -14q0 -13 -16 -32q-51 -66 -126 -66zM287 488 q11 0 30 -23.5t19 -38.5q0 -21 -23 -40q-29 -24 -66 -38t-63 -14q-17 0 -17 14q0 10 15 19q59 35 82 102q7 19 23 19z" />
<glyph unicode="&#x1eea;" horiz-adv-x="788" d="M702 132q0 -56 33 -56q17 0 38 21q10 10 17 10q14 0 14 -14q0 -13 -16 -32q-51 -66 -127 -66q-97 0 -97 111q0 4 1 20t1 18q-97 -154 -206 -154q-53 0 -87 34.5t-34 86.5q0 57 54 212.5t54 228.5q0 55 -44 55q-56 0 -104.5 -61.5t-48.5 -124.5q0 -23 11.5 -35.5 t28.5 -12.5q7 0 18 4t14 4q10 0 10 -11q0 -28 -38.5 -65t-88.5 -37q-46 0 -75.5 30.5t-29.5 83.5q0 121 101.5 201t224.5 80q74 0 116.5 -33.5t42.5 -97.5q0 -68 -40.5 -197t-40.5 -184q0 -46 41 -46q50 0 118 127q30 58 65 200.5t37 149.5q6 21 45.5 39t86.5 18 q19 0 19 -18q0 -4 -3 -9.5t-8.5 -14.5t-8.5 -16q22 5 43 65q2 7 2.5 22t4.5 26q9 22 30.5 34.5t43.5 3.5q48 -16 25 -78q-17 -44 -79 -74t-80 -22q-1 -1 -1 -3q-19 -68 -51 -218.5t-32 -204.5zM557 823q16 0 23 -19q23 -67 82 -102q15 -9 15 -19q0 -14 -17 -14q-26 0 -63 14 t-66 38q-23 19 -23 40q0 15 19 38.5t30 23.5z" />
<glyph unicode="&#x1eeb;" horiz-adv-x="475" d="M303 -5q-50 0 -74 30q-11 14 -14 31q-21 -19 -42 -31q-54 -30 -109 -30q-37 0 -58 22.5t-21 54.5q0 34 17 95t17 76q0 9 -3.5 17.5t-3.5 14.5q0 16 33.5 26.5t78.5 10.5q34 0 34 -26q0 -19 -18.5 -83t-18.5 -103q0 -25 24 -25q38 0 60 41q35 59 35 127q0 9 -3.5 17.5 t-3.5 14.5q0 16 33.5 26.5t78.5 10.5q34 0 34 -26q0 -8 -6 -38q15 13 31 58q2 7 2.5 22t4.5 26q8 22 27 30t42 -1q50 -17 30 -69q-16 -38 -63.5 -65t-82.5 -32q-20 -78 -20 -100q0 -41 32 -41q17 0 38 21q10 10 17 10q14 0 14 -14q0 -13 -16 -32q-51 -66 -126 -66zM132 491 q16 0 23 -19q23 -67 82 -102q15 -9 15 -19q0 -14 -17 -14q-26 0 -63 14t-66 38q-23 19 -23 40q0 15 19 38.5t30 23.5z" />
<glyph unicode="&#x1eec;" horiz-adv-x="788" d="M702 132q0 -56 33 -56q17 0 38 21q10 10 17 10q14 0 14 -14q0 -13 -16 -32q-51 -66 -127 -66q-97 0 -97 111q0 4 1 20t1 18q-97 -154 -206 -154q-53 0 -87 34.5t-34 86.5q0 57 54 212.5t54 228.5q0 55 -44 55q-56 0 -104.5 -61.5t-48.5 -124.5q0 -23 11.5 -35.5 t28.5 -12.5q7 0 18 4t14 4q10 0 10 -11q0 -28 -38.5 -65t-88.5 -37q-46 0 -75.5 30.5t-29.5 83.5q0 121 101.5 201t224.5 80q74 0 116.5 -33.5t42.5 -97.5q0 -68 -40.5 -197t-40.5 -184q0 -46 41 -46q50 0 118 127q30 58 65 200.5t37 149.5q6 21 45.5 39t86.5 18 q19 0 19 -18q0 -4 -3 -9.5t-8.5 -14.5t-8.5 -16q22 5 43 65q2 7 2.5 22t4.5 26q9 22 30.5 34.5t43.5 3.5q48 -16 25 -78q-17 -44 -79 -74t-80 -22q-1 -1 -1 -3q-19 -68 -51 -218.5t-32 -204.5zM628 699q-2 -9 -14 -9q-6 -1 -13.5 -3t-9.5 -2q-6 0 -6 5q-2 22 28.5 62.5 t30.5 59.5q0 26 -29 26q-10 0 -16.5 -6t-6.5 -14q0 -4 7 -10.5t7 -13.5t-7 -13.5t-18 -6.5q-14 0 -23 9.5t-9 22.5q0 25 22 44t56 18q37 -1 58.5 -16.5t20.5 -47.5q0 -23 -17.5 -41.5t-37.5 -34t-23 -29.5z" />
</font>
</defs>
</svg>
